0
SECTION
2
HEADER
9
$ACADVER
1
AC1008
9
$UCSORG
10
0.0
20
0.0
30
0.0
9
$UCSXDIR
10
1.0
20
0.0
30
0.0
9
$TILEMODE
70
1
9
$UCSYDIR
10
0.0
20
1.0
30
0.0
9
$EXTMIN
10
-44.045502
20
-38.833504
30
-72.010918
9
$EXTMAX
10
141.432144
20
592.156311
30
42.010876
0
ENDSEC
0
SECTION
2
TABLES
0
TABLE
2
LTYPE
70
1
0
LTYPE
2
CONTINUOUS
70
64
3
Solid line
72
65
73
0
40
0.0
0
ENDTAB
0
TABLE
2
LAYER
70
3
0
LAYER
2
BADY
70
0
62
250
6
CONTINUOUS
0
LAYER
2
BAI
70
0
62
114
6
CONTINUOUS
0
LAYER
2
I
70
0
62
52
6
CONTINUOUS
0
ENDTAB
0
TABLE
2
STYLE
70
1
0
STYLE
2
STANDARD
70
0
40
0.0
41
1.0
50
0.0
71
0
42
0.2
3
txt
4

0
ENDTAB
0
TABLE
2
UCS
70
0
0
ENDTAB
0
ENDSEC
0
SECTION
2
ENTITIES
0
POLYLINE
8
BADY
66
1
70
64
71
487
72
954
62
250
0
VERTEX
8
BADY
10
40.000000
20
-33.704853
30
-68.586479
70
192
0
VERTEX
8
BADY
10
54.087902
20
-29.990332
30
-68.586479
70
192
0
VERTEX
8
BADY
10
67.782021
20
-19.717367
30
-68.586479
70
192
0
VERTEX
8
BADY
10
80.688560
20
-4.191886
30
-68.586479
70
192
0
VERTEX
8
BADY
10
86.903870
20
5.433181
30
-68.586472
70
192
0
VERTEX
8
BADY
10
92.751480
20
15.927772
30
-68.586472
70
192
0
VERTEX
8
BADY
10
98.177475
20
27.113111
30
-68.586472
70
192
0
VERTEX
8
BADY
10
104.333801
20
41.922070
30
-68.586472
70
192
0
VERTEX
8
BADY
10
109.626328
20
57.186539
30
-68.586472
70
192
0
VERTEX
8
BADY
10
113.947037
20
72.548309
30
-68.586464
70
192
0
VERTEX
8
BADY
10
117.233971
20
87.906723
30
-68.586464
70
192
0
VERTEX
8
BADY
10
119.289536
20
102.617889
30
-68.586472
70
192
0
VERTEX
8
BADY
10
120.000000
20
116.304626
30
-68.586449
70
192
0
VERTEX
8
BADY
10
120.000000
20
165.484192
30
-68.586433
70
192
0
VERTEX
8
BADY
10
120.000000
20
213.776657
30
-68.586426
70
192
0
VERTEX
8
BADY
10
120.000000
20
246.291245
30
-68.586426
70
192
0
VERTEX
8
BADY
10
118.804787
20
251.713287
30
-68.586411
70
192
0
VERTEX
8
BADY
10
115.386620
20
255.115753
30
-68.586411
70
192
0
VERTEX
8
BADY
10
109.996712
20
256.295135
30
-68.586411
70
192
0
VERTEX
8
BADY
10
67.313789
20
256.295135
30
-68.586411
70
192
0
VERTEX
8
BADY
10
12.674160
20
256.295135
30
-68.586411
70
192
0
VERTEX
8
BADY
10
-30.003281
20
256.295135
30
-68.586403
70
192
0
VERTEX
8
BADY
10
-35.389717
20
255.115753
30
-68.586403
70
192
0
VERTEX
8
BADY
10
-38.805603
20
251.713287
30
-68.586403
70
192
0
VERTEX
8
BADY
10
-40.000000
20
246.291245
30
-68.586411
70
192
0
VERTEX
8
BADY
10
-40.000000
20
213.776642
30
-68.586411
70
192
0
VERTEX
8
BADY
10
-40.000000
20
165.484192
30
-68.586418
70
192
0
VERTEX
8
BADY
10
-40.000000
20
116.304626
30
-68.586433
70
192
0
VERTEX
8
BADY
10
-39.423584
20
104.045494
30
-68.586449
70
192
0
VERTEX
8
BADY
10
-37.749512
20
90.926781
30
-68.586441
70
192
0
VERTEX
8
BADY
10
-35.060577
20
77.223022
30
-68.586441
70
192
0
VERTEX
8
BADY
10
-31.460617
20
63.281769
30
-68.586464
70
192
0
VERTEX
8
BADY
10
-27.019722
20
49.303513
30
-68.586456
70
192
0
VERTEX
8
BADY
10
-21.819405
20
35.558559
30
-68.586464
70
192
0
VERTEX
8
BADY
10
-15.432610
20
21.264151
30
-68.586472
70
192
0
VERTEX
8
BADY
10
-8.355595
20
7.901359
30
-68.586472
70
192
0
VERTEX
8
BADY
10
-0.691559
20
-4.187599
30
-68.586472
70
192
0
VERTEX
8
BADY
10
12.215822
20
-19.715246
30
-68.586479
70
192
0
VERTEX
8
BADY
10
25.910971
20
-29.989752
30
-68.586479
70
192
0
VERTEX
8
BADY
10
40.000000
20
-20.719013
30
-48.591225
70
192
0
VERTEX
8
BADY
10
53.347298
20
-17.199757
30
-48.591225
70
192
0
VERTEX
8
BADY
10
66.321518
20
-7.466863
30
-48.591225
70
192
0
VERTEX
8
BADY
10
78.549545
20
7.242449
30
-48.591225
70
192
0
VERTEX
8
BADY
10
84.438118
20
16.361528
30
-48.591225
70
192
0
VERTEX
8
BADY
10
89.978317
20
26.304413
30
-48.591228
70
192
0
VERTEX
8
BADY
10
95.119064
20
36.901741
30
-48.591232
70
192
0
VERTEX
8
BADY
10
100.951744
20
50.932182
30
-48.591232
70
192
0
VERTEX
8
BADY
10
105.966049
20
65.394196
30
-48.591202
70
192
0
VERTEX
8
BADY
10
110.059608
20
79.948395
30
-48.591206
70
192
0
VERTEX
8
BADY
10
113.173759
20
94.499405
30
-48.591206
70
192
0
VERTEX
8
BADY
10
115.121254
20
108.437195
30
-48.591209
70
192
0
VERTEX
8
BADY
10
115.794373
20
121.404419
30
-48.591209
70
192
0
VERTEX
8
BADY
10
115.794373
20
167.998596
30
-48.591183
70
192
0
VERTEX
8
BADY
10
115.794373
20
213.752304
30
-48.591190
70
192
0
VERTEX
8
BADY
10
115.794373
20
244.557587
30
-48.591156
70
192
0
VERTEX
8
BADY
10
114.661995
20
249.694595
30
-48.591156
70
192
0
VERTEX
8
BADY
10
111.423515
20
252.918198
30
-48.591156
70
192
0
VERTEX
8
BADY
10
106.316963
20
254.035583
30
-48.591167
70
192
0
VERTEX
8
BADY
10
65.877892
20
254.035583
30
-48.591167
70
192
0
VERTEX
8
BADY
10
14.110687
20
254.035583
30
-48.591167
70
192
0
VERTEX
8
BADY
10
-26.323189
20
254.035583
30
-48.591167
70
192
0
VERTEX
8
BADY
10
-31.426453
20
252.918198
30
-48.591156
70
192
0
VERTEX
8
BADY
10
-34.662766
20
249.694595
30
-48.591156
70
192
0
VERTEX
8
BADY
10
-35.794373
20
244.557587
30
-48.591156
70
192
0
VERTEX
8
BADY
10
-35.794373
20
213.752289
30
-48.591152
70
192
0
VERTEX
8
BADY
10
-35.794373
20
167.998596
30
-48.591183
70
192
0
VERTEX
8
BADY
10
-35.794373
20
121.404419
30
-48.591179
70
192
0
VERTEX
8
BADY
10
-35.248253
20
109.789757
30
-48.591179
70
192
0
VERTEX
8
BADY
10
-33.662193
20
97.360703
30
-48.591209
70
192
0
VERTEX
8
BADY
10
-31.114624
20
84.377350
30
-48.591209
70
192
0
VERTEX
8
BADY
10
-27.703903
20
71.168991
30
-48.591206
70
192
0
VERTEX
8
BADY
10
-23.496468
20
57.925583
30
-48.591202
70
192
0
VERTEX
8
BADY
10
-18.569534
20
44.903206
30
-48.591198
70
192
0
VERTEX
8
BADY
10
-12.518494
20
31.360260
30
-48.591202
70
192
0
VERTEX
8
BADY
10
-5.813522
20
18.699945
30
-48.591225
70
192
0
VERTEX
8
BADY
10
1.447609
20
7.246508
30
-48.591225
70
192
0
VERTEX
8
BADY
10
13.676445
20
-7.464849
30
-48.591225
70
192
0
VERTEX
8
BADY
10
26.651634
20
-17.199207
30
-48.591225
70
192
0
VERTEX
8
BADY
10
39.969566
20
-6.968594
30
-38.837456
70
192
0
VERTEX
8
BADY
10
52.532646
20
-3.656132
30
-38.837456
70
192
0
VERTEX
8
BADY
10
64.744568
20
5.504940
30
-38.837456
70
192
0
VERTEX
8
BADY
10
76.254150
20
19.349993
30
-38.837471
70
192
0
VERTEX
8
BADY
10
81.796753
20
27.933298
30
-38.837460
70
192
0
VERTEX
8
BADY
10
87.011444
20
37.291985
30
-38.837460
70
192
0
VERTEX
8
BADY
10
91.850159
20
47.266670
30
-38.837463
70
192
0
VERTEX
8
BADY
10
97.340141
20
60.472775
30
-38.837475
70
192
0
VERTEX
8
BADY
10
102.059822
20
74.085083
30
-38.837452
70
192
0
VERTEX
8
BADY
10
105.912880
20
87.784157
30
-38.837437
70
192
0
VERTEX
8
BADY
10
108.844055
20
101.480240
30
-38.837448
70
192
0
VERTEX
8
BADY
10
110.677124
20
114.599129
30
-38.837440
70
192
0
VERTEX
8
BADY
10
111.310699
20
126.804474
30
-38.837440
70
192
0
VERTEX
8
BADY
10
111.310699
20
170.661041
30
-38.837429
70
192
0
VERTEX
8
BADY
10
111.310699
20
213.726517
30
-38.837418
70
192
0
VERTEX
8
BADY
10
111.310699
20
242.721893
30
-38.837402
70
192
0
VERTEX
8
BADY
10
110.244843
20
247.557068
30
-38.837402
70
192
0
VERTEX
8
BADY
10
107.196655
20
250.591263
30
-38.837402
70
192
0
VERTEX
8
BADY
10
102.390121
20
251.642975
30
-38.837402
70
192
0
VERTEX
8
BADY
10
64.327026
20
251.642975
30
-38.837402
70
192
0
VERTEX
8
BADY
10
15.601357
20
251.642975
30
-38.837402
70
192
0
VERTEX
8
BADY
10
-22.456860
20
251.642975
30
-38.837402
70
192
0
VERTEX
8
BADY
10
-27.260284
20
250.591263
30
-38.837402
70
192
0
VERTEX
8
BADY
10
-30.306458
20
247.557068
30
-38.837402
70
192
0
VERTEX
8
BADY
10
-31.371567
20
242.721893
30
-38.837402
70
192
0
VERTEX
8
BADY
10
-31.371567
20
213.726517
30
-38.837410
70
192
0
VERTEX
8
BADY
10
-31.371567
20
170.661041
30
-38.837399
70
192
0
VERTEX
8
BADY
10
-31.371567
20
126.804474
30
-38.837425
70
192
0
VERTEX
8
BADY
10
-30.857544
20
115.872223
30
-38.837425
70
192
0
VERTEX
8
BADY
10
-29.364670
20
104.173424
30
-38.837437
70
192
0
VERTEX
8
BADY
10
-26.966774
20
91.952896
30
-38.837448
70
192
0
VERTEX
8
BADY
10
-23.756454
20
79.520584
30
-38.837437
70
192
0
VERTEX
8
BADY
10
-19.796223
20
67.055283
30
-38.837433
70
192
0
VERTEX
8
BADY
10
-15.158768
20
54.798027
30
-38.837444
70
192
0
VERTEX
8
BADY
10
-9.463249
20
42.050781
30
-38.837444
70
192
0
VERTEX
8
BADY
10
-3.152222
20
30.134325
30
-38.837460
70
192
0
VERTEX
8
BADY
10
3.682289
20
19.353823
30
-38.837471
70
192
0
VERTEX
8
BADY
10
15.192631
20
5.506816
30
-38.837456
70
192
0
VERTEX
8
BADY
10
27.405472
20
-3.655613
30
-38.837456
70
192
0
VERTEX
8
BADY
10
39.895756
20
10.648258
30
-30.546778
70
192
0
VERTEX
8
BADY
10
51.454121
20
13.695812
30
-30.546778
70
192
0
VERTEX
8
BADY
10
62.689400
20
22.124218
30
-30.546780
70
192
0
VERTEX
8
BADY
10
73.278526
20
34.862057
30
-30.546766
70
192
0
VERTEX
8
BADY
10
78.377853
20
42.758892
30
-30.546766
70
192
0
VERTEX
8
BADY
10
83.175499
20
51.369152
30
-30.546768
70
192
0
VERTEX
8
BADY
10
87.627235
20
60.546116
30
-30.546757
70
192
0
VERTEX
8
BADY
10
92.678185
20
72.696075
30
-30.546747
70
192
0
VERTEX
8
BADY
10
97.020416
20
85.219742
30
-30.546749
70
192
0
VERTEX
8
BADY
10
100.565308
20
97.823250
30
-30.546751
70
192
0
VERTEX
8
BADY
10
103.262062
20
110.424004
30
-30.546751
70
192
0
VERTEX
8
BADY
10
104.948555
20
122.493721
30
-30.546738
70
192
0
VERTEX
8
BADY
10
105.531448
20
133.722946
30
-30.546740
70
192
0
VERTEX
8
BADY
10
105.531448
20
174.072128
30
-30.546736
70
192
0
VERTEX
8
BADY
10
105.531448
20
213.693497
30
-30.546726
70
192
0
VERTEX
8
BADY
10
105.531448
20
240.370010
30
-30.546715
70
192
0
VERTEX
8
BADY
10
104.550842
20
244.818497
30
-30.546715
70
192
0
VERTEX
8
BADY
10
101.746422
20
247.610031
30
-30.546715
70
192
0
VERTEX
8
BADY
10
97.324295
20
248.577652
30
-30.546715
70
192
0
VERTEX
8
BADY
10
62.305241
20
248.577652
30
-30.546715
70
192
0
VERTEX
8
BADY
10
17.476370
20
248.577652
30
-30.546692
70
192
0
VERTEX
8
BADY
10
-17.538177
20
248.577652
30
-30.546692
70
192
0
VERTEX
8
BADY
10
-21.957458
20
247.610031
30
-30.546692
70
192
0
VERTEX
8
BADY
10
-24.760010
20
244.818497
30
-30.546692
70
192
0
VERTEX
8
BADY
10
-25.739944
20
240.370010
30
-30.546692
70
192
0
VERTEX
8
BADY
10
-25.739944
20
213.693497
30
-30.546711
70
192
0
VERTEX
8
BADY
10
-25.739944
20
174.072128
30
-30.546721
70
192
0
VERTEX
8
BADY
10
-25.739944
20
133.722946
30
-30.546732
70
192
0
VERTEX
8
BADY
10
-25.267021
20
123.665001
30
-30.546730
70
192
0
VERTEX
8
BADY
10
-23.893547
20
112.901794
30
-30.546730
70
192
0
VERTEX
8
BADY
10
-21.687420
20
101.658600
30
-30.546728
70
192
0
VERTEX
8
BADY
10
-18.733841
20
90.220551
30
-30.546734
70
192
0
VERTEX
8
BADY
10
-15.090324
20
78.752144
30
-30.546747
70
192
0
VERTEX
8
BADY
10
-10.823742
20
67.475151
30
-30.546747
70
192
0
VERTEX
8
BADY
10
-5.583721
20
55.747360
30
-30.546745
70
192
0
VERTEX
8
BADY
10
0.222588
20
44.783913
30
-30.546743
70
192
0
VERTEX
8
BADY
10
6.510517
20
34.865566
30
-30.546743
70
192
0
VERTEX
8
BADY
10
17.100330
20
22.125965
30
-30.546764
70
192
0
VERTEX
8
BADY
10
28.336462
20
13.696285
30
-30.546778
70
192
0
VERTEX
8
BADY
10
39.803619
20
35.602673
30
-22.256063
70
192
0
VERTEX
8
BADY
10
49.938789
20
38.274990
30
-22.256063
70
192
0
VERTEX
8
BADY
10
59.790661
20
45.665600
30
-22.256065
70
192
0
VERTEX
8
BADY
10
69.075935
20
56.835007
30
-22.256065
70
192
0
VERTEX
8
BADY
10
73.547379
20
63.759499
30
-22.256044
70
192
0
VERTEX
8
BADY
10
77.754280
20
71.309578
30
-22.256044
70
192
0
VERTEX
8
BADY
10
81.657875
20
79.356560
30
-22.256046
70
192
0
VERTEX
8
BADY
10
86.086891
20
90.010475
30
-22.256046
70
192
0
VERTEX
8
BADY
10
89.894463
20
100.992096
30
-22.256048
70
192
0
VERTEX
8
BADY
10
93.002853
20
112.043716
30
-22.256050
70
192
0
VERTEX
8
BADY
10
95.367561
20
123.092926
30
-22.256050
70
192
0
VERTEX
8
BADY
10
96.846375
20
133.676483
30
-22.256052
70
192
0
VERTEX
8
BADY
10
97.357521
20
143.523056
30
-22.256031
70
192
0
VERTEX
8
BADY
10
97.357521
20
178.903992
30
-22.256035
70
192
0
VERTEX
8
BADY
10
97.357521
20
213.646729
30
-22.255993
70
192
0
VERTEX
8
BADY
10
97.357521
20
237.038513
30
-22.255997
70
192
0
VERTEX
8
BADY
10
96.497650
20
240.939270
30
-22.255997
70
192
0
VERTEX
8
BADY
10
94.038544
20
243.387039
30
-22.255997
70
192
0
VERTEX
8
BADY
10
90.160919
20
244.235565
30
-22.255997
70
192
0
VERTEX
8
BADY
10
59.453804
20
244.235565
30
-22.255997
70
192
0
VERTEX
8
BADY
10
20.144764
20
244.235565
30
-22.255997
70
192
0
VERTEX
8
BADY
10
-10.558403
20
244.235565
30
-22.255981
70
192
0
VERTEX
8
BADY
10
-14.433529
20
243.387039
30
-22.255981
70
192
0
VERTEX
8
BADY
10
-16.890999
20
240.939270
30
-22.255981
70
192
0
VERTEX
8
BADY
10
-17.750275
20
237.038513
30
-22.255997
70
192
0
VERTEX
8
BADY
10
-17.750275
20
213.646729
30
-22.255993
70
192
0
VERTEX
8
BADY
10
-17.750275
20
178.903992
30
-22.255989
70
192
0
VERTEX
8
BADY
10
-17.750275
20
143.523056
30
-22.256031
70
192
0
VERTEX
8
BADY
10
-17.335579
20
134.703537
30
-22.256029
70
192
0
VERTEX
8
BADY
10
-16.131218
20
125.265633
30
-22.256029
70
192
0
VERTEX
8
BADY
10
-14.196739
20
115.406822
30
-22.256027
70
192
0
VERTEX
8
BADY
10
-11.606838
20
105.377151
30
-22.256048
70
192
0
VERTEX
8
BADY
10
-8.411953
20
95.320862
30
-22.256048
70
192
0
VERTEX
8
BADY
10
-4.670719
20
85.432419
30
-22.256046
70
192
0
VERTEX
8
BADY
10
-0.075909
20
75.148689
30
-22.256044
70
192
0
VERTEX
8
BADY
10
5.015461
20
65.535179
30
-22.256044
70
192
0
VERTEX
8
BADY
10
10.529150
20
56.838093
30
-22.256042
70
192
0
VERTEX
8
BADY
10
19.815025
20
45.667118
30
-22.256065
70
192
0
VERTEX
8
BADY
10
29.667641
20
38.275402
30
-22.256063
70
192
0
VERTEX
8
BADY
10
39.711296
20
71.756248
30
-13.965381
70
192
0
VERTEX
8
BADY
10
47.784557
20
73.884895
30
-13.965381
70
192
0
VERTEX
8
BADY
10
55.632156
20
79.771957
30
-13.965382
70
192
0
VERTEX
8
BADY
10
63.028412
20
88.669052
30
-13.965383
70
192
0
VERTEX
8
BADY
10
66.590210
20
94.184830
30
-13.965376
70
192
0
VERTEX
8
BADY
10
69.941261
20
100.198914
30
-13.965377
70
192
0
VERTEX
8
BADY
10
73.050697
20
106.608826
30
-13.965377
70
192
0
VERTEX
8
BADY
10
76.578674
20
115.095299
30
-13.965378
70
192
0
VERTEX
8
BADY
10
79.611626
20
123.842819
30
-13.965379
70
192
0
VERTEX
8
BADY
10
82.087662
20
132.646088
30
-13.965358
70
192
0
VERTEX
8
BADY
10
83.971275
20
141.447449
30
-13.965359
70
192
0
VERTEX
8
BADY
10
85.149246
20
149.877884
30
-13.965360
70
192
0
VERTEX
8
BADY
10
85.556404
20
157.721268
30
-13.965338
70
192
0
VERTEX
8
BADY
10
85.556404
20
185.904297
30
-13.965333
70
192
0
VERTEX
8
BADY
10
85.556404
20
213.578979
30
-13.965314
70
192
0
VERTEX
8
BADY
10
85.556404
20
232.211899
30
-13.965316
70
192
0
VERTEX
8
BADY
10
84.871475
20
235.319092
30
-13.965301
70
192
0
VERTEX
8
BADY
10
82.912643
20
237.268906
30
-13.965302
70
192
0
VERTEX
8
BADY
10
79.823875
20
237.944778
30
-13.965302
70
192
0
VERTEX
8
BADY
10
55.363834
20
237.944778
30
-13.965302
70
192
0
VERTEX
8
BADY
10
24.051830
20
237.944778
30
-13.965302
70
192
0
VERTEX
8
BADY
10
-0.405071
20
237.944778
30
-13.965286
70
192
0
VERTEX
8
BADY
10
-3.491840
20
237.268906
30
-13.965286
70
192
0
VERTEX
8
BADY
10
-5.449364
20
235.319092
30
-13.965285
70
192
0
VERTEX
8
BADY
10
-6.133827
20
232.211899
30
-13.965301
70
192
0
VERTEX
8
BADY
10
-6.133827
20
213.578964
30
-13.965299
70
192
0
VERTEX
8
BADY
10
-6.133827
20
185.904297
30
-13.965310
70
192
0
VERTEX
8
BADY
10
-6.133827
20
157.721268
30
-13.965330
70
192
0
VERTEX
8
BADY
10
-5.803497
20
150.695999
30
-13.965337
70
192
0
VERTEX
8
BADY
10
-4.844154
20
143.178131
30
-13.965336
70
192
0
VERTEX
8
BADY
10
-3.303226
20
135.324997
30
-13.965335
70
192
0
VERTEX
8
BADY
10
-1.240215
20
127.335777
30
-13.965357
70
192
0
VERTEX
8
BADY
10
1.304703
20
119.325340
30
-13.965356
70
192
0
VERTEX
8
BADY
10
4.284817
20
111.448601
30
-13.965355
70
192
0
VERTEX
8
BADY
10
7.944859
20
103.256996
30
-13.965377
70
192
0
VERTEX
8
BADY
10
12.000439
20
95.599266
30
-13.965376
70
192
0
VERTEX
8
BADY
10
16.392422
20
88.671516
30
-13.965375
70
192
0
VERTEX
8
BADY
10
23.789175
20
79.773178
30
-13.965382
70
192
0
VERTEX
8
BADY
10
31.637373
20
73.885223
30
-13.965381
70
192
0
VERTEX
8
BADY
10
39.583675
20
115.084221
30
-7.137769
70
192
0
VERTEX
8
BADY
10
45.185883
20
116.561340
30
-7.137769
70
192
0
VERTEX
8
BADY
10
50.631470
20
120.646484
30
-7.137769
70
192
0
VERTEX
8
BADY
10
55.763889
20
126.820351
30
-7.137770
70
192
0
VERTEX
8
BADY
10
58.235485
20
130.647858
30
-7.137755
70
192
0
VERTEX
8
BADY
10
60.560848
20
134.821136
30
-7.137756
70
192
0
VERTEX
8
BADY
10
62.718548
20
139.269104
30
-7.137756
70
192
0
VERTEX
8
BADY
10
65.166664
20
145.158035
30
-7.137757
70
192
0
VERTEX
8
BADY
10
67.271301
20
151.228104
30
-7.137758
70
192
0
VERTEX
8
BADY
10
68.989464
20
157.336868
30
-7.137751
70
192
0
VERTEX
8
BADY
10
70.296547
20
163.444305
30
-7.137752
70
192
0
VERTEX
8
BADY
10
71.113968
20
169.294342
30
-7.137752
70
192
0
VERTEX
8
BADY
10
71.396484
20
174.737015
30
-7.137722
70
192
0
VERTEX
8
BADY
10
71.396484
20
194.293777
30
-7.137717
70
192
0
VERTEX
8
BADY
10
71.396484
20
213.497742
30
-7.137712
70
192
0
VERTEX
8
BADY
10
71.396484
20
226.427505
30
-7.137713
70
192
0
VERTEX
8
BADY
10
70.921196
20
228.583664
30
-7.137691
70
192
0
VERTEX
8
BADY
10
69.561943
20
229.936676
30
-7.137691
70
192
0
VERTEX
8
BADY
10
67.418587
20
230.405670
30
-7.137691
70
192
0
VERTEX
8
BADY
10
50.445286
20
230.405670
30
-7.137691
70
192
0
VERTEX
8
BADY
10
28.717283
20
230.405670
30
-7.137691
70
192
0
VERTEX
8
BADY
10
11.746162
20
230.405670
30
-7.137675
70
192
0
VERTEX
8
BADY
10
9.604195
20
229.936676
30
-7.137675
70
192
0
VERTEX
8
BADY
10
8.245831
20
228.583664
30
-7.137675
70
192
0
VERTEX
8
BADY
10
7.770866
20
226.427505
30
-7.137690
70
192
0
VERTEX
8
BADY
10
7.770866
20
213.497742
30
-7.137689
70
192
0
VERTEX
8
BADY
10
7.770866
20
194.293777
30
-7.137709
70
192
0
VERTEX
8
BADY
10
7.770866
20
174.737015
30
-7.137715
70
192
0
VERTEX
8
BADY
10
8.000088
20
169.862045
30
-7.137722
70
192
0
VERTEX
8
BADY
10
8.665796
20
164.645248
30
-7.137721
70
192
0
VERTEX
8
BADY
10
9.735077
20
159.195816
30
-7.137721
70
192
0
VERTEX
8
BADY
10
11.166641
20
153.651932
30
-7.137750
70
192
0
VERTEX
8
BADY
10
12.932610
20
148.093338
30
-7.137750
70
192
0
VERTEX
8
BADY
10
15.000568
20
142.627518
30
-7.137749
70
192
0
VERTEX
8
BADY
10
17.540339
20
136.943207
30
-7.137756
70
192
0
VERTEX
8
BADY
10
20.354586
20
131.629349
30
-7.137755
70
192
0
VERTEX
8
BADY
10
23.402266
20
126.822052
30
-7.137755
70
192
0
VERTEX
8
BADY
10
28.535017
20
120.647324
30
-7.137769
70
192
0
VERTEX
8
BADY
10
33.981030
20
116.561562
30
-7.137769
70
192
0
VERTEX
8
BADY
10
40.000000
20
-38.833504
30
-72.010841
70
192
0
VERTEX
8
BADY
10
54.800308
20
-34.987602
30
-72.010841
70
192
0
VERTEX
8
BADY
10
69.186928
20
-24.351278
30
-72.010841
70
192
0
VERTEX
8
BADY
10
82.746132
20
-8.276657
30
-72.010841
70
192
0
VERTEX
8
BADY
10
89.275742
20
1.688842
30
-72.010841
70
192
0
VERTEX
8
BADY
10
95.419060
20
12.554633
30
-72.010841
70
192
0
VERTEX
8
BADY
10
101.119446
20
24.135595
30
-72.010841
70
192
0
VERTEX
8
BADY
10
107.587090
20
39.468349
30
-72.010841
70
192
0
VERTEX
8
BADY
10
113.147255
20
55.272720
30
-72.010849
70
192
0
VERTEX
8
BADY
10
117.686447
20
71.177834
30
-72.010849
70
192
0
VERTEX
8
BADY
10
121.139603
20
87.079475
30
-72.010849
70
192
0
VERTEX
8
BADY
10
123.299118
20
102.310974
30
-72.010857
70
192
0
VERTEX
8
BADY
10
124.045502
20
116.481812
30
-72.010857
70
192
0
VERTEX
8
BADY
10
124.045502
20
167.400848
30
-72.010857
70
192
0
VERTEX
8
BADY
10
124.045502
20
217.401428
30
-72.010864
70
192
0
VERTEX
8
BADY
10
124.045502
20
251.066040
30
-72.010864
70
192
0
VERTEX
8
BADY
10
122.789856
20
256.679871
30
-72.010864
70
192
0
VERTEX
8
BADY
10
119.198830
20
260.202698
30
-72.010864
70
192
0
VERTEX
8
BADY
10
113.536362
20
261.423767
30
-72.010864
70
192
0
VERTEX
8
BADY
10
68.695015
20
261.423767
30
-72.010864
70
192
0
VERTEX
8
BADY
10
11.292322
20
261.423767
30
-72.010864
70
192
0
VERTEX
8
BADY
10
-33.543274
20
261.423767
30
-72.010864
70
192
0
VERTEX
8
BADY
10
-39.202087
20
260.202698
30
-72.010864
70
192
0
VERTEX
8
BADY
10
-42.790710
20
256.679871
30
-72.010864
70
192
0
VERTEX
8
BADY
10
-44.045502
20
251.066040
30
-72.010864
70
192
0
VERTEX
8
BADY
10
-44.045502
20
217.401413
30
-72.010864
70
192
0
VERTEX
8
BADY
10
-44.045502
20
167.400848
30
-72.010857
70
192
0
VERTEX
8
BADY
10
-44.045502
20
116.481812
30
-72.010857
70
192
0
VERTEX
8
BADY
10
-43.439941
20
103.789078
30
-72.010857
70
192
0
VERTEX
8
BADY
10
-41.681213
20
90.206352
30
-72.010849
70
192
0
VERTEX
8
BADY
10
-38.856308
20
76.017891
30
-72.010849
70
192
0
VERTEX
8
BADY
10
-35.074295
20
61.583538
30
-72.010849
70
192
0
VERTEX
8
BADY
10
-30.408829
20
47.110874
30
-72.010841
70
192
0
VERTEX
8
BADY
10
-24.945541
20
32.879757
30
-72.010841
70
192
0
VERTEX
8
BADY
10
-18.235771
20
18.079763
30
-72.010841
70
192
0
VERTEX
8
BADY
10
-10.800880
20
4.244331
30
-72.010841
70
192
0
VERTEX
8
BADY
10
-2.749283
20
-8.272209
30
-72.010841
70
192
0
VERTEX
8
BADY
10
10.810808
20
-24.349081
30
-72.010841
70
192
0
VERTEX
8
BADY
10
25.198505
20
-34.986977
30
-72.010841
70
192
0
VERTEX
8
BADY
10
40.000000
20
-38.833500
30
-68.586411
70
192
0
VERTEX
8
BADY
10
54.800308
20
-34.987598
30
-68.586411
70
192
0
VERTEX
8
BADY
10
69.186928
20
-24.351278
30
-68.586411
70
192
0
VERTEX
8
BADY
10
82.746132
20
-8.276656
30
-68.586411
70
192
0
VERTEX
8
BADY
10
89.275742
20
1.688843
30
-68.586411
70
192
0
VERTEX
8
BADY
10
95.419060
20
12.554633
30
-68.586411
70
192
0
VERTEX
8
BADY
10
101.119446
20
24.135595
30
-68.586411
70
192
0
VERTEX
8
BADY
10
107.587090
20
39.468349
30
-68.586411
70
192
0
VERTEX
8
BADY
10
113.147255
20
55.272720
30
-68.586426
70
192
0
VERTEX
8
BADY
10
117.686447
20
71.177834
30
-68.586426
70
192
0
VERTEX
8
BADY
10
121.139603
20
87.079475
30
-68.586426
70
192
0
VERTEX
8
BADY
10
123.299118
20
102.310974
30
-68.586426
70
192
0
VERTEX
8
BADY
10
124.045502
20
116.481812
30
-68.586426
70
192
0
VERTEX
8
BADY
10
124.045502
20
167.400848
30
-68.586433
70
192
0
VERTEX
8
BADY
10
124.045502
20
217.401428
30
-68.586433
70
192
0
VERTEX
8
BADY
10
124.045502
20
251.066055
30
-68.586441
70
192
0
VERTEX
8
BADY
10
122.789856
20
256.679871
30
-68.586441
70
192
0
VERTEX
8
BADY
10
119.198830
20
260.202698
30
-68.586441
70
192
0
VERTEX
8
BADY
10
113.536362
20
261.423767
30
-68.586441
70
192
0
VERTEX
8
BADY
10
68.695015
20
261.423767
30
-68.586441
70
192
0
VERTEX
8
BADY
10
11.292322
20
261.423767
30
-68.586441
70
192
0
VERTEX
8
BADY
10
-33.543274
20
261.423767
30
-68.586441
70
192
0
VERTEX
8
BADY
10
-39.202087
20
260.202698
30
-68.586441
70
192
0
VERTEX
8
BADY
10
-42.790710
20
256.679871
30
-68.586441
70
192
0
VERTEX
8
BADY
10
-44.045502
20
251.066055
30
-68.586441
70
192
0
VERTEX
8
BADY
10
-44.045502
20
217.401413
30
-68.586433
70
192
0
VERTEX
8
BADY
10
-44.045502
20
167.400848
30
-68.586433
70
192
0
VERTEX
8
BADY
10
-44.045502
20
116.481812
30
-68.586426
70
192
0
VERTEX
8
BADY
10
-43.439941
20
103.789078
30
-68.586426
70
192
0
VERTEX
8
BADY
10
-41.681213
20
90.206352
30
-68.586426
70
192
0
VERTEX
8
BADY
10
-38.856308
20
76.017891
30
-68.586426
70
192
0
VERTEX
8
BADY
10
-35.074295
20
61.583538
30
-68.586426
70
192
0
VERTEX
8
BADY
10
-30.408829
20
47.110874
30
-68.586418
70
192
0
VERTEX
8
BADY
10
-24.945541
20
32.879757
30
-68.586411
70
192
0
VERTEX
8
BADY
10
-18.235771
20
18.079763
30
-68.586411
70
192
0
VERTEX
8
BADY
10
-10.800880
20
4.244331
30
-68.586411
70
192
0
VERTEX
8
BADY
10
-2.749283
20
-8.272208
30
-68.586411
70
192
0
VERTEX
8
BADY
10
10.810808
20
-24.349081
30
-68.586411
70
192
0
VERTEX
8
BADY
10
25.198505
20
-34.986973
30
-68.586411
70
192
0
VERTEX
8
BADY
10
34.314819
20
161.121658
30
28.741024
70
192
0
VERTEX
8
BADY
10
35.059509
20
161.121658
30
31.490536
70
192
0
VERTEX
8
BADY
10
37.015305
20
161.121658
30
33.446316
70
192
0
VERTEX
8
BADY
10
39.764816
20
161.121658
30
34.191006
70
192
0
VERTEX
8
BADY
10
42.514328
20
161.121658
30
33.446316
70
192
0
VERTEX
8
BADY
10
44.470123
20
161.121658
30
31.490536
70
192
0
VERTEX
8
BADY
10
45.214813
20
161.121658
30
28.741024
70
192
0
VERTEX
8
BADY
10
44.470123
20
161.121658
30
25.991512
70
192
0
VERTEX
8
BADY
10
42.514328
20
161.121658
30
24.035702
70
192
0
VERTEX
8
BADY
10
39.764816
20
161.121658
30
23.291012
70
192
0
VERTEX
8
BADY
10
37.015305
20
161.121658
30
24.035702
70
192
0
VERTEX
8
BADY
10
35.059509
20
161.121658
30
25.991512
70
192
0
VERTEX
8
BADY
10
34.314819
20
168.250198
30
28.741022
70
192
0
VERTEX
8
BADY
10
35.059509
20
168.250198
30
31.490534
70
192
0
VERTEX
8
BADY
10
37.015305
20
168.250198
30
33.446335
70
192
0
VERTEX
8
BADY
10
39.764816
20
168.250198
30
34.191025
70
192
0
VERTEX
8
BADY
10
42.514328
20
168.250198
30
33.446335
70
192
0
VERTEX
8
BADY
10
44.470123
20
168.250198
30
31.490534
70
192
0
VERTEX
8
BADY
10
45.214813
20
168.250198
30
28.741022
70
192
0
VERTEX
8
BADY
10
44.470123
20
168.250198
30
25.991510
70
192
0
VERTEX
8
BADY
10
42.514328
20
168.250198
30
24.035700
70
192
0
VERTEX
8
BADY
10
39.764816
20
168.250198
30
23.291010
70
192
0
VERTEX
8
BADY
10
37.015305
20
168.250198
30
24.035700
70
192
0
VERTEX
8
BADY
10
35.059509
20
168.250198
30
25.991510
70
192
0
VERTEX
8
BADY
10
34.314819
20
184.268173
30
28.741020
70
192
0
VERTEX
8
BADY
10
35.059509
20
184.268173
30
31.490532
70
192
0
VERTEX
8
BADY
10
37.015305
20
184.268173
30
33.446312
70
192
0
VERTEX
8
BADY
10
39.764816
20
184.268173
30
34.191002
70
192
0
VERTEX
8
BADY
10
42.514328
20
184.268173
30
33.446312
70
192
0
VERTEX
8
BADY
10
44.470123
20
184.268173
30
31.490532
70
192
0
VERTEX
8
BADY
10
45.214813
20
184.268173
30
28.741020
70
192
0
VERTEX
8
BADY
10
44.470123
20
184.268173
30
25.991508
70
192
0
VERTEX
8
BADY
10
42.514328
20
184.268173
30
24.035698
70
192
0
VERTEX
8
BADY
10
39.764816
20
184.268173
30
23.291008
70
192
0
VERTEX
8
BADY
10
37.015305
20
184.268173
30
24.035698
70
192
0
VERTEX
8
BADY
10
35.059509
20
184.268173
30
25.991508
70
192
0
VERTEX
8
BADY
10
34.314823
20
201.124146
30
28.741018
70
192
0
VERTEX
8
BADY
10
35.059513
20
201.456451
30
31.470358
70
192
0
VERTEX
8
BADY
10
37.015308
20
201.692825
30
33.411823
70
192
0
VERTEX
8
BADY
10
39.764820
20
201.782822
30
34.151051
70
192
0
VERTEX
8
BADY
10
42.514332
20
201.692825
30
33.411823
70
192
0
VERTEX
8
BADY
10
44.470127
20
201.456451
30
31.470358
70
192
0
VERTEX
8
BADY
10
45.214817
20
201.124146
30
28.741018
70
192
0
VERTEX
8
BADY
10
44.470127
20
200.791855
30
26.011648
70
192
0
VERTEX
8
BADY
10
42.514332
20
200.555481
30
24.070181
70
192
0
VERTEX
8
BADY
10
39.764820
20
200.465485
30
23.330954
70
192
0
VERTEX
8
BADY
10
37.015308
20
200.555481
30
24.070181
70
192
0
VERTEX
8
BADY
10
35.059513
20
200.791855
30
26.011648
70
192
0
VERTEX
8
BADY
10
34.314823
20
206.327728
30
27.454885
70
192
0
VERTEX
8
BADY
10
35.059513
20
207.679214
30
29.849295
70
192
0
VERTEX
8
BADY
10
37.015308
20
208.640549
30
31.552542
70
192
0
VERTEX
8
BADY
10
39.764820
20
209.006592
30
32.201061
70
192
0
VERTEX
8
BADY
10
42.514332
20
208.640549
30
31.552542
70
192
0
VERTEX
8
BADY
10
44.470127
20
207.679214
30
29.849295
70
192
0
VERTEX
8
BADY
10
45.214817
20
206.327728
30
27.454885
70
192
0
VERTEX
8
BADY
10
44.470127
20
204.976257
30
25.060446
70
192
0
VERTEX
8
BADY
10
42.514332
20
204.014908
30
23.357229
70
192
0
VERTEX
8
BADY
10
39.764820
20
203.648865
30
22.708700
70
192
0
VERTEX
8
BADY
10
37.015308
20
204.014908
30
23.357229
70
192
0
VERTEX
8
BADY
10
35.059513
20
204.976257
30
25.060446
70
192
0
VERTEX
8
BADY
10
34.314823
20
209.835526
30
23.947104
70
192
0
VERTEX
8
BADY
10
35.059513
20
212.229965
30
25.298573
70
192
0
VERTEX
8
BADY
10
37.015308
20
213.933182
30
26.259907
70
192
0
VERTEX
8
BADY
10
39.764820
20
214.581696
30
26.625965
70
192
0
VERTEX
8
BADY
10
42.514332
20
213.933182
30
26.259937
70
192
0
VERTEX
8
BADY
10
44.470127
20
212.229965
30
25.298573
70
192
0
VERTEX
8
BADY
10
45.214817
20
209.835526
30
23.947104
70
192
0
VERTEX
8
BADY
10
44.470127
20
207.441101
30
22.595602
70
192
0
VERTEX
8
BADY
10
42.514332
20
205.737885
30
21.634268
70
192
0
VERTEX
8
BADY
10
39.764820
20
205.089355
30
21.268240
70
192
0
VERTEX
8
BADY
10
37.015308
20
205.737885
30
21.634268
70
192
0
VERTEX
8
BADY
10
35.059513
20
207.441101
30
22.595602
70
192
0
VERTEX
8
BADY
10
34.314823
20
211.121658
30
18.743521
70
192
0
VERTEX
8
BADY
10
35.059513
20
213.851013
30
19.075796
70
192
0
VERTEX
8
BADY
10
37.015308
20
215.792465
30
19.312183
70
192
0
VERTEX
8
BADY
10
39.764820
20
216.531708
30
19.402180
70
192
0
VERTEX
8
BADY
10
42.514332
20
215.792465
30
19.312183
70
192
0
VERTEX
8
BADY
10
44.470127
20
213.851013
30
19.075796
70
192
0
VERTEX
8
BADY
10
45.214817
20
211.121658
30
18.743521
70
192
0
VERTEX
8
BADY
10
44.470127
20
208.392303
30
18.411215
70
192
0
VERTEX
8
BADY
10
42.514332
20
206.450836
30
18.174856
70
192
0
VERTEX
8
BADY
10
39.764820
20
205.711609
30
18.084860
70
192
0
VERTEX
8
BADY
10
37.015308
20
206.450836
30
18.174856
70
192
0
VERTEX
8
BADY
10
35.059513
20
208.392303
30
18.411215
70
192
0
VERTEX
8
BADY
10
34.314823
20
211.121658
30
1.887534
70
192
0
VERTEX
8
BADY
10
35.059513
20
213.871170
30
1.887533
70
192
0
VERTEX
8
BADY
10
37.015308
20
215.826965
30
1.887533
70
192
0
VERTEX
8
BADY
10
39.764820
20
216.571655
30
1.887533
70
192
0
VERTEX
8
BADY
10
42.514332
20
215.826965
30
1.887533
70
192
0
VERTEX
8
BADY
10
44.470127
20
213.871170
30
1.887533
70
192
0
VERTEX
8
BADY
10
45.214817
20
211.121658
30
1.887534
70
192
0
VERTEX
8
BADY
10
44.470127
20
208.372147
30
1.887534
70
192
0
VERTEX
8
BADY
10
42.514332
20
206.416351
30
1.887534
70
192
0
VERTEX
8
BADY
10
39.764820
20
205.671661
30
1.887534
70
192
0
VERTEX
8
BADY
10
37.015308
20
206.416351
30
1.887534
70
192
0
VERTEX
8
BADY
10
35.059513
20
208.372147
30
1.887534
70
192
0
VERTEX
8
BADY
10
34.314823
20
211.121658
30
-14.130428
70
192
0
VERTEX
8
BADY
10
35.059513
20
213.871170
30
-14.130429
70
192
0
VERTEX
8
BADY
10
37.015308
20
215.826965
30
-14.130429
70
192
0
VERTEX
8
BADY
10
39.764820
20
216.571655
30
-14.130429
70
192
0
VERTEX
8
BADY
10
42.514332
20
215.826965
30
-14.130429
70
192
0
VERTEX
8
BADY
10
44.470127
20
213.871170
30
-14.130429
70
192
0
VERTEX
8
BADY
10
45.214817
20
211.121658
30
-14.130428
70
192
0
VERTEX
8
BADY
10
44.470127
20
208.372147
30
-14.130428
70
192
0
VERTEX
8
BADY
10
42.514332
20
206.416351
30
-14.130428
70
192
0
VERTEX
8
BADY
10
39.764820
20
205.671661
30
-14.130428
70
192
0
VERTEX
8
BADY
10
37.015308
20
206.416351
30
-14.130428
70
192
0
VERTEX
8
BADY
10
35.059513
20
208.372147
30
-14.130428
70
192
0
VERTEX
8
BADY
10
34.314823
20
211.121658
30
-21.258968
70
192
0
VERTEX
8
BADY
10
35.059513
20
213.871170
30
-21.258968
70
192
0
VERTEX
8
BADY
10
37.015308
20
215.826965
30
-21.258968
70
192
0
VERTEX
8
BADY
10
39.764820
20
216.571655
30
-21.258968
70
192
0
VERTEX
8
BADY
10
42.514332
20
215.826965
30
-21.258968
70
192
0
VERTEX
8
BADY
10
44.470127
20
213.871170
30
-21.258968
70
192
0
VERTEX
8
BADY
10
45.214817
20
211.121658
30
-21.258968
70
192
0
VERTEX
8
BADY
10
44.470127
20
208.372147
30
-21.258968
70
192
0
VERTEX
8
BADY
10
42.514332
20
206.416351
30
-21.258968
70
192
0
VERTEX
8
BADY
10
39.764820
20
205.671661
30
-21.258968
70
192
0
VERTEX
8
BADY
10
37.015308
20
206.416351
30
-21.258968
70
192
0
VERTEX
8
BADY
10
35.059513
20
208.372147
30
-21.258968
70
192
0
VERTEX
8
BADY
10
115.711853
20
584.009888
30
-55.498222
70
192
0
VERTEX
8
BADY
10
116.344589
20
582.271484
30
-55.498222
70
192
0
VERTEX
8
BADY
10
116.344589
20
582.271484
30
-63.691963
70
192
0
VERTEX
8
BADY
10
115.711853
20
584.009888
30
-63.691963
70
192
0
VERTEX
8
BADY
10
137.379211
20
591.896179
30
-55.498222
70
192
0
VERTEX
8
BADY
10
138.011948
20
590.157715
30
-55.498222
70
192
0
VERTEX
8
BADY
10
138.011948
20
590.157715
30
-63.691963
70
192
0
VERTEX
8
BADY
10
137.379211
20
591.896179
30
-63.691963
70
192
0
VERTEX
8
BADY
10
119.132050
20
574.612976
30
-55.498222
70
192
0
VERTEX
8
BADY
10
119.764786
20
572.874512
30
-55.498222
70
192
0
VERTEX
8
BADY
10
119.764786
20
572.874512
30
-63.691963
70
192
0
VERTEX
8
BADY
10
119.132050
20
574.612976
30
-63.691959
70
192
0
VERTEX
8
BADY
10
140.799408
20
582.499268
30
-55.498222
70
192
0
VERTEX
8
BADY
10
141.432144
20
580.760803
30
-55.498222
70
192
0
VERTEX
8
BADY
10
141.432144
20
580.760803
30
-63.691963
70
192
0
VERTEX
8
BADY
10
140.799408
20
582.499268
30
-63.691963
70
192
0
VERTEX
8
BADY
10
0
20
0
30
0
70
128
71
18
72
17
73
-16
0
VERTEX
8
BADY
10
0
20
0
30
0
70
128
71
19
72
-18
73
-16
0
VERTEX
8
BADY
10
0
20
0
30
0
70
128
71
20
72
-19
73
-16
0
VERTEX
8
BADY
10
0
20
0
30
0
70
128
71
-20
72
16
73
-15
0
VERTEX
8
BADY
10
0
20
0
30
0
70
128
71
-20
72
15
73
-14
0
VERTEX
8
BADY
10
0
20
0
30
0
70
128
71
21
72
-20
73
-14
0
VERTEX
8
BADY
10
0
20
0
30
0
70
128
71
-21
72
14
73
-13
0
VERTEX
8
BADY
10
0
20
0
30
0
70
128
71
22
72
-21
73
-13
0
VERTEX
8
BADY
10
0
20
0
30
0
70
128
71
23
72
-22
73
-13
0
VERTEX
8
BADY
10
0
20
0
30
0
70
128
71
24
72
-23
73
-13
0
VERTEX
8
BADY
10
0
20
0
30
0
70
128
71
25
72
-24
73
-13
0
VERTEX
8
BADY
10
0
20
0
30
0
70
128
71
26
72
-25
73
-13
0
VERTEX
8
BADY
10
0
20
0
30
0
70
128
71
27
72
-26
73
-13
0
VERTEX
8
BADY
10
0
20
0
30
0
70
128
71
28
72
-27
73
-13
0
VERTEX
8
BADY
10
0
20
0
30
0
70
128
71
-28
72
13
73
-12
0
VERTEX
8
BADY
10
0
20
0
30
0
70
128
71
29
72
-28
73
-12
0
VERTEX
8
BADY
10
0
20
0
30
0
70
128
71
30
72
-29
73
-12
0
VERTEX
8
BADY
10
0
20
0
30
0
70
128
71
-30
72
12
73
-11
0
VERTEX
8
BADY
10
0
20
0
30
0
70
128
71
31
72
-30
73
-11
0
VERTEX
8
BADY
10
0
20
0
30
0
70
128
71
-31
72
11
73
-10
0
VERTEX
8
BADY
10
0
20
0
30
0
70
128
71
32
72
-31
73
-10
0
VERTEX
8
BADY
10
0
20
0
30
0
70
128
71
-32
72
10
73
-9
0
VERTEX
8
BADY
10
0
20
0
30
0
70
128
71
33
72
-32
73
-9
0
VERTEX
8
BADY
10
0
20
0
30
0
70
128
71
-33
72
9
73
-8
0
VERTEX
8
BADY
10
0
20
0
30
0
70
128
71
34
72
-33
73
-8
0
VERTEX
8
BADY
10
0
20
0
30
0
70
128
71
-34
72
8
73
-7
0
VERTEX
8
BADY
10
0
20
0
30
0
70
128
71
35
72
-34
73
-7
0
VERTEX
8
BADY
10
0
20
0
30
0
70
128
71
-35
72
7
73
-6
0
VERTEX
8
BADY
10
0
20
0
30
0
70
128
71
36
72
-35
73
-6
0
VERTEX
8
BADY
10
0
20
0
30
0
70
128
71
-36
72
6
73
-5
0
VERTEX
8
BADY
10
0
20
0
30
0
70
128
71
37
72
-36
73
-5
0
VERTEX
8
BADY
10
0
20
0
30
0
70
128
71
-37
72
5
73
-4
0
VERTEX
8
BADY
10
0
20
0
30
0
70
128
71
38
72
-37
73
-4
0
VERTEX
8
BADY
10
0
20
0
30
0
70
128
71
-38
72
4
73
-3
0
VERTEX
8
BADY
10
0
20
0
30
0
70
128
71
39
72
-38
73
-3
0
VERTEX
8
BADY
10
0
20
0
30
0
70
128
71
-39
72
3
73
-2
0
VERTEX
8
BADY
10
0
20
0
30
0
70
128
71
1
72
-39
73
2
0
VERTEX
8
BADY
10
0
20
0
30
0
70
128
71
1
72
2
73
-41
0
VERTEX
8
BADY
10
0
20
0
30
0
70
128
71
-1
72
41
73
40
0
VERTEX
8
BADY
10
0
20
0
30
0
70
128
71
2
72
3
73
-42
0
VERTEX
8
BADY
10
0
20
0
30
0
70
128
71
-2
72
42
73
41
0
VERTEX
8
BADY
10
0
20
0
30
0
70
128
71
3
72
4
73
-43
0
VERTEX
8
BADY
10
0
20
0
30
0
70
128
71
-3
72
43
73
42
0
VERTEX
8
BADY
10
0
20
0
30
0
70
128
71
4
72
5
73
-44
0
VERTEX
8
BADY
10
0
20
0
30
0
70
128
71
-4
72
44
73
43
0
VERTEX
8
BADY
10
0
20
0
30
0
70
128
71
5
72
6
73
-45
0
VERTEX
8
BADY
10
0
20
0
30
0
70
128
71
-5
72
45
73
44
0
VERTEX
8
BADY
10
0
20
0
30
0
70
128
71
6
72
7
73
-46
0
VERTEX
8
BADY
10
0
20
0
30
0
70
128
71
-6
72
46
73
45
0
VERTEX
8
BADY
10
0
20
0
30
0
70
128
71
7
72
8
73
-47
0
VERTEX
8
BADY
10
0
20
0
30
0
70
128
71
-7
72
47
73
46
0
VERTEX
8
BADY
10
0
20
0
30
0
70
128
71
8
72
9
73
-48
0
VERTEX
8
BADY
10
0
20
0
30
0
70
128
71
-8
72
48
73
47
0
VERTEX
8
BADY
10
0
20
0
30
0
70
128
71
9
72
10
73
-49
0
VERTEX
8
BADY
10
0
20
0
30
0
70
128
71
-9
72
49
73
48
0
VERTEX
8
BADY
10
0
20
0
30
0
70
128
71
10
72
11
73
-50
0
VERTEX
8
BADY
10
0
20
0
30
0
70
128
71
-10
72
50
73
49
0
VERTEX
8
BADY
10
0
20
0
30
0
70
128
71
11
72
12
73
-51
0
VERTEX
8
BADY
10
0
20
0
30
0
70
128
71
-11
72
51
73
50
0
VERTEX
8
BADY
10
0
20
0
30
0
70
128
71
12
72
13
73
-52
0
VERTEX
8
BADY
10
0
20
0
30
0
70
128
71
-12
72
52
73
51
0
VERTEX
8
BADY
10
0
20
0
30
0
70
128
71
13
72
14
73
-53
0
VERTEX
8
BADY
10
0
20
0
30
0
70
128
71
-13
72
53
73
52
0
VERTEX
8
BADY
10
0
20
0
30
0
70
128
71
14
72
15
73
-54
0
VERTEX
8
BADY
10
0
20
0
30
0
70
128
71
-14
72
54
73
53
0
VERTEX
8
BADY
10
0
20
0
30
0
70
128
71
15
72
16
73
-55
0
VERTEX
8
BADY
10
0
20
0
30
0
70
128
71
-15
72
55
73
54
0
VERTEX
8
BADY
10
0
20
0
30
0
70
128
71
16
72
17
73
-56
0
VERTEX
8
BADY
10
0
20
0
30
0
70
128
71
-16
72
56
73
55
0
VERTEX
8
BADY
10
0
20
0
30
0
70
128
71
17
72
18
73
-57
0
VERTEX
8
BADY
10
0
20
0
30
0
70
128
71
-17
72
57
73
56
0
VERTEX
8
BADY
10
0
20
0
30
0
70
128
71
18
72
19
73
-58
0
VERTEX
8
BADY
10
0
20
0
30
0
70
128
71
-18
72
58
73
57
0
VERTEX
8
BADY
10
0
20
0
30
0
70
128
71
19
72
20
73
-59
0
VERTEX
8
BADY
10
0
20
0
30
0
70
128
71
-19
72
59
73
58
0
VERTEX
8
BADY
10
0
20
0
30
0
70
128
71
20
72
21
73
-60
0
VERTEX
8
BADY
10
0
20
0
30
0
70
128
71
-20
72
60
73
59
0
VERTEX
8
BADY
10
0
20
0
30
0
70
128
71
21
72
22
73
-61
0
VERTEX
8
BADY
10
0
20
0
30
0
70
128
71
-21
72
61
73
60
0
VERTEX
8
BADY
10
0
20
0
30
0
70
128
71
22
72
23
73
-62
0
VERTEX
8
BADY
10
0
20
0
30
0
70
128
71
-22
72
62
73
61
0
VERTEX
8
BADY
10
0
20
0
30
0
70
128
71
23
72
24
73
-63
0
VERTEX
8
BADY
10
0
20
0
30
0
70
128
71
-23
72
63
73
62
0
VERTEX
8
BADY
10
0
20
0
30
0
70
128
71
24
72
25
73
-64
0
VERTEX
8
BADY
10
0
20
0
30
0
70
128
71
-24
72
64
73
63
0
VERTEX
8
BADY
10
0
20
0
30
0
70
128
71
25
72
26
73
-65
0
VERTEX
8
BADY
10
0
20
0
30
0
70
128
71
-25
72
65
73
64
0
VERTEX
8
BADY
10
0
20
0
30
0
70
128
71
26
72
27
73
-66
0
VERTEX
8
BADY
10
0
20
0
30
0
70
128
71
-26
72
66
73
65
0
VERTEX
8
BADY
10
0
20
0
30
0
70
128
71
27
72
28
73
-67
0
VERTEX
8
BADY
10
0
20
0
30
0
70
128
71
-27
72
67
73
66
0
VERTEX
8
BADY
10
0
20
0
30
0
70
128
71
28
72
29
73
-68
0
VERTEX
8
BADY
10
0
20
0
30
0
70
128
71
-28
72
68
73
67
0
VERTEX
8
BADY
10
0
20
0
30
0
70
128
71
29
72
30
73
-69
0
VERTEX
8
BADY
10
0
20
0
30
0
70
128
71
-29
72
69
73
68
0
VERTEX
8
BADY
10
0
20
0
30
0
70
128
71
30
72
31
73
-70
0
VERTEX
8
BADY
10
0
20
0
30
0
70
128
71
-30
72
70
73
69
0
VERTEX
8
BADY
10
0
20
0
30
0
70
128
71
31
72
32
73
-71
0
VERTEX
8
BADY
10
0
20
0
30
0
70
128
71
-31
72
71
73
70
0
VERTEX
8
BADY
10
0
20
0
30
0
70
128
71
32
72
33
73
-72
0
VERTEX
8
BADY
10
0
20
0
30
0
70
128
71
-32
72
72
73
71
0
VERTEX
8
BADY
10
0
20
0
30
0
70
128
71
33
72
34
73
-73
0
VERTEX
8
BADY
10
0
20
0
30
0
70
128
71
-33
72
73
73
72
0
VERTEX
8
BADY
10
0
20
0
30
0
70
128
71
34
72
35
73
-74
0
VERTEX
8
BADY
10
0
20
0
30
0
70
128
71
-34
72
74
73
73
0
VERTEX
8
BADY
10
0
20
0
30
0
70
128
71
35
72
36
73
-75
0
VERTEX
8
BADY
10
0
20
0
30
0
70
128
71
-35
72
75
73
74
0
VERTEX
8
BADY
10
0
20
0
30
0
70
128
71
36
72
37
73
-76
0
VERTEX
8
BADY
10
0
20
0
30
0
70
128
71
-36
72
76
73
75
0
VERTEX
8
BADY
10
0
20
0
30
0
70
128
71
37
72
38
73
-77
0
VERTEX
8
BADY
10
0
20
0
30
0
70
128
71
-37
72
77
73
76
0
VERTEX
8
BADY
10
0
20
0
30
0
70
128
71
38
72
39
73
-78
0
VERTEX
8
BADY
10
0
20
0
30
0
70
128
71
-38
72
78
73
77
0
VERTEX
8
BADY
10
0
20
0
30
0
70
128
71
39
72
1
73
-40
0
VERTEX
8
BADY
10
0
20
0
30
0
70
128
71
-39
72
40
73
78
0
VERTEX
8
BADY
10
0
20
0
30
0
70
128
71
40
72
41
73
-80
0
VERTEX
8
BADY
10
0
20
0
30
0
70
128
71
-40
72
80
73
79
0
VERTEX
8
BADY
10
0
20
0
30
0
70
128
71
41
72
42
73
-81
0
VERTEX
8
BADY
10
0
20
0
30
0
70
128
71
-41
72
81
73
80
0
VERTEX
8
BADY
10
0
20
0
30
0
70
128
71
42
72
43
73
-82
0
VERTEX
8
BADY
10
0
20
0
30
0
70
128
71
-42
72
82
73
81
0
VERTEX
8
BADY
10
0
20
0
30
0
70
128
71
43
72
44
73
-83
0
VERTEX
8
BADY
10
0
20
0
30
0
70
128
71
-43
72
83
73
82
0
VERTEX
8
BADY
10
0
20
0
30
0
70
128
71
44
72
45
73
-84
0
VERTEX
8
BADY
10
0
20
0
30
0
70
128
71
-44
72
84
73
83
0
VERTEX
8
BADY
10
0
20
0
30
0
70
128
71
45
72
46
73
-85
0
VERTEX
8
BADY
10
0
20
0
30
0
70
128
71
-45
72
85
73
84
0
VERTEX
8
BADY
10
0
20
0
30
0
70
128
71
46
72
47
73
-86
0
VERTEX
8
BADY
10
0
20
0
30
0
70
128
71
-46
72
86
73
85
0
VERTEX
8
BADY
10
0
20
0
30
0
70
128
71
47
72
48
73
-87
0
VERTEX
8
BADY
10
0
20
0
30
0
70
128
71
-47
72
87
73
86
0
VERTEX
8
BADY
10
0
20
0
30
0
70
128
71
48
72
49
73
-88
0
VERTEX
8
BADY
10
0
20
0
30
0
70
128
71
-48
72
88
73
87
0
VERTEX
8
BADY
10
0
20
0
30
0
70
128
71
49
72
50
73
-89
0
VERTEX
8
BADY
10
0
20
0
30
0
70
128
71
-49
72
89
73
88
0
VERTEX
8
BADY
10
0
20
0
30
0
70
128
71
50
72
51
73
-90
0
VERTEX
8
BADY
10
0
20
0
30
0
70
128
71
-50
72
90
73
89
0
VERTEX
8
BADY
10
0
20
0
30
0
70
128
71
51
72
52
73
-91
0
VERTEX
8
BADY
10
0
20
0
30
0
70
128
71
-51
72
91
73
90
0
VERTEX
8
BADY
10
0
20
0
30
0
70
128
71
52
72
53
73
-92
0
VERTEX
8
BADY
10
0
20
0
30
0
70
128
71
-52
72
92
73
91
0
VERTEX
8
BADY
10
0
20
0
30
0
70
128
71
53
72
54
73
-93
0
VERTEX
8
BADY
10
0
20
0
30
0
70
128
71
-53
72
93
73
92
0
VERTEX
8
BADY
10
0
20
0
30
0
70
128
71
54
72
55
73
-94
0
VERTEX
8
BADY
10
0
20
0
30
0
70
128
71
-54
72
94
73
93
0
VERTEX
8
BADY
10
0
20
0
30
0
70
128
71
55
72
56
73
-95
0
VERTEX
8
BADY
10
0
20
0
30
0
70
128
71
-55
72
95
73
94
0
VERTEX
8
BADY
10
0
20
0
30
0
70
128
71
56
72
57
73
-96
0
VERTEX
8
BADY
10
0
20
0
30
0
70
128
71
-56
72
96
73
95
0
VERTEX
8
BADY
10
0
20
0
30
0
70
128
71
57
72
58
73
-97
0
VERTEX
8
BADY
10
0
20
0
30
0
70
128
71
-57
72
97
73
96
0
VERTEX
8
BADY
10
0
20
0
30
0
70
128
71
58
72
59
73
-98
0
VERTEX
8
BADY
10
0
20
0
30
0
70
128
71
-58
72
98
73
97
0
VERTEX
8
BADY
10
0
20
0
30
0
70
128
71
59
72
60
73
-99
0
VERTEX
8
BADY
10
0
20
0
30
0
70
128
71
-59
72
99
73
98
0
VERTEX
8
BADY
10
0
20
0
30
0
70
128
71
60
72
61
73
-100
0
VERTEX
8
BADY
10
0
20
0
30
0
70
128
71
-60
72
100
73
99
0
VERTEX
8
BADY
10
0
20
0
30
0
70
128
71
61
72
62
73
-101
0
VERTEX
8
BADY
10
0
20
0
30
0
70
128
71
-61
72
101
73
100
0
VERTEX
8
BADY
10
0
20
0
30
0
70
128
71
62
72
63
73
-102
0
VERTEX
8
BADY
10
0
20
0
30
0
70
128
71
-62
72
102
73
101
0
VERTEX
8
BADY
10
0
20
0
30
0
70
128
71
63
72
64
73
-103
0
VERTEX
8
BADY
10
0
20
0
30
0
70
128
71
-63
72
103
73
102
0
VERTEX
8
BADY
10
0
20
0
30
0
70
128
71
64
72
65
73
-104
0
VERTEX
8
BADY
10
0
20
0
30
0
70
128
71
-64
72
104
73
103
0
VERTEX
8
BADY
10
0
20
0
30
0
70
128
71
65
72
66
73
-105
0
VERTEX
8
BADY
10
0
20
0
30
0
70
128
71
-65
72
105
73
104
0
VERTEX
8
BADY
10
0
20
0
30
0
70
128
71
66
72
67
73
-106
0
VERTEX
8
BADY
10
0
20
0
30
0
70
128
71
-66
72
106
73
105
0
VERTEX
8
BADY
10
0
20
0
30
0
70
128
71
67
72
68
73
-107
0
VERTEX
8
BADY
10
0
20
0
30
0
70
128
71
-67
72
107
73
106
0
VERTEX
8
BADY
10
0
20
0
30
0
70
128
71
68
72
69
73
-108
0
VERTEX
8
BADY
10
0
20
0
30
0
70
128
71
-68
72
108
73
107
0
VERTEX
8
BADY
10
0
20
0
30
0
70
128
71
69
72
70
73
-109
0
VERTEX
8
BADY
10
0
20
0
30
0
70
128
71
-69
72
109
73
108
0
VERTEX
8
BADY
10
0
20
0
30
0
70
128
71
70
72
71
73
-110
0
VERTEX
8
BADY
10
0
20
0
30
0
70
128
71
-70
72
110
73
109
0
VERTEX
8
BADY
10
0
20
0
30
0
70
128
71
71
72
72
73
-111
0
VERTEX
8
BADY
10
0
20
0
30
0
70
128
71
-71
72
111
73
110
0
VERTEX
8
BADY
10
0
20
0
30
0
70
128
71
72
72
73
73
-112
0
VERTEX
8
BADY
10
0
20
0
30
0
70
128
71
-72
72
112
73
111
0
VERTEX
8
BADY
10
0
20
0
30
0
70
128
71
73
72
74
73
-113
0
VERTEX
8
BADY
10
0
20
0
30
0
70
128
71
-73
72
113
73
112
0
VERTEX
8
BADY
10
0
20
0
30
0
70
128
71
74
72
75
73
-114
0
VERTEX
8
BADY
10
0
20
0
30
0
70
128
71
-74
72
114
73
113
0
VERTEX
8
BADY
10
0
20
0
30
0
70
128
71
75
72
76
73
-115
0
VERTEX
8
BADY
10
0
20
0
30
0
70
128
71
-75
72
115
73
114
0
VERTEX
8
BADY
10
0
20
0
30
0
70
128
71
76
72
77
73
-116
0
VERTEX
8
BADY
10
0
20
0
30
0
70
128
71
-76
72
116
73
115
0
VERTEX
8
BADY
10
0
20
0
30
0
70
128
71
77
72
78
73
-117
0
VERTEX
8
BADY
10
0
20
0
30
0
70
128
71
-77
72
117
73
116
0
VERTEX
8
BADY
10
0
20
0
30
0
70
128
71
78
72
40
73
-79
0
VERTEX
8
BADY
10
0
20
0
30
0
70
128
71
-78
72
79
73
117
0
VERTEX
8
BADY
10
0
20
0
30
0
70
128
71
79
72
80
73
-119
0
VERTEX
8
BADY
10
0
20
0
30
0
70
128
71
-79
72
119
73
118
0
VERTEX
8
BADY
10
0
20
0
30
0
70
128
71
80
72
81
73
-120
0
VERTEX
8
BADY
10
0
20
0
30
0
70
128
71
-80
72
120
73
119
0
VERTEX
8
BADY
10
0
20
0
30
0
70
128
71
81
72
82
73
-121
0
VERTEX
8
BADY
10
0
20
0
30
0
70
128
71
-81
72
121
73
120
0
VERTEX
8
BADY
10
0
20
0
30
0
70
128
71
82
72
83
73
-122
0
VERTEX
8
BADY
10
0
20
0
30
0
70
128
71
-82
72
122
73
121
0
VERTEX
8
BADY
10
0
20
0
30
0
70
128
71
83
72
84
73
-123
0
VERTEX
8
BADY
10
0
20
0
30
0
70
128
71
-83
72
123
73
122
0
VERTEX
8
BADY
10
0
20
0
30
0
70
128
71
84
72
85
73
-124
0
VERTEX
8
BADY
10
0
20
0
30
0
70
128
71
-84
72
124
73
123
0
VERTEX
8
BADY
10
0
20
0
30
0
70
128
71
85
72
86
73
-125
0
VERTEX
8
BADY
10
0
20
0
30
0
70
128
71
-85
72
125
73
124
0
VERTEX
8
BADY
10
0
20
0
30
0
70
128
71
86
72
87
73
-126
0
VERTEX
8
BADY
10
0
20
0
30
0
70
128
71
-86
72
126
73
125
0
VERTEX
8
BADY
10
0
20
0
30
0
70
128
71
87
72
88
73
-127
0
VERTEX
8
BADY
10
0
20
0
30
0
70
128
71
-87
72
127
73
126
0
VERTEX
8
BADY
10
0
20
0
30
0
70
128
71
88
72
89
73
-128
0
VERTEX
8
BADY
10
0
20
0
30
0
70
128
71
-88
72
128
73
127
0
VERTEX
8
BADY
10
0
20
0
30
0
70
128
71
89
72
90
73
-129
0
VERTEX
8
BADY
10
0
20
0
30
0
70
128
71
-89
72
129
73
128
0
VERTEX
8
BADY
10
0
20
0
30
0
70
128
71
90
72
91
73
-130
0
VERTEX
8
BADY
10
0
20
0
30
0
70
128
71
-90
72
130
73
129
0
VERTEX
8
BADY
10
0
20
0
30
0
70
128
71
91
72
92
73
-131
0
VERTEX
8
BADY
10
0
20
0
30
0
70
128
71
-91
72
131
73
130
0
VERTEX
8
BADY
10
0
20
0
30
0
70
128
71
92
72
93
73
-132
0
VERTEX
8
BADY
10
0
20
0
30
0
70
128
71
-92
72
132
73
131
0
VERTEX
8
BADY
10
0
20
0
30
0
70
128
71
93
72
94
73
-133
0
VERTEX
8
BADY
10
0
20
0
30
0
70
128
71
-93
72
133
73
132
0
VERTEX
8
BADY
10
0
20
0
30
0
70
128
71
94
72
95
73
-134
0
VERTEX
8
BADY
10
0
20
0
30
0
70
128
71
-94
72
134
73
133
0
VERTEX
8
BADY
10
0
20
0
30
0
70
128
71
95
72
96
73
-135
0
VERTEX
8
BADY
10
0
20
0
30
0
70
128
71
-95
72
135
73
134
0
VERTEX
8
BADY
10
0
20
0
30
0
70
128
71
96
72
97
73
-136
0
VERTEX
8
BADY
10
0
20
0
30
0
70
128
71
-96
72
136
73
135
0
VERTEX
8
BADY
10
0
20
0
30
0
70
128
71
97
72
98
73
-137
0
VERTEX
8
BADY
10
0
20
0
30
0
70
128
71
-97
72
137
73
136
0
VERTEX
8
BADY
10
0
20
0
30
0
70
128
71
98
72
99
73
-138
0
VERTEX
8
BADY
10
0
20
0
30
0
70
128
71
-98
72
138
73
137
0
VERTEX
8
BADY
10
0
20
0
30
0
70
128
71
99
72
100
73
-139
0
VERTEX
8
BADY
10
0
20
0
30
0
70
128
71
-99
72
139
73
138
0
VERTEX
8
BADY
10
0
20
0
30
0
70
128
71
100
72
101
73
-140
0
VERTEX
8
BADY
10
0
20
0
30
0
70
128
71
-100
72
140
73
139
0
VERTEX
8
BADY
10
0
20
0
30
0
70
128
71
101
72
102
73
-141
0
VERTEX
8
BADY
10
0
20
0
30
0
70
128
71
-101
72
141
73
140
0
VERTEX
8
BADY
10
0
20
0
30
0
70
128
71
102
72
103
73
-142
0
VERTEX
8
BADY
10
0
20
0
30
0
70
128
71
-102
72
142
73
141
0
VERTEX
8
BADY
10
0
20
0
30
0
70
128
71
103
72
104
73
-143
0
VERTEX
8
BADY
10
0
20
0
30
0
70
128
71
-103
72
143
73
142
0
VERTEX
8
BADY
10
0
20
0
30
0
70
128
71
104
72
105
73
-144
0
VERTEX
8
BADY
10
0
20
0
30
0
70
128
71
-104
72
144
73
143
0
VERTEX
8
BADY
10
0
20
0
30
0
70
128
71
105
72
106
73
-145
0
VERTEX
8
BADY
10
0
20
0
30
0
70
128
71
-105
72
145
73
144
0
VERTEX
8
BADY
10
0
20
0
30
0
70
128
71
106
72
107
73
-146
0
VERTEX
8
BADY
10
0
20
0
30
0
70
128
71
-106
72
146
73
145
0
VERTEX
8
BADY
10
0
20
0
30
0
70
128
71
107
72
108
73
-147
0
VERTEX
8
BADY
10
0
20
0
30
0
70
128
71
-107
72
147
73
146
0
VERTEX
8
BADY
10
0
20
0
30
0
70
128
71
108
72
109
73
-148
0
VERTEX
8
BADY
10
0
20
0
30
0
70
128
71
-108
72
148
73
147
0
VERTEX
8
BADY
10
0
20
0
30
0
70
128
71
109
72
110
73
-149
0
VERTEX
8
BADY
10
0
20
0
30
0
70
128
71
-109
72
149
73
148
0
VERTEX
8
BADY
10
0
20
0
30
0
70
128
71
110
72
111
73
-150
0
VERTEX
8
BADY
10
0
20
0
30
0
70
128
71
-110
72
150
73
149
0
VERTEX
8
BADY
10
0
20
0
30
0
70
128
71
111
72
112
73
-151
0
VERTEX
8
BADY
10
0
20
0
30
0
70
128
71
-111
72
151
73
150
0
VERTEX
8
BADY
10
0
20
0
30
0
70
128
71
112
72
113
73
-152
0
VERTEX
8
BADY
10
0
20
0
30
0
70
128
71
-112
72
152
73
151
0
VERTEX
8
BADY
10
0
20
0
30
0
70
128
71
113
72
114
73
-153
0
VERTEX
8
BADY
10
0
20
0
30
0
70
128
71
-113
72
153
73
152
0
VERTEX
8
BADY
10
0
20
0
30
0
70
128
71
114
72
115
73
-154
0
VERTEX
8
BADY
10
0
20
0
30
0
70
128
71
-114
72
154
73
153
0
VERTEX
8
BADY
10
0
20
0
30
0
70
128
71
115
72
116
73
-155
0
VERTEX
8
BADY
10
0
20
0
30
0
70
128
71
-115
72
155
73
154
0
VERTEX
8
BADY
10
0
20
0
30
0
70
128
71
116
72
117
73
-156
0
VERTEX
8
BADY
10
0
20
0
30
0
70
128
71
-116
72
156
73
155
0
VERTEX
8
BADY
10
0
20
0
30
0
70
128
71
117
72
79
73
-118
0
VERTEX
8
BADY
10
0
20
0
30
0
70
128
71
-117
72
118
73
156
0
VERTEX
8
BADY
10
0
20
0
30
0
70
128
71
118
72
119
73
-158
0
VERTEX
8
BADY
10
0
20
0
30
0
70
128
71
-118
72
158
73
157
0
VERTEX
8
BADY
10
0
20
0
30
0
70
128
71
119
72
120
73
-159
0
VERTEX
8
BADY
10
0
20
0
30
0
70
128
71
-119
72
159
73
158
0
VERTEX
8
BADY
10
0
20
0
30
0
70
128
71
120
72
121
73
-160
0
VERTEX
8
BADY
10
0
20
0
30
0
70
128
71
-120
72
160
73
159
0
VERTEX
8
BADY
10
0
20
0
30
0
70
128
71
121
72
122
73
-161
0
VERTEX
8
BADY
10
0
20
0
30
0
70
128
71
-121
72
161
73
160
0
VERTEX
8
BADY
10
0
20
0
30
0
70
128
71
122
72
123
73
-162
0
VERTEX
8
BADY
10
0
20
0
30
0
70
128
71
-122
72
162
73
161
0
VERTEX
8
BADY
10
0
20
0
30
0
70
128
71
123
72
124
73
-163
0
VERTEX
8
BADY
10
0
20
0
30
0
70
128
71
-123
72
163
73
162
0
VERTEX
8
BADY
10
0
20
0
30
0
70
128
71
124
72
125
73
-164
0
VERTEX
8
BADY
10
0
20
0
30
0
70
128
71
-124
72
164
73
163
0
VERTEX
8
BADY
10
0
20
0
30
0
70
128
71
125
72
126
73
-165
0
VERTEX
8
BADY
10
0
20
0
30
0
70
128
71
-125
72
165
73
164
0
VERTEX
8
BADY
10
0
20
0
30
0
70
128
71
126
72
127
73
-166
0
VERTEX
8
BADY
10
0
20
0
30
0
70
128
71
-126
72
166
73
165
0
VERTEX
8
BADY
10
0
20
0
30
0
70
128
71
127
72
128
73
-167
0
VERTEX
8
BADY
10
0
20
0
30
0
70
128
71
-127
72
167
73
166
0
VERTEX
8
BADY
10
0
20
0
30
0
70
128
71
128
72
129
73
-168
0
VERTEX
8
BADY
10
0
20
0
30
0
70
128
71
-128
72
168
73
167
0
VERTEX
8
BADY
10
0
20
0
30
0
70
128
71
129
72
130
73
-169
0
VERTEX
8
BADY
10
0
20
0
30
0
70
128
71
-129
72
169
73
168
0
VERTEX
8
BADY
10
0
20
0
30
0
70
128
71
130
72
131
73
-170
0
VERTEX
8
BADY
10
0
20
0
30
0
70
128
71
-130
72
170
73
169
0
VERTEX
8
BADY
10
0
20
0
30
0
70
128
71
131
72
132
73
-171
0
VERTEX
8
BADY
10
0
20
0
30
0
70
128
71
-131
72
171
73
170
0
VERTEX
8
BADY
10
0
20
0
30
0
70
128
71
132
72
133
73
-172
0
VERTEX
8
BADY
10
0
20
0
30
0
70
128
71
-132
72
172
73
171
0
VERTEX
8
BADY
10
0
20
0
30
0
70
128
71
133
72
134
73
-173
0
VERTEX
8
BADY
10
0
20
0
30
0
70
128
71
-133
72
173
73
172
0
VERTEX
8
BADY
10
0
20
0
30
0
70
128
71
134
72
135
73
-174
0
VERTEX
8
BADY
10
0
20
0
30
0
70
128
71
-134
72
174
73
173
0
VERTEX
8
BADY
10
0
20
0
30
0
70
128
71
135
72
136
73
-175
0
VERTEX
8
BADY
10
0
20
0
30
0
70
128
71
-135
72
175
73
174
0
VERTEX
8
BADY
10
0
20
0
30
0
70
128
71
136
72
137
73
-176
0
VERTEX
8
BADY
10
0
20
0
30
0
70
128
71
-136
72
176
73
175
0
VERTEX
8
BADY
10
0
20
0
30
0
70
128
71
137
72
138
73
-177
0
VERTEX
8
BADY
10
0
20
0
30
0
70
128
71
-137
72
177
73
176
0
VERTEX
8
BADY
10
0
20
0
30
0
70
128
71
138
72
139
73
-178
0
VERTEX
8
BADY
10
0
20
0
30
0
70
128
71
-138
72
178
73
177
0
VERTEX
8
BADY
10
0
20
0
30
0
70
128
71
139
72
140
73
-179
0
VERTEX
8
BADY
10
0
20
0
30
0
70
128
71
-139
72
179
73
178
0
VERTEX
8
BADY
10
0
20
0
30
0
70
128
71
140
72
141
73
-180
0
VERTEX
8
BADY
10
0
20
0
30
0
70
128
71
-140
72
180
73
179
0
VERTEX
8
BADY
10
0
20
0
30
0
70
128
71
141
72
142
73
-181
0
VERTEX
8
BADY
10
0
20
0
30
0
70
128
71
-141
72
181
73
180
0
VERTEX
8
BADY
10
0
20
0
30
0
70
128
71
142
72
143
73
-182
0
VERTEX
8
BADY
10
0
20
0
30
0
70
128
71
-142
72
182
73
181
0
VERTEX
8
BADY
10
0
20
0
30
0
70
128
71
143
72
144
73
-183
0
VERTEX
8
BADY
10
0
20
0
30
0
70
128
71
-143
72
183
73
182
0
VERTEX
8
BADY
10
0
20
0
30
0
70
128
71
144
72
145
73
-184
0
VERTEX
8
BADY
10
0
20
0
30
0
70
128
71
-144
72
184
73
183
0
VERTEX
8
BADY
10
0
20
0
30
0
70
128
71
145
72
146
73
-185
0
VERTEX
8
BADY
10
0
20
0
30
0
70
128
71
-145
72
185
73
184
0
VERTEX
8
BADY
10
0
20
0
30
0
70
128
71
146
72
147
73
-186
0
VERTEX
8
BADY
10
0
20
0
30
0
70
128
71
-146
72
186
73
185
0
VERTEX
8
BADY
10
0
20
0
30
0
70
128
71
147
72
148
73
-187
0
VERTEX
8
BADY
10
0
20
0
30
0
70
128
71
-147
72
187
73
186
0
VERTEX
8
BADY
10
0
20
0
30
0
70
128
71
148
72
149
73
-188
0
VERTEX
8
BADY
10
0
20
0
30
0
70
128
71
-148
72
188
73
187
0
VERTEX
8
BADY
10
0
20
0
30
0
70
128
71
149
72
150
73
-189
0
VERTEX
8
BADY
10
0
20
0
30
0
70
128
71
-149
72
189
73
188
0
VERTEX
8
BADY
10
0
20
0
30
0
70
128
71
150
72
151
73
-190
0
VERTEX
8
BADY
10
0
20
0
30
0
70
128
71
-150
72
190
73
189
0
VERTEX
8
BADY
10
0
20
0
30
0
70
128
71
151
72
152
73
-191
0
VERTEX
8
BADY
10
0
20
0
30
0
70
128
71
-151
72
191
73
190
0
VERTEX
8
BADY
10
0
20
0
30
0
70
128
71
152
72
153
73
-192
0
VERTEX
8
BADY
10
0
20
0
30
0
70
128
71
-152
72
192
73
191
0
VERTEX
8
BADY
10
0
20
0
30
0
70
128
71
153
72
154
73
-193
0
VERTEX
8
BADY
10
0
20
0
30
0
70
128
71
-153
72
193
73
192
0
VERTEX
8
BADY
10
0
20
0
30
0
70
128
71
154
72
155
73
-194
0
VERTEX
8
BADY
10
0
20
0
30
0
70
128
71
-154
72
194
73
193
0
VERTEX
8
BADY
10
0
20
0
30
0
70
128
71
155
72
156
73
-195
0
VERTEX
8
BADY
10
0
20
0
30
0
70
128
71
-155
72
195
73
194
0
VERTEX
8
BADY
10
0
20
0
30
0
70
128
71
156
72
118
73
-157
0
VERTEX
8
BADY
10
0
20
0
30
0
70
128
71
-156
72
157
73
195
0
VERTEX
8
BADY
10
0
20
0
30
0
70
128
71
157
72
158
73
-197
0
VERTEX
8
BADY
10
0
20
0
30
0
70
128
71
-157
72
197
73
196
0
VERTEX
8
BADY
10
0
20
0
30
0
70
128
71
158
72
159
73
-198
0
VERTEX
8
BADY
10
0
20
0
30
0
70
128
71
-158
72
198
73
197
0
VERTEX
8
BADY
10
0
20
0
30
0
70
128
71
159
72
160
73
-199
0
VERTEX
8
BADY
10
0
20
0
30
0
70
128
71
-159
72
199
73
198
0
VERTEX
8
BADY
10
0
20
0
30
0
70
128
71
160
72
161
73
-200
0
VERTEX
8
BADY
10
0
20
0
30
0
70
128
71
-160
72
200
73
199
0
VERTEX
8
BADY
10
0
20
0
30
0
70
128
71
161
72
162
73
-201
0
VERTEX
8
BADY
10
0
20
0
30
0
70
128
71
-161
72
201
73
200
0
VERTEX
8
BADY
10
0
20
0
30
0
70
128
71
162
72
163
73
-202
0
VERTEX
8
BADY
10
0
20
0
30
0
70
128
71
-162
72
202
73
201
0
VERTEX
8
BADY
10
0
20
0
30
0
70
128
71
163
72
164
73
-203
0
VERTEX
8
BADY
10
0
20
0
30
0
70
128
71
-163
72
203
73
202
0
VERTEX
8
BADY
10
0
20
0
30
0
70
128
71
164
72
165
73
-204
0
VERTEX
8
BADY
10
0
20
0
30
0
70
128
71
-164
72
204
73
203
0
VERTEX
8
BADY
10
0
20
0
30
0
70
128
71
165
72
166
73
-205
0
VERTEX
8
BADY
10
0
20
0
30
0
70
128
71
-165
72
205
73
204
0
VERTEX
8
BADY
10
0
20
0
30
0
70
128
71
166
72
167
73
-206
0
VERTEX
8
BADY
10
0
20
0
30
0
70
128
71
-166
72
206
73
205
0
VERTEX
8
BADY
10
0
20
0
30
0
70
128
71
167
72
168
73
-207
0
VERTEX
8
BADY
10
0
20
0
30
0
70
128
71
-167
72
207
73
206
0
VERTEX
8
BADY
10
0
20
0
30
0
70
128
71
168
72
169
73
-208
0
VERTEX
8
BADY
10
0
20
0
30
0
70
128
71
-168
72
208
73
207
0
VERTEX
8
BADY
10
0
20
0
30
0
70
128
71
169
72
170
73
-209
0
VERTEX
8
BADY
10
0
20
0
30
0
70
128
71
-169
72
209
73
208
0
VERTEX
8
BADY
10
0
20
0
30
0
70
128
71
170
72
171
73
-210
0
VERTEX
8
BADY
10
0
20
0
30
0
70
128
71
-170
72
210
73
209
0
VERTEX
8
BADY
10
0
20
0
30
0
70
128
71
171
72
172
73
-211
0
VERTEX
8
BADY
10
0
20
0
30
0
70
128
71
-171
72
211
73
210
0
VERTEX
8
BADY
10
0
20
0
30
0
70
128
71
172
72
173
73
-212
0
VERTEX
8
BADY
10
0
20
0
30
0
70
128
71
-172
72
212
73
211
0
VERTEX
8
BADY
10
0
20
0
30
0
70
128
71
173
72
174
73
-213
0
VERTEX
8
BADY
10
0
20
0
30
0
70
128
71
-173
72
213
73
212
0
VERTEX
8
BADY
10
0
20
0
30
0
70
128
71
174
72
175
73
-214
0
VERTEX
8
BADY
10
0
20
0
30
0
70
128
71
-174
72
214
73
213
0
VERTEX
8
BADY
10
0
20
0
30
0
70
128
71
175
72
176
73
-215
0
VERTEX
8
BADY
10
0
20
0
30
0
70
128
71
-175
72
215
73
214
0
VERTEX
8
BADY
10
0
20
0
30
0
70
128
71
176
72
177
73
-216
0
VERTEX
8
BADY
10
0
20
0
30
0
70
128
71
-176
72
216
73
215
0
VERTEX
8
BADY
10
0
20
0
30
0
70
128
71
177
72
178
73
-217
0
VERTEX
8
BADY
10
0
20
0
30
0
70
128
71
-177
72
217
73
216
0
VERTEX
8
BADY
10
0
20
0
30
0
70
128
71
178
72
179
73
-218
0
VERTEX
8
BADY
10
0
20
0
30
0
70
128
71
-178
72
218
73
217
0
VERTEX
8
BADY
10
0
20
0
30
0
70
128
71
179
72
180
73
-219
0
VERTEX
8
BADY
10
0
20
0
30
0
70
128
71
-179
72
219
73
218
0
VERTEX
8
BADY
10
0
20
0
30
0
70
128
71
180
72
181
73
-220
0
VERTEX
8
BADY
10
0
20
0
30
0
70
128
71
-180
72
220
73
219
0
VERTEX
8
BADY
10
0
20
0
30
0
70
128
71
181
72
182
73
-221
0
VERTEX
8
BADY
10
0
20
0
30
0
70
128
71
-181
72
221
73
220
0
VERTEX
8
BADY
10
0
20
0
30
0
70
128
71
182
72
183
73
-222
0
VERTEX
8
BADY
10
0
20
0
30
0
70
128
71
-182
72
222
73
221
0
VERTEX
8
BADY
10
0
20
0
30
0
70
128
71
183
72
184
73
-223
0
VERTEX
8
BADY
10
0
20
0
30
0
70
128
71
-183
72
223
73
222
0
VERTEX
8
BADY
10
0
20
0
30
0
70
128
71
184
72
185
73
-224
0
VERTEX
8
BADY
10
0
20
0
30
0
70
128
71
-184
72
224
73
223
0
VERTEX
8
BADY
10
0
20
0
30
0
70
128
71
185
72
186
73
-225
0
VERTEX
8
BADY
10
0
20
0
30
0
70
128
71
-185
72
225
73
224
0
VERTEX
8
BADY
10
0
20
0
30
0
70
128
71
186
72
187
73
-226
0
VERTEX
8
BADY
10
0
20
0
30
0
70
128
71
-186
72
226
73
225
0
VERTEX
8
BADY
10
0
20
0
30
0
70
128
71
187
72
188
73
-227
0
VERTEX
8
BADY
10
0
20
0
30
0
70
128
71
-187
72
227
73
226
0
VERTEX
8
BADY
10
0
20
0
30
0
70
128
71
188
72
189
73
-228
0
VERTEX
8
BADY
10
0
20
0
30
0
70
128
71
-188
72
228
73
227
0
VERTEX
8
BADY
10
0
20
0
30
0
70
128
71
189
72
190
73
-229
0
VERTEX
8
BADY
10
0
20
0
30
0
70
128
71
-189
72
229
73
228
0
VERTEX
8
BADY
10
0
20
0
30
0
70
128
71
190
72
191
73
-230
0
VERTEX
8
BADY
10
0
20
0
30
0
70
128
71
-190
72
230
73
229
0
VERTEX
8
BADY
10
0
20
0
30
0
70
128
71
191
72
192
73
-231
0
VERTEX
8
BADY
10
0
20
0
30
0
70
128
71
-191
72
231
73
230
0
VERTEX
8
BADY
10
0
20
0
30
0
70
128
71
192
72
193
73
-232
0
VERTEX
8
BADY
10
0
20
0
30
0
70
128
71
-192
72
232
73
231
0
VERTEX
8
BADY
10
0
20
0
30
0
70
128
71
193
72
194
73
-233
0
VERTEX
8
BADY
10
0
20
0
30
0
70
128
71
-193
72
233
73
232
0
VERTEX
8
BADY
10
0
20
0
30
0
70
128
71
194
72
195
73
-234
0
VERTEX
8
BADY
10
0
20
0
30
0
70
128
71
-194
72
234
73
233
0
VERTEX
8
BADY
10
0
20
0
30
0
70
128
71
195
72
157
73
-196
0
VERTEX
8
BADY
10
0
20
0
30
0
70
128
71
-195
72
196
73
234
0
VERTEX
8
BADY
10
0
20
0
30
0
70
128
71
196
72
197
73
-236
0
VERTEX
8
BADY
10
0
20
0
30
0
70
128
71
-196
72
236
73
235
0
VERTEX
8
BADY
10
0
20
0
30
0
70
128
71
197
72
198
73
-237
0
VERTEX
8
BADY
10
0
20
0
30
0
70
128
71
-197
72
237
73
236
0
VERTEX
8
BADY
10
0
20
0
30
0
70
128
71
198
72
199
73
-238
0
VERTEX
8
BADY
10
0
20
0
30
0
70
128
71
-198
72
238
73
237
0
VERTEX
8
BADY
10
0
20
0
30
0
70
128
71
199
72
200
73
-239
0
VERTEX
8
BADY
10
0
20
0
30
0
70
128
71
-199
72
239
73
238
0
VERTEX
8
BADY
10
0
20
0
30
0
70
128
71
200
72
201
73
-240
0
VERTEX
8
BADY
10
0
20
0
30
0
70
128
71
-200
72
240
73
239
0
VERTEX
8
BADY
10
0
20
0
30
0
70
128
71
201
72
202
73
-241
0
VERTEX
8
BADY
10
0
20
0
30
0
70
128
71
-201
72
241
73
240
0
VERTEX
8
BADY
10
0
20
0
30
0
70
128
71
202
72
203
73
-242
0
VERTEX
8
BADY
10
0
20
0
30
0
70
128
71
-202
72
242
73
241
0
VERTEX
8
BADY
10
0
20
0
30
0
70
128
71
203
72
204
73
-243
0
VERTEX
8
BADY
10
0
20
0
30
0
70
128
71
-203
72
243
73
242
0
VERTEX
8
BADY
10
0
20
0
30
0
70
128
71
204
72
205
73
-244
0
VERTEX
8
BADY
10
0
20
0
30
0
70
128
71
-204
72
244
73
243
0
VERTEX
8
BADY
10
0
20
0
30
0
70
128
71
205
72
206
73
-245
0
VERTEX
8
BADY
10
0
20
0
30
0
70
128
71
-205
72
245
73
244
0
VERTEX
8
BADY
10
0
20
0
30
0
70
128
71
206
72
207
73
-246
0
VERTEX
8
BADY
10
0
20
0
30
0
70
128
71
-206
72
246
73
245
0
VERTEX
8
BADY
10
0
20
0
30
0
70
128
71
207
72
208
73
-247
0
VERTEX
8
BADY
10
0
20
0
30
0
70
128
71
-207
72
247
73
246
0
VERTEX
8
BADY
10
0
20
0
30
0
70
128
71
208
72
209
73
-248
0
VERTEX
8
BADY
10
0
20
0
30
0
70
128
71
-208
72
248
73
247
0
VERTEX
8
BADY
10
0
20
0
30
0
70
128
71
209
72
210
73
-249
0
VERTEX
8
BADY
10
0
20
0
30
0
70
128
71
-209
72
249
73
248
0
VERTEX
8
BADY
10
0
20
0
30
0
70
128
71
210
72
211
73
-250
0
VERTEX
8
BADY
10
0
20
0
30
0
70
128
71
-210
72
250
73
249
0
VERTEX
8
BADY
10
0
20
0
30
0
70
128
71
211
72
212
73
-251
0
VERTEX
8
BADY
10
0
20
0
30
0
70
128
71
-211
72
251
73
250
0
VERTEX
8
BADY
10
0
20
0
30
0
70
128
71
212
72
213
73
-252
0
VERTEX
8
BADY
10
0
20
0
30
0
70
128
71
-212
72
252
73
251
0
VERTEX
8
BADY
10
0
20
0
30
0
70
128
71
213
72
214
73
-253
0
VERTEX
8
BADY
10
0
20
0
30
0
70
128
71
-213
72
253
73
252
0
VERTEX
8
BADY
10
0
20
0
30
0
70
128
71
214
72
215
73
-254
0
VERTEX
8
BADY
10
0
20
0
30
0
70
128
71
-214
72
254
73
253
0
VERTEX
8
BADY
10
0
20
0
30
0
70
128
71
215
72
216
73
-255
0
VERTEX
8
BADY
10
0
20
0
30
0
70
128
71
-215
72
255
73
254
0
VERTEX
8
BADY
10
0
20
0
30
0
70
128
71
216
72
217
73
-256
0
VERTEX
8
BADY
10
0
20
0
30
0
70
128
71
-216
72
256
73
255
0
VERTEX
8
BADY
10
0
20
0
30
0
70
128
71
217
72
218
73
-257
0
VERTEX
8
BADY
10
0
20
0
30
0
70
128
71
-217
72
257
73
256
0
VERTEX
8
BADY
10
0
20
0
30
0
70
128
71
218
72
219
73
-258
0
VERTEX
8
BADY
10
0
20
0
30
0
70
128
71
-218
72
258
73
257
0
VERTEX
8
BADY
10
0
20
0
30
0
70
128
71
219
72
220
73
-259
0
VERTEX
8
BADY
10
0
20
0
30
0
70
128
71
-219
72
259
73
258
0
VERTEX
8
BADY
10
0
20
0
30
0
70
128
71
220
72
221
73
-260
0
VERTEX
8
BADY
10
0
20
0
30
0
70
128
71
-220
72
260
73
259
0
VERTEX
8
BADY
10
0
20
0
30
0
70
128
71
221
72
222
73
-261
0
VERTEX
8
BADY
10
0
20
0
30
0
70
128
71
-221
72
261
73
260
0
VERTEX
8
BADY
10
0
20
0
30
0
70
128
71
222
72
223
73
-262
0
VERTEX
8
BADY
10
0
20
0
30
0
70
128
71
-222
72
262
73
261
0
VERTEX
8
BADY
10
0
20
0
30
0
70
128
71
223
72
224
73
-263
0
VERTEX
8
BADY
10
0
20
0
30
0
70
128
71
-223
72
263
73
262
0
VERTEX
8
BADY
10
0
20
0
30
0
70
128
71
224
72
225
73
-264
0
VERTEX
8
BADY
10
0
20
0
30
0
70
128
71
-224
72
264
73
263
0
VERTEX
8
BADY
10
0
20
0
30
0
70
128
71
225
72
226
73
-265
0
VERTEX
8
BADY
10
0
20
0
30
0
70
128
71
-225
72
265
73
264
0
VERTEX
8
BADY
10
0
20
0
30
0
70
128
71
226
72
227
73
-266
0
VERTEX
8
BADY
10
0
20
0
30
0
70
128
71
-226
72
266
73
265
0
VERTEX
8
BADY
10
0
20
0
30
0
70
128
71
227
72
228
73
-267
0
VERTEX
8
BADY
10
0
20
0
30
0
70
128
71
-227
72
267
73
266
0
VERTEX
8
BADY
10
0
20
0
30
0
70
128
71
228
72
229
73
-268
0
VERTEX
8
BADY
10
0
20
0
30
0
70
128
71
-228
72
268
73
267
0
VERTEX
8
BADY
10
0
20
0
30
0
70
128
71
229
72
230
73
-269
0
VERTEX
8
BADY
10
0
20
0
30
0
70
128
71
-229
72
269
73
268
0
VERTEX
8
BADY
10
0
20
0
30
0
70
128
71
230
72
231
73
-270
0
VERTEX
8
BADY
10
0
20
0
30
0
70
128
71
-230
72
270
73
269
0
VERTEX
8
BADY
10
0
20
0
30
0
70
128
71
231
72
232
73
-271
0
VERTEX
8
BADY
10
0
20
0
30
0
70
128
71
-231
72
271
73
270
0
VERTEX
8
BADY
10
0
20
0
30
0
70
128
71
232
72
233
73
-272
0
VERTEX
8
BADY
10
0
20
0
30
0
70
128
71
-232
72
272
73
271
0
VERTEX
8
BADY
10
0
20
0
30
0
70
128
71
233
72
234
73
-273
0
VERTEX
8
BADY
10
0
20
0
30
0
70
128
71
-233
72
273
73
272
0
VERTEX
8
BADY
10
0
20
0
30
0
70
128
71
234
72
196
73
-235
0
VERTEX
8
BADY
10
0
20
0
30
0
70
128
71
-234
72
235
73
273
0
VERTEX
8
BADY
10
0
20
0
30
0
70
128
71
250
72
251
73
-252
0
VERTEX
8
BADY
10
0
20
0
30
0
70
128
71
-250
72
252
73
-253
0
VERTEX
8
BADY
10
0
20
0
30
0
70
128
71
-250
72
253
73
-254
0
VERTEX
8
BADY
10
0
20
0
30
0
70
128
71
249
72
-250
73
-254
0
VERTEX
8
BADY
10
0
20
0
30
0
70
128
71
248
72
-249
73
-254
0
VERTEX
8
BADY
10
0
20
0
30
0
70
128
71
-248
72
254
73
-255
0
VERTEX
8
BADY
10
0
20
0
30
0
70
128
71
247
72
-248
73
-255
0
VERTEX
8
BADY
10
0
20
0
30
0
70
128
71
-247
72
255
73
-256
0
VERTEX
8
BADY
10
0
20
0
30
0
70
128
71
-247
72
256
73
-257
0
VERTEX
8
BADY
10
0
20
0
30
0
70
128
71
-247
72
257
73
-258
0
VERTEX
8
BADY
10
0
20
0
30
0
70
128
71
-247
72
258
73
-259
0
VERTEX
8
BADY
10
0
20
0
30
0
70
128
71
-247
72
259
73
-260
0
VERTEX
8
BADY
10
0
20
0
30
0
70
128
71
-247
72
260
73
-261
0
VERTEX
8
BADY
10
0
20
0
30
0
70
128
71
-247
72
261
73
-262
0
VERTEX
8
BADY
10
0
20
0
30
0
70
128
71
246
72
-247
73
-262
0
VERTEX
8
BADY
10
0
20
0
30
0
70
128
71
-246
72
262
73
-263
0
VERTEX
8
BADY
10
0
20
0
30
0
70
128
71
-246
72
263
73
-264
0
VERTEX
8
BADY
10
0
20
0
30
0
70
128
71
245
72
-246
73
-264
0
VERTEX
8
BADY
10
0
20
0
30
0
70
128
71
-245
72
264
73
-265
0
VERTEX
8
BADY
10
0
20
0
30
0
70
128
71
244
72
-245
73
-265
0
VERTEX
8
BADY
10
0
20
0
30
0
70
128
71
-244
72
265
73
-266
0
VERTEX
8
BADY
10
0
20
0
30
0
70
128
71
243
72
-244
73
-266
0
VERTEX
8
BADY
10
0
20
0
30
0
70
128
71
-243
72
266
73
-267
0
VERTEX
8
BADY
10
0
20
0
30
0
70
128
71
242
72
-243
73
-267
0
VERTEX
8
BADY
10
0
20
0
30
0
70
128
71
-242
72
267
73
-268
0
VERTEX
8
BADY
10
0
20
0
30
0
70
128
71
241
72
-242
73
-268
0
VERTEX
8
BADY
10
0
20
0
30
0
70
128
71
-241
72
268
73
-269
0
VERTEX
8
BADY
10
0
20
0
30
0
70
128
71
240
72
-241
73
-269
0
VERTEX
8
BADY
10
0
20
0
30
0
70
128
71
-240
72
269
73
-270
0
VERTEX
8
BADY
10
0
20
0
30
0
70
128
71
239
72
-240
73
-270
0
VERTEX
8
BADY
10
0
20
0
30
0
70
128
71
-239
72
270
73
-271
0
VERTEX
8
BADY
10
0
20
0
30
0
70
128
71
238
72
-239
73
-271
0
VERTEX
8
BADY
10
0
20
0
30
0
70
128
71
-238
72
271
73
-272
0
VERTEX
8
BADY
10
0
20
0
30
0
70
128
71
237
72
-238
73
-272
0
VERTEX
8
BADY
10
0
20
0
30
0
70
128
71
-237
72
272
73
-273
0
VERTEX
8
BADY
10
0
20
0
30
0
70
128
71
236
72
-237
73
-273
0
VERTEX
8
BADY
10
0
20
0
30
0
70
128
71
-236
72
273
73
235
0
VERTEX
8
BADY
10
0
20
0
30
0
70
128
71
291
72
290
73
-289
0
VERTEX
8
BADY
10
0
20
0
30
0
70
128
71
292
72
-291
73
-289
0
VERTEX
8
BADY
10
0
20
0
30
0
70
128
71
293
72
-292
73
-289
0
VERTEX
8
BADY
10
0
20
0
30
0
70
128
71
-293
72
289
73
-288
0
VERTEX
8
BADY
10
0
20
0
30
0
70
128
71
-293
72
288
73
-287
0
VERTEX
8
BADY
10
0
20
0
30
0
70
128
71
294
72
-293
73
-287
0
VERTEX
8
BADY
10
0
20
0
30
0
70
128
71
-294
72
287
73
-286
0
VERTEX
8
BADY
10
0
20
0
30
0
70
128
71
295
72
-294
73
-286
0
VERTEX
8
BADY
10
0
20
0
30
0
70
128
71
296
72
-295
73
-286
0
VERTEX
8
BADY
10
0
20
0
30
0
70
128
71
297
72
-296
73
-286
0
VERTEX
8
BADY
10
0
20
0
30
0
70
128
71
298
72
-297
73
-286
0
VERTEX
8
BADY
10
0
20
0
30
0
70
128
71
299
72
-298
73
-286
0
VERTEX
8
BADY
10
0
20
0
30
0
70
128
71
300
72
-299
73
-286
0
VERTEX
8
BADY
10
0
20
0
30
0
70
128
71
301
72
-300
73
-286
0
VERTEX
8
BADY
10
0
20
0
30
0
70
128
71
-301
72
286
73
-285
0
VERTEX
8
BADY
10
0
20
0
30
0
70
128
71
302
72
-301
73
-285
0
VERTEX
8
BADY
10
0
20
0
30
0
70
128
71
303
72
-302
73
-285
0
VERTEX
8
BADY
10
0
20
0
30
0
70
128
71
-303
72
285
73
-284
0
VERTEX
8
BADY
10
0
20
0
30
0
70
128
71
304
72
-303
73
-284
0
VERTEX
8
BADY
10
0
20
0
30
0
70
128
71
-304
72
284
73
-283
0
VERTEX
8
BADY
10
0
20
0
30
0
70
128
71
305
72
-304
73
-283
0
VERTEX
8
BADY
10
0
20
0
30
0
70
128
71
-305
72
283
73
-282
0
VERTEX
8
BADY
10
0
20
0
30
0
70
128
71
306
72
-305
73
-282
0
VERTEX
8
BADY
10
0
20
0
30
0
70
128
71
-306
72
282
73
-281
0
VERTEX
8
BADY
10
0
20
0
30
0
70
128
71
307
72
-306
73
-281
0
VERTEX
8
BADY
10
0
20
0
30
0
70
128
71
-307
72
281
73
-280
0
VERTEX
8
BADY
10
0
20
0
30
0
70
128
71
308
72
-307
73
-280
0
VERTEX
8
BADY
10
0
20
0
30
0
70
128
71
-308
72
280
73
-279
0
VERTEX
8
BADY
10
0
20
0
30
0
70
128
71
309
72
-308
73
-279
0
VERTEX
8
BADY
10
0
20
0
30
0
70
128
71
-309
72
279
73
-278
0
VERTEX
8
BADY
10
0
20
0
30
0
70
128
71
310
72
-309
73
-278
0
VERTEX
8
BADY
10
0
20
0
30
0
70
128
71
-310
72
278
73
-277
0
VERTEX
8
BADY
10
0
20
0
30
0
70
128
71
311
72
-310
73
-277
0
VERTEX
8
BADY
10
0
20
0
30
0
70
128
71
-311
72
277
73
-276
0
VERTEX
8
BADY
10
0
20
0
30
0
70
128
71
312
72
-311
73
-276
0
VERTEX
8
BADY
10
0
20
0
30
0
70
128
71
-312
72
276
73
-275
0
VERTEX
8
BADY
10
0
20
0
30
0
70
128
71
274
72
-312
73
275
0
VERTEX
8
BADY
10
0
20
0
30
0
70
128
71
274
72
275
73
-314
0
VERTEX
8
BADY
10
0
20
0
30
0
70
128
71
-274
72
314
73
313
0
VERTEX
8
BADY
10
0
20
0
30
0
70
128
71
275
72
276
73
-315
0
VERTEX
8
BADY
10
0
20
0
30
0
70
128
71
-275
72
315
73
314
0
VERTEX
8
BADY
10
0
20
0
30
0
70
128
71
276
72
277
73
-316
0
VERTEX
8
BADY
10
0
20
0
30
0
70
128
71
-276
72
316
73
315
0
VERTEX
8
BADY
10
0
20
0
30
0
70
128
71
277
72
278
73
-317
0
VERTEX
8
BADY
10
0
20
0
30
0
70
128
71
-277
72
317
73
316
0
VERTEX
8
BADY
10
0
20
0
30
0
70
128
71
278
72
279
73
-318
0
VERTEX
8
BADY
10
0
20
0
30
0
70
128
71
-278
72
318
73
317
0
VERTEX
8
BADY
10
0
20
0
30
0
70
128
71
279
72
280
73
-319
0
VERTEX
8
BADY
10
0
20
0
30
0
70
128
71
-279
72
319
73
318
0
VERTEX
8
BADY
10
0
20
0
30
0
70
128
71
280
72
281
73
-320
0
VERTEX
8
BADY
10
0
20
0
30
0
70
128
71
-280
72
320
73
319
0
VERTEX
8
BADY
10
0
20
0
30
0
70
128
71
281
72
282
73
-321
0
VERTEX
8
BADY
10
0
20
0
30
0
70
128
71
-281
72
321
73
320
0
VERTEX
8
BADY
10
0
20
0
30
0
70
128
71
282
72
283
73
-322
0
VERTEX
8
BADY
10
0
20
0
30
0
70
128
71
-282
72
322
73
321
0
VERTEX
8
BADY
10
0
20
0
30
0
70
128
71
283
72
284
73
-323
0
VERTEX
8
BADY
10
0
20
0
30
0
70
128
71
-283
72
323
73
322
0
VERTEX
8
BADY
10
0
20
0
30
0
70
128
71
284
72
285
73
-324
0
VERTEX
8
BADY
10
0
20
0
30
0
70
128
71
-284
72
324
73
323
0
VERTEX
8
BADY
10
0
20
0
30
0
70
128
71
285
72
286
73
-325
0
VERTEX
8
BADY
10
0
20
0
30
0
70
128
71
-285
72
325
73
324
0
VERTEX
8
BADY
10
0
20
0
30
0
70
128
71
286
72
287
73
-326
0
VERTEX
8
BADY
10
0
20
0
30
0
70
128
71
-286
72
326
73
325
0
VERTEX
8
BADY
10
0
20
0
30
0
70
128
71
287
72
288
73
-327
0
VERTEX
8
BADY
10
0
20
0
30
0
70
128
71
-287
72
327
73
326
0
VERTEX
8
BADY
10
0
20
0
30
0
70
128
71
288
72
289
73
-328
0
VERTEX
8
BADY
10
0
20
0
30
0
70
128
71
-288
72
328
73
327
0
VERTEX
8
BADY
10
0
20
0
30
0
70
128
71
289
72
290
73
-329
0
VERTEX
8
BADY
10
0
20
0
30
0
70
128
71
-289
72
329
73
328
0
VERTEX
8
BADY
10
0
20
0
30
0
70
128
71
290
72
291
73
-330
0
VERTEX
8
BADY
10
0
20
0
30
0
70
128
71
-290
72
330
73
329
0
VERTEX
8
BADY
10
0
20
0
30
0
70
128
71
291
72
292
73
-331
0
VERTEX
8
BADY
10
0
20
0
30
0
70
128
71
-291
72
331
73
330
0
VERTEX
8
BADY
10
0
20
0
30
0
70
128
71
292
72
293
73
-332
0
VERTEX
8
BADY
10
0
20
0
30
0
70
128
71
-292
72
332
73
331
0
VERTEX
8
BADY
10
0
20
0
30
0
70
128
71
293
72
294
73
-333
0
VERTEX
8
BADY
10
0
20
0
30
0
70
128
71
-293
72
333
73
332
0
VERTEX
8
BADY
10
0
20
0
30
0
70
128
71
294
72
295
73
-334
0
VERTEX
8
BADY
10
0
20
0
30
0
70
128
71
-294
72
334
73
333
0
VERTEX
8
BADY
10
0
20
0
30
0
70
128
71
295
72
296
73
-335
0
VERTEX
8
BADY
10
0
20
0
30
0
70
128
71
-295
72
335
73
334
0
VERTEX
8
BADY
10
0
20
0
30
0
70
128
71
296
72
297
73
-336
0
VERTEX
8
BADY
10
0
20
0
30
0
70
128
71
-296
72
336
73
335
0
VERTEX
8
BADY
10
0
20
0
30
0
70
128
71
297
72
298
73
-337
0
VERTEX
8
BADY
10
0
20
0
30
0
70
128
71
-297
72
337
73
336
0
VERTEX
8
BADY
10
0
20
0
30
0
70
128
71
298
72
299
73
-338
0
VERTEX
8
BADY
10
0
20
0
30
0
70
128
71
-298
72
338
73
337
0
VERTEX
8
BADY
10
0
20
0
30
0
70
128
71
299
72
300
73
-339
0
VERTEX
8
BADY
10
0
20
0
30
0
70
128
71
-299
72
339
73
338
0
VERTEX
8
BADY
10
0
20
0
30
0
70
128
71
300
72
301
73
-340
0
VERTEX
8
BADY
10
0
20
0
30
0
70
128
71
-300
72
340
73
339
0
VERTEX
8
BADY
10
0
20
0
30
0
70
128
71
301
72
302
73
-341
0
VERTEX
8
BADY
10
0
20
0
30
0
70
128
71
-301
72
341
73
340
0
VERTEX
8
BADY
10
0
20
0
30
0
70
128
71
302
72
303
73
-342
0
VERTEX
8
BADY
10
0
20
0
30
0
70
128
71
-302
72
342
73
341
0
VERTEX
8
BADY
10
0
20
0
30
0
70
128
71
303
72
304
73
-343
0
VERTEX
8
BADY
10
0
20
0
30
0
70
128
71
-303
72
343
73
342
0
VERTEX
8
BADY
10
0
20
0
30
0
70
128
71
304
72
305
73
-344
0
VERTEX
8
BADY
10
0
20
0
30
0
70
128
71
-304
72
344
73
343
0
VERTEX
8
BADY
10
0
20
0
30
0
70
128
71
305
72
306
73
-345
0
VERTEX
8
BADY
10
0
20
0
30
0
70
128
71
-305
72
345
73
344
0
VERTEX
8
BADY
10
0
20
0
30
0
70
128
71
306
72
307
73
-346
0
VERTEX
8
BADY
10
0
20
0
30
0
70
128
71
-306
72
346
73
345
0
VERTEX
8
BADY
10
0
20
0
30
0
70
128
71
307
72
308
73
-347
0
VERTEX
8
BADY
10
0
20
0
30
0
70
128
71
-307
72
347
73
346
0
VERTEX
8
BADY
10
0
20
0
30
0
70
128
71
308
72
309
73
-348
0
VERTEX
8
BADY
10
0
20
0
30
0
70
128
71
-308
72
348
73
347
0
VERTEX
8
BADY
10
0
20
0
30
0
70
128
71
309
72
310
73
-349
0
VERTEX
8
BADY
10
0
20
0
30
0
70
128
71
-309
72
349
73
348
0
VERTEX
8
BADY
10
0
20
0
30
0
70
128
71
310
72
311
73
-350
0
VERTEX
8
BADY
10
0
20
0
30
0
70
128
71
-310
72
350
73
349
0
VERTEX
8
BADY
10
0
20
0
30
0
70
128
71
311
72
312
73
-351
0
VERTEX
8
BADY
10
0
20
0
30
0
70
128
71
-311
72
351
73
350
0
VERTEX
8
BADY
10
0
20
0
30
0
70
128
71
312
72
274
73
-313
0
VERTEX
8
BADY
10
0
20
0
30
0
70
128
71
-312
72
313
73
351
0
VERTEX
8
BADY
10
0
20
0
30
0
70
128
71
328
72
329
73
-330
0
VERTEX
8
BADY
10
0
20
0
30
0
70
128
71
-328
72
330
73
-331
0
VERTEX
8
BADY
10
0
20
0
30
0
70
128
71
-328
72
331
73
-332
0
VERTEX
8
BADY
10
0
20
0
30
0
70
128
71
327
72
-328
73
-332
0
VERTEX
8
BADY
10
0
20
0
30
0
70
128
71
326
72
-327
73
-332
0
VERTEX
8
BADY
10
0
20
0
30
0
70
128
71
-326
72
332
73
-333
0
VERTEX
8
BADY
10
0
20
0
30
0
70
128
71
325
72
-326
73
-333
0
VERTEX
8
BADY
10
0
20
0
30
0
70
128
71
-325
72
333
73
-334
0
VERTEX
8
BADY
10
0
20
0
30
0
70
128
71
-325
72
334
73
-335
0
VERTEX
8
BADY
10
0
20
0
30
0
70
128
71
-325
72
335
73
-336
0
VERTEX
8
BADY
10
0
20
0
30
0
70
128
71
-325
72
336
73
-337
0
VERTEX
8
BADY
10
0
20
0
30
0
70
128
71
-325
72
337
73
-338
0
VERTEX
8
BADY
10
0
20
0
30
0
70
128
71
-325
72
338
73
-339
0
VERTEX
8
BADY
10
0
20
0
30
0
70
128
71
-325
72
339
73
-340
0
VERTEX
8
BADY
10
0
20
0
30
0
70
128
71
324
72
-325
73
-340
0
VERTEX
8
BADY
10
0
20
0
30
0
70
128
71
-324
72
340
73
-341
0
VERTEX
8
BADY
10
0
20
0
30
0
70
128
71
-324
72
341
73
-342
0
VERTEX
8
BADY
10
0
20
0
30
0
70
128
71
323
72
-324
73
-342
0
VERTEX
8
BADY
10
0
20
0
30
0
70
128
71
-323
72
342
73
-343
0
VERTEX
8
BADY
10
0
20
0
30
0
70
128
71
322
72
-323
73
-343
0
VERTEX
8
BADY
10
0
20
0
30
0
70
128
71
-322
72
343
73
-344
0
VERTEX
8
BADY
10
0
20
0
30
0
70
128
71
321
72
-322
73
-344
0
VERTEX
8
BADY
10
0
20
0
30
0
70
128
71
-321
72
344
73
-345
0
VERTEX
8
BADY
10
0
20
0
30
0
70
128
71
320
72
-321
73
-345
0
VERTEX
8
BADY
10
0
20
0
30
0
70
128
71
-320
72
345
73
-346
0
VERTEX
8
BADY
10
0
20
0
30
0
70
128
71
319
72
-320
73
-346
0
VERTEX
8
BADY
10
0
20
0
30
0
70
128
71
-319
72
346
73
-347
0
VERTEX
8
BADY
10
0
20
0
30
0
70
128
71
318
72
-319
73
-347
0
VERTEX
8
BADY
10
0
20
0
30
0
70
128
71
-318
72
347
73
-348
0
VERTEX
8
BADY
10
0
20
0
30
0
70
128
71
317
72
-318
73
-348
0
VERTEX
8
BADY
10
0
20
0
30
0
70
128
71
-317
72
348
73
-349
0
VERTEX
8
BADY
10
0
20
0
30
0
70
128
71
316
72
-317
73
-349
0
VERTEX
8
BADY
10
0
20
0
30
0
70
128
71
-316
72
349
73
-350
0
VERTEX
8
BADY
10
0
20
0
30
0
70
128
71
315
72
-316
73
-350
0
VERTEX
8
BADY
10
0
20
0
30
0
70
128
71
-315
72
350
73
-351
0
VERTEX
8
BADY
10
0
20
0
30
0
70
128
71
314
72
-315
73
-351
0
VERTEX
8
BADY
10
0
20
0
30
0
70
128
71
-314
72
351
73
313
0
VERTEX
8
BADY
10
0
20
0
30
0
70
128
71
359
72
358
73
-357
0
VERTEX
8
BADY
10
0
20
0
30
0
70
128
71
-359
72
357
73
-356
0
VERTEX
8
BADY
10
0
20
0
30
0
70
128
71
-359
72
356
73
-355
0
VERTEX
8
BADY
10
0
20
0
30
0
70
128
71
-359
72
355
73
-354
0
VERTEX
8
BADY
10
0
20
0
30
0
70
128
71
-359
72
354
73
-353
0
VERTEX
8
BADY
10
0
20
0
30
0
70
128
71
-359
72
353
73
-352
0
VERTEX
8
BADY
10
0
20
0
30
0
70
128
71
-359
72
352
73
-363
0
VERTEX
8
BADY
10
0
20
0
30
0
70
128
71
-359
72
363
73
-362
0
VERTEX
8
BADY
10
0
20
0
30
0
70
128
71
-359
72
362
73
-361
0
VERTEX
8
BADY
10
0
20
0
30
0
70
128
71
-359
72
361
73
360
0
VERTEX
8
BADY
10
0
20
0
30
0
70
128
71
352
72
353
73
-365
0
VERTEX
8
BADY
10
0
20
0
30
0
70
128
71
-352
72
365
73
364
0
VERTEX
8
BADY
10
0
20
0
30
0
70
128
71
353
72
354
73
-366
0
VERTEX
8
BADY
10
0
20
0
30
0
70
128
71
-353
72
366
73
365
0
VERTEX
8
BADY
10
0
20
0
30
0
70
128
71
354
72
355
73
-367
0
VERTEX
8
BADY
10
0
20
0
30
0
70
128
71
-354
72
367
73
366
0
VERTEX
8
BADY
10
0
20
0
30
0
70
128
71
355
72
356
73
-368
0
VERTEX
8
BADY
10
0
20
0
30
0
70
128
71
-355
72
368
73
367
0
VERTEX
8
BADY
10
0
20
0
30
0
70
128
71
356
72
357
73
-369
0
VERTEX
8
BADY
10
0
20
0
30
0
70
128
71
-356
72
369
73
368
0
VERTEX
8
BADY
10
0
20
0
30
0
70
128
71
357
72
358
73
-370
0
VERTEX
8
BADY
10
0
20
0
30
0
70
128
71
-357
72
370
73
369
0
VERTEX
8
BADY
10
0
20
0
30
0
70
128
71
358
72
359
73
-371
0
VERTEX
8
BADY
10
0
20
0
30
0
70
128
71
-358
72
371
73
370
0
VERTEX
8
BADY
10
0
20
0
30
0
70
128
71
359
72
360
73
-372
0
VERTEX
8
BADY
10
0
20
0
30
0
70
128
71
-359
72
372
73
371
0
VERTEX
8
BADY
10
0
20
0
30
0
70
128
71
360
72
361
73
-373
0
VERTEX
8
BADY
10
0
20
0
30
0
70
128
71
-360
72
373
73
372
0
VERTEX
8
BADY
10
0
20
0
30
0
70
128
71
361
72
362
73
-374
0
VERTEX
8
BADY
10
0
20
0
30
0
70
128
71
-361
72
374
73
373
0
VERTEX
8
BADY
10
0
20
0
30
0
70
128
71
362
72
363
73
-375
0
VERTEX
8
BADY
10
0
20
0
30
0
70
128
71
-362
72
375
73
374
0
VERTEX
8
BADY
10
0
20
0
30
0
70
128
71
363
72
352
73
-364
0
VERTEX
8
BADY
10
0
20
0
30
0
70
128
71
-363
72
364
73
375
0
VERTEX
8
BADY
10
0
20
0
30
0
70
128
71
364
72
365
73
-377
0
VERTEX
8
BADY
10
0
20
0
30
0
70
128
71
-364
72
377
73
376
0
VERTEX
8
BADY
10
0
20
0
30
0
70
128
71
365
72
366
73
-378
0
VERTEX
8
BADY
10
0
20
0
30
0
70
128
71
-365
72
378
73
377
0
VERTEX
8
BADY
10
0
20
0
30
0
70
128
71
366
72
367
73
-379
0
VERTEX
8
BADY
10
0
20
0
30
0
70
128
71
-366
72
379
73
378
0
VERTEX
8
BADY
10
0
20
0
30
0
70
128
71
367
72
368
73
-380
0
VERTEX
8
BADY
10
0
20
0
30
0
70
128
71
-367
72
380
73
379
0
VERTEX
8
BADY
10
0
20
0
30
0
70
128
71
368
72
369
73
-381
0
VERTEX
8
BADY
10
0
20
0
30
0
70
128
71
-368
72
381
73
380
0
VERTEX
8
BADY
10
0
20
0
30
0
70
128
71
369
72
370
73
-382
0
VERTEX
8
BADY
10
0
20
0
30
0
70
128
71
-369
72
382
73
381
0
VERTEX
8
BADY
10
0
20
0
30
0
70
128
71
370
72
371
73
-383
0
VERTEX
8
BADY
10
0
20
0
30
0
70
128
71
-370
72
383
73
382
0
VERTEX
8
BADY
10
0
20
0
30
0
70
128
71
371
72
372
73
-384
0
VERTEX
8
BADY
10
0
20
0
30
0
70
128
71
-371
72
384
73
383
0
VERTEX
8
BADY
10
0
20
0
30
0
70
128
71
372
72
373
73
-385
0
VERTEX
8
BADY
10
0
20
0
30
0
70
128
71
-372
72
385
73
384
0
VERTEX
8
BADY
10
0
20
0
30
0
70
128
71
373
72
374
73
-386
0
VERTEX
8
BADY
10
0
20
0
30
0
70
128
71
-373
72
386
73
385
0
VERTEX
8
BADY
10
0
20
0
30
0
70
128
71
374
72
375
73
-387
0
VERTEX
8
BADY
10
0
20
0
30
0
70
128
71
-374
72
387
73
386
0
VERTEX
8
BADY
10
0
20
0
30
0
70
128
71
375
72
364
73
-376
0
VERTEX
8
BADY
10
0
20
0
30
0
70
128
71
-375
72
376
73
387
0
VERTEX
8
BADY
10
0
20
0
30
0
70
128
71
376
72
377
73
-389
0
VERTEX
8
BADY
10
0
20
0
30
0
70
128
71
-376
72
389
73
388
0
VERTEX
8
BADY
10
0
20
0
30
0
70
128
71
377
72
378
73
-390
0
VERTEX
8
BADY
10
0
20
0
30
0
70
128
71
-377
72
390
73
389
0
VERTEX
8
BADY
10
0
20
0
30
0
70
128
71
378
72
379
73
-391
0
VERTEX
8
BADY
10
0
20
0
30
0
70
128
71
-378
72
391
73
390
0
VERTEX
8
BADY
10
0
20
0
30
0
70
128
71
379
72
380
73
-392
0
VERTEX
8
BADY
10
0
20
0
30
0
70
128
71
-379
72
392
73
391
0
VERTEX
8
BADY
10
0
20
0
30
0
70
128
71
380
72
381
73
-393
0
VERTEX
8
BADY
10
0
20
0
30
0
70
128
71
-380
72
393
73
392
0
VERTEX
8
BADY
10
0
20
0
30
0
70
128
71
381
72
382
73
-394
0
VERTEX
8
BADY
10
0
20
0
30
0
70
128
71
-381
72
394
73
393
0
VERTEX
8
BADY
10
0
20
0
30
0
70
128
71
382
72
383
73
-395
0
VERTEX
8
BADY
10
0
20
0
30
0
70
128
71
-382
72
395
73
394
0
VERTEX
8
BADY
10
0
20
0
30
0
70
128
71
383
72
384
73
-396
0
VERTEX
8
BADY
10
0
20
0
30
0
70
128
71
-383
72
396
73
395
0
VERTEX
8
BADY
10
0
20
0
30
0
70
128
71
384
72
385
73
-397
0
VERTEX
8
BADY
10
0
20
0
30
0
70
128
71
-384
72
397
73
396
0
VERTEX
8
BADY
10
0
20
0
30
0
70
128
71
385
72
386
73
-398
0
VERTEX
8
BADY
10
0
20
0
30
0
70
128
71
-385
72
398
73
397
0
VERTEX
8
BADY
10
0
20
0
30
0
70
128
71
386
72
387
73
-399
0
VERTEX
8
BADY
10
0
20
0
30
0
70
128
71
-386
72
399
73
398
0
VERTEX
8
BADY
10
0
20
0
30
0
70
128
71
387
72
376
73
-388
0
VERTEX
8
BADY
10
0
20
0
30
0
70
128
71
-387
72
388
73
399
0
VERTEX
8
BADY
10
0
20
0
30
0
70
128
71
388
72
389
73
-401
0
VERTEX
8
BADY
10
0
20
0
30
0
70
128
71
-388
72
401
73
400
0
VERTEX
8
BADY
10
0
20
0
30
0
70
128
71
389
72
390
73
-402
0
VERTEX
8
BADY
10
0
20
0
30
0
70
128
71
-389
72
402
73
401
0
VERTEX
8
BADY
10
0
20
0
30
0
70
128
71
390
72
391
73
-403
0
VERTEX
8
BADY
10
0
20
0
30
0
70
128
71
-390
72
403
73
402
0
VERTEX
8
BADY
10
0
20
0
30
0
70
128
71
391
72
392
73
-404
0
VERTEX
8
BADY
10
0
20
0
30
0
70
128
71
-391
72
404
73
403
0
VERTEX
8
BADY
10
0
20
0
30
0
70
128
71
392
72
393
73
-405
0
VERTEX
8
BADY
10
0
20
0
30
0
70
128
71
-392
72
405
73
404
0
VERTEX
8
BADY
10
0
20
0
30
0
70
128
71
393
72
394
73
-406
0
VERTEX
8
BADY
10
0
20
0
30
0
70
128
71
-393
72
406
73
405
0
VERTEX
8
BADY
10
0
20
0
30
0
70
128
71
394
72
395
73
-407
0
VERTEX
8
BADY
10
0
20
0
30
0
70
128
71
-394
72
407
73
406
0
VERTEX
8
BADY
10
0
20
0
30
0
70
128
71
395
72
396
73
-408
0
VERTEX
8
BADY
10
0
20
0
30
0
70
128
71
-395
72
408
73
407
0
VERTEX
8
BADY
10
0
20
0
30
0
70
128
71
396
72
397
73
-409
0
VERTEX
8
BADY
10
0
20
0
30
0
70
128
71
-396
72
409
73
408
0
VERTEX
8
BADY
10
0
20
0
30
0
70
128
71
397
72
398
73
-410
0
VERTEX
8
BADY
10
0
20
0
30
0
70
128
71
-397
72
410
73
409
0
VERTEX
8
BADY
10
0
20
0
30
0
70
128
71
398
72
399
73
-411
0
VERTEX
8
BADY
10
0
20
0
30
0
70
128
71
-398
72
411
73
410
0
VERTEX
8
BADY
10
0
20
0
30
0
70
128
71
399
72
388
73
-400
0
VERTEX
8
BADY
10
0
20
0
30
0
70
128
71
-399
72
400
73
411
0
VERTEX
8
BADY
10
0
20
0
30
0
70
128
71
400
72
401
73
-413
0
VERTEX
8
BADY
10
0
20
0
30
0
70
128
71
-400
72
413
73
412
0
VERTEX
8
BADY
10
0
20
0
30
0
70
128
71
401
72
402
73
-414
0
VERTEX
8
BADY
10
0
20
0
30
0
70
128
71
-401
72
414
73
413
0
VERTEX
8
BADY
10
0
20
0
30
0
70
128
71
402
72
403
73
-415
0
VERTEX
8
BADY
10
0
20
0
30
0
70
128
71
-402
72
415
73
414
0
VERTEX
8
BADY
10
0
20
0
30
0
70
128
71
403
72
404
73
-416
0
VERTEX
8
BADY
10
0
20
0
30
0
70
128
71
-403
72
416
73
415
0
VERTEX
8
BADY
10
0
20
0
30
0
70
128
71
404
72
405
73
-417
0
VERTEX
8
BADY
10
0
20
0
30
0
70
128
71
-404
72
417
73
416
0
VERTEX
8
BADY
10
0
20
0
30
0
70
128
71
405
72
406
73
-418
0
VERTEX
8
BADY
10
0
20
0
30
0
70
128
71
-405
72
418
73
417
0
VERTEX
8
BADY
10
0
20
0
30
0
70
128
71
406
72
407
73
-419
0
VERTEX
8
BADY
10
0
20
0
30
0
70
128
71
-406
72
419
73
418
0
VERTEX
8
BADY
10
0
20
0
30
0
70
128
71
407
72
408
73
-420
0
VERTEX
8
BADY
10
0
20
0
30
0
70
128
71
-407
72
420
73
419
0
VERTEX
8
BADY
10
0
20
0
30
0
70
128
71
408
72
409
73
-421
0
VERTEX
8
BADY
10
0
20
0
30
0
70
128
71
-408
72
421
73
420
0
VERTEX
8
BADY
10
0
20
0
30
0
70
128
71
409
72
410
73
-422
0
VERTEX
8
BADY
10
0
20
0
30
0
70
128
71
-409
72
422
73
421
0
VERTEX
8
BADY
10
0
20
0
30
0
70
128
71
410
72
411
73
-423
0
VERTEX
8
BADY
10
0
20
0
30
0
70
128
71
-410
72
423
73
422
0
VERTEX
8
BADY
10
0
20
0
30
0
70
128
71
411
72
400
73
-412
0
VERTEX
8
BADY
10
0
20
0
30
0
70
128
71
-411
72
412
73
423
0
VERTEX
8
BADY
10
0
20
0
30
0
70
128
71
412
72
413
73
-425
0
VERTEX
8
BADY
10
0
20
0
30
0
70
128
71
-412
72
425
73
424
0
VERTEX
8
BADY
10
0
20
0
30
0
70
128
71
413
72
414
73
-426
0
VERTEX
8
BADY
10
0
20
0
30
0
70
128
71
-413
72
426
73
425
0
VERTEX
8
BADY
10
0
20
0
30
0
70
128
71
414
72
415
73
-427
0
VERTEX
8
BADY
10
0
20
0
30
0
70
128
71
-414
72
427
73
426
0
VERTEX
8
BADY
10
0
20
0
30
0
70
128
71
415
72
416
73
-428
0
VERTEX
8
BADY
10
0
20
0
30
0
70
128
71
-415
72
428
73
427
0
VERTEX
8
BADY
10
0
20
0
30
0
70
128
71
416
72
417
73
-429
0
VERTEX
8
BADY
10
0
20
0
30
0
70
128
71
-416
72
429
73
428
0
VERTEX
8
BADY
10
0
20
0
30
0
70
128
71
417
72
418
73
-430
0
VERTEX
8
BADY
10
0
20
0
30
0
70
128
71
-417
72
430
73
429
0
VERTEX
8
BADY
10
0
20
0
30
0
70
128
71
418
72
419
73
-431
0
VERTEX
8
BADY
10
0
20
0
30
0
70
128
71
-418
72
431
73
430
0
VERTEX
8
BADY
10
0
20
0
30
0
70
128
71
419
72
420
73
-432
0
VERTEX
8
BADY
10
0
20
0
30
0
70
128
71
-419
72
432
73
431
0
VERTEX
8
BADY
10
0
20
0
30
0
70
128
71
420
72
421
73
-433
0
VERTEX
8
BADY
10
0
20
0
30
0
70
128
71
-420
72
433
73
432
0
VERTEX
8
BADY
10
0
20
0
30
0
70
128
71
421
72
422
73
-434
0
VERTEX
8
BADY
10
0
20
0
30
0
70
128
71
-421
72
434
73
433
0
VERTEX
8
BADY
10
0
20
0
30
0
70
128
71
422
72
423
73
-435
0
VERTEX
8
BADY
10
0
20
0
30
0
70
128
71
-422
72
435
73
434
0
VERTEX
8
BADY
10
0
20
0
30
0
70
128
71
423
72
412
73
-424
0
VERTEX
8
BADY
10
0
20
0
30
0
70
128
71
-423
72
424
73
435
0
VERTEX
8
BADY
10
0
20
0
30
0
70
128
71
424
72
425
73
-437
0
VERTEX
8
BADY
10
0
20
0
30
0
70
128
71
-424
72
437
73
436
0
VERTEX
8
BADY
10
0
20
0
30
0
70
128
71
425
72
426
73
-438
0
VERTEX
8
BADY
10
0
20
0
30
0
70
128
71
-425
72
438
73
437
0
VERTEX
8
BADY
10
0
20
0
30
0
70
128
71
426
72
427
73
-439
0
VERTEX
8
BADY
10
0
20
0
30
0
70
128
71
-426
72
439
73
438
0
VERTEX
8
BADY
10
0
20
0
30
0
70
128
71
427
72
428
73
-440
0
VERTEX
8
BADY
10
0
20
0
30
0
70
128
71
-427
72
440
73
439
0
VERTEX
8
BADY
10
0
20
0
30
0
70
128
71
428
72
429
73
-441
0
VERTEX
8
BADY
10
0
20
0
30
0
70
128
71
-428
72
441
73
440
0
VERTEX
8
BADY
10
0
20
0
30
0
70
128
71
429
72
430
73
-442
0
VERTEX
8
BADY
10
0
20
0
30
0
70
128
71
-429
72
442
73
441
0
VERTEX
8
BADY
10
0
20
0
30
0
70
128
71
430
72
431
73
-443
0
VERTEX
8
BADY
10
0
20
0
30
0
70
128
71
-430
72
443
73
442
0
VERTEX
8
BADY
10
0
20
0
30
0
70
128
71
431
72
432
73
-444
0
VERTEX
8
BADY
10
0
20
0
30
0
70
128
71
-431
72
444
73
443
0
VERTEX
8
BADY
10
0
20
0
30
0
70
128
71
432
72
433
73
-445
0
VERTEX
8
BADY
10
0
20
0
30
0
70
128
71
-432
72
445
73
444
0
VERTEX
8
BADY
10
0
20
0
30
0
70
128
71
433
72
434
73
-446
0
VERTEX
8
BADY
10
0
20
0
30
0
70
128
71
-433
72
446
73
445
0
VERTEX
8
BADY
10
0
20
0
30
0
70
128
71
434
72
435
73
-447
0
VERTEX
8
BADY
10
0
20
0
30
0
70
128
71
-434
72
447
73
446
0
VERTEX
8
BADY
10
0
20
0
30
0
70
128
71
435
72
424
73
-436
0
VERTEX
8
BADY
10
0
20
0
30
0
70
128
71
-435
72
436
73
447
0
VERTEX
8
BADY
10
0
20
0
30
0
70
128
71
436
72
437
73
-449
0
VERTEX
8
BADY
10
0
20
0
30
0
70
128
71
-436
72
449
73
448
0
VERTEX
8
BADY
10
0
20
0
30
0
70
128
71
437
72
438
73
-450
0
VERTEX
8
BADY
10
0
20
0
30
0
70
128
71
-437
72
450
73
449
0
VERTEX
8
BADY
10
0
20
0
30
0
70
128
71
438
72
439
73
-451
0
VERTEX
8
BADY
10
0
20
0
30
0
70
128
71
-438
72
451
73
450
0
VERTEX
8
BADY
10
0
20
0
30
0
70
128
71
439
72
440
73
-452
0
VERTEX
8
BADY
10
0
20
0
30
0
70
128
71
-439
72
452
73
451
0
VERTEX
8
BADY
10
0
20
0
30
0
70
128
71
440
72
441
73
-453
0
VERTEX
8
BADY
10
0
20
0
30
0
70
128
71
-440
72
453
73
452
0
VERTEX
8
BADY
10
0
20
0
30
0
70
128
71
441
72
442
73
-454
0
VERTEX
8
BADY
10
0
20
0
30
0
70
128
71
-441
72
454
73
453
0
VERTEX
8
BADY
10
0
20
0
30
0
70
128
71
442
72
443
73
-455
0
VERTEX
8
BADY
10
0
20
0
30
0
70
128
71
-442
72
455
73
454
0
VERTEX
8
BADY
10
0
20
0
30
0
70
128
71
443
72
444
73
-456
0
VERTEX
8
BADY
10
0
20
0
30
0
70
128
71
-443
72
456
73
455
0
VERTEX
8
BADY
10
0
20
0
30
0
70
128
71
444
72
445
73
-457
0
VERTEX
8
BADY
10
0
20
0
30
0
70
128
71
-444
72
457
73
456
0
VERTEX
8
BADY
10
0
20
0
30
0
70
128
71
445
72
446
73
-458
0
VERTEX
8
BADY
10
0
20
0
30
0
70
128
71
-445
72
458
73
457
0
VERTEX
8
BADY
10
0
20
0
30
0
70
128
71
446
72
447
73
-459
0
VERTEX
8
BADY
10
0
20
0
30
0
70
128
71
-446
72
459
73
458
0
VERTEX
8
BADY
10
0
20
0
30
0
70
128
71
447
72
436
73
-448
0
VERTEX
8
BADY
10
0
20
0
30
0
70
128
71
-447
72
448
73
459
0
VERTEX
8
BADY
10
0
20
0
30
0
70
128
71
448
72
449
73
-461
0
VERTEX
8
BADY
10
0
20
0
30
0
70
128
71
-448
72
461
73
460
0
VERTEX
8
BADY
10
0
20
0
30
0
70
128
71
449
72
450
73
-462
0
VERTEX
8
BADY
10
0
20
0
30
0
70
128
71
-449
72
462
73
461
0
VERTEX
8
BADY
10
0
20
0
30
0
70
128
71
450
72
451
73
-463
0
VERTEX
8
BADY
10
0
20
0
30
0
70
128
71
-450
72
463
73
462
0
VERTEX
8
BADY
10
0
20
0
30
0
70
128
71
451
72
452
73
-464
0
VERTEX
8
BADY
10
0
20
0
30
0
70
128
71
-451
72
464
73
463
0
VERTEX
8
BADY
10
0
20
0
30
0
70
128
71
452
72
453
73
-465
0
VERTEX
8
BADY
10
0
20
0
30
0
70
128
71
-452
72
465
73
464
0
VERTEX
8
BADY
10
0
20
0
30
0
70
128
71
453
72
454
73
-466
0
VERTEX
8
BADY
10
0
20
0
30
0
70
128
71
-453
72
466
73
465
0
VERTEX
8
BADY
10
0
20
0
30
0
70
128
71
454
72
455
73
-467
0
VERTEX
8
BADY
10
0
20
0
30
0
70
128
71
-454
72
467
73
466
0
VERTEX
8
BADY
10
0
20
0
30
0
70
128
71
455
72
456
73
-468
0
VERTEX
8
BADY
10
0
20
0
30
0
70
128
71
-455
72
468
73
467
0
VERTEX
8
BADY
10
0
20
0
30
0
70
128
71
456
72
457
73
-469
0
VERTEX
8
BADY
10
0
20
0
30
0
70
128
71
-456
72
469
73
468
0
VERTEX
8
BADY
10
0
20
0
30
0
70
128
71
457
72
458
73
-470
0
VERTEX
8
BADY
10
0
20
0
30
0
70
128
71
-457
72
470
73
469
0
VERTEX
8
BADY
10
0
20
0
30
0
70
128
71
458
72
459
73
-471
0
VERTEX
8
BADY
10
0
20
0
30
0
70
128
71
-458
72
471
73
470
0
VERTEX
8
BADY
10
0
20
0
30
0
70
128
71
459
72
448
73
-460
0
VERTEX
8
BADY
10
0
20
0
30
0
70
128
71
-459
72
460
73
471
0
VERTEX
8
BADY
10
0
20
0
30
0
70
128
71
465
72
466
73
-467
0
VERTEX
8
BADY
10
0
20
0
30
0
70
128
71
464
72
-465
73
-467
0
VERTEX
8
BADY
10
0
20
0
30
0
70
128
71
463
72
-464
73
-467
0
VERTEX
8
BADY
10
0
20
0
30
0
70
128
71
462
72
-463
73
-467
0
VERTEX
8
BADY
10
0
20
0
30
0
70
128
71
461
72
-462
73
-467
0
VERTEX
8
BADY
10
0
20
0
30
0
70
128
71
460
72
-461
73
-467
0
VERTEX
8
BADY
10
0
20
0
30
0
70
128
71
471
72
-460
73
-467
0
VERTEX
8
BADY
10
0
20
0
30
0
70
128
71
470
72
-471
73
-467
0
VERTEX
8
BADY
10
0
20
0
30
0
70
128
71
469
72
-470
73
-467
0
VERTEX
8
BADY
10
0
20
0
30
0
70
128
71
468
72
-469
73
467
0
VERTEX
8
BADY
10
0
20
0
30
0
70
128
71
472
72
475
73
-474
0
VERTEX
8
BADY
10
0
20
0
30
0
70
128
71
-472
72
474
73
473
0
VERTEX
8
BADY
10
0
20
0
30
0
70
128
71
472
72
473
73
-477
0
VERTEX
8
BADY
10
0
20
0
30
0
70
128
71
-472
72
477
73
476
0
VERTEX
8
BADY
10
0
20
0
30
0
70
128
71
473
72
474
73
-478
0
VERTEX
8
BADY
10
0
20
0
30
0
70
128
71
-473
72
478
73
477
0
VERTEX
8
BADY
10
0
20
0
30
0
70
128
71
474
72
475
73
-479
0
VERTEX
8
BADY
10
0
20
0
30
0
70
128
71
-474
72
479
73
478
0
VERTEX
8
BADY
10
0
20
0
30
0
70
128
71
475
72
472
73
-476
0
VERTEX
8
BADY
10
0
20
0
30
0
70
128
71
-475
72
476
73
479
0
VERTEX
8
BADY
10
0
20
0
30
0
70
128
71
478
72
479
73
-476
0
VERTEX
8
BADY
10
0
20
0
30
0
70
128
71
477
72
-478
73
476
0
VERTEX
8
BADY
10
0
20
0
30
0
70
128
71
480
72
483
73
-482
0
VERTEX
8
BADY
10
0
20
0
30
0
70
128
71
-480
72
482
73
481
0
VERTEX
8
BADY
10
0
20
0
30
0
70
128
71
480
72
481
73
-485
0
VERTEX
8
BADY
10
0
20
0
30
0
70
128
71
-480
72
485
73
484
0
VERTEX
8
BADY
10
0
20
0
30
0
70
128
71
481
72
482
73
-486
0
VERTEX
8
BADY
10
0
20
0
30
0
70
128
71
-481
72
486
73
485
0
VERTEX
8
BADY
10
0
20
0
30
0
70
128
71
482
72
483
73
-487
0
VERTEX
8
BADY
10
0
20
0
30
0
70
128
71
-482
72
487
73
486
0
VERTEX
8
BADY
10
0
20
0
30
0
70
128
71
483
72
480
73
-484
0
VERTEX
8
BADY
10
0
20
0
30
0
70
128
71
-483
72
484
73
487
0
VERTEX
8
BADY
10
0
20
0
30
0
70
128
71
486
72
487
73
-484
0
VERTEX
8
BADY
10
0
20
0
30
0
70
128
71
485
72
-486
73
484
0
SEQEND
8
BADY
0
POLYLINE
8
BAI
66
1
70
64
71
320
72
640
62
114
0
VERTEX
8
BAI
10
39.826504
20
84.186188
30
29.049601
70
192
0
VERTEX
8
BAI
10
42.067192
20
84.186188
30
29.049601
70
192
0
VERTEX
8
BAI
10
44.247540
20
84.186188
30
29.049601
70
192
0
VERTEX
8
BAI
10
46.307228
20
84.186188
30
29.049601
70
192
0
VERTEX
8
BAI
10
49.640598
20
85.652733
30
29.049601
70
192
0
VERTEX
8
BAI
10
51.934277
20
89.769089
30
29.049601
70
192
0
VERTEX
8
BAI
10
52.787823
20
96.110329
30
29.049601
70
192
0
VERTEX
8
BAI
10
52.787823
20
122.341499
30
29.049599
70
192
0
VERTEX
8
BAI
10
52.787823
20
153.357269
30
29.049595
70
192
0
VERTEX
8
BAI
10
52.787823
20
179.587982
30
29.049591
70
192
0
VERTEX
8
BAI
10
51.934273
20
185.928741
30
29.049589
70
192
0
VERTEX
8
BAI
10
49.640598
20
190.044754
30
29.049589
70
192
0
VERTEX
8
BAI
10
46.307228
20
191.511185
30
29.049589
70
192
0
VERTEX
8
BAI
10
44.247540
20
191.511185
30
29.049589
70
192
0
VERTEX
8
BAI
10
42.067192
20
191.511185
30
29.049589
70
192
0
VERTEX
8
BAI
10
39.826504
20
191.511185
30
29.049589
70
192
0
VERTEX
8
BAI
10
39.826473
20
84.186165
30
29.049570
70
192
0
VERTEX
8
BAI
10
41.957493
20
84.186188
30
29.741983
70
192
0
VERTEX
8
BAI
10
44.031132
20
84.186188
30
30.415751
70
192
0
VERTEX
8
BAI
10
45.990017
20
84.186188
30
31.052225
70
192
0
VERTEX
8
BAI
10
49.160236
20
85.652733
30
32.082283
70
192
0
VERTEX
8
BAI
10
51.341652
20
89.769096
30
32.791084
70
192
0
VERTEX
8
BAI
10
52.153423
20
96.110329
30
33.054848
70
192
0
VERTEX
8
BAI
10
52.153423
20
122.341499
30
33.054844
70
192
0
VERTEX
8
BAI
10
52.153423
20
153.357269
30
33.054844
70
192
0
VERTEX
8
BAI
10
52.153423
20
179.587982
30
33.054840
70
192
0
VERTEX
8
BAI
10
51.341648
20
185.928741
30
32.791077
70
192
0
VERTEX
8
BAI
10
49.160233
20
190.044754
30
32.082275
70
192
0
VERTEX
8
BAI
10
45.990013
20
191.511185
30
31.052214
70
192
0
VERTEX
8
BAI
10
44.031128
20
191.511185
30
30.415739
70
192
0
VERTEX
8
BAI
10
41.957489
20
191.511185
30
29.741972
70
192
0
VERTEX
8
BAI
10
39.826469
20
191.511185
30
29.049589
70
192
0
VERTEX
8
BAI
10
39.826511
20
84.186188
30
29.049601
70
192
0
VERTEX
8
BAI
10
41.639267
20
84.186188
30
30.366617
70
192
0
VERTEX
8
BAI
10
43.403202
20
84.186188
30
31.648203
70
192
0
VERTEX
8
BAI
10
45.069523
20
84.186188
30
32.858837
70
192
0
VERTEX
8
BAI
10
47.766281
20
85.652733
30
34.818157
70
192
0
VERTEX
8
BAI
10
49.621902
20
89.769096
30
36.166359
70
192
0
VERTEX
8
BAI
10
50.312439
20
96.110329
30
36.668068
70
192
0
VERTEX
8
BAI
10
50.312439
20
122.341499
30
36.668064
70
192
0
VERTEX
8
BAI
10
50.312435
20
153.357269
30
36.668064
70
192
0
VERTEX
8
BAI
10
50.312431
20
179.587982
30
36.668056
70
192
0
VERTEX
8
BAI
10
49.621895
20
185.928741
30
36.166351
70
192
0
VERTEX
8
BAI
10
47.766277
20
190.044754
30
34.818142
70
192
0
VERTEX
8
BAI
10
45.069523
20
191.511185
30
32.858852
70
192
0
VERTEX
8
BAI
10
43.403198
20
191.511185
30
31.648191
70
192
0
VERTEX
8
BAI
10
41.639259
20
191.511185
30
30.366606
70
192
0
VERTEX
8
BAI
10
39.826508
20
191.511185
30
29.049589
70
192
0
VERTEX
8
BAI
10
39.826492
20
84.186165
30
29.049570
70
192
0
VERTEX
8
BAI
10
41.143528
20
84.186188
30
30.862314
70
192
0
VERTEX
8
BAI
10
42.425110
20
84.186188
30
32.626263
70
192
0
VERTEX
8
BAI
10
43.635769
20
84.186188
30
34.292580
70
192
0
VERTEX
8
BAI
10
45.595062
20
85.652733
30
36.989330
70
192
0
VERTEX
8
BAI
10
46.943260
20
89.769096
30
38.844948
70
192
0
VERTEX
8
BAI
10
47.444962
20
96.110329
30
39.535473
70
192
0
VERTEX
8
BAI
10
47.444962
20
122.341499
30
39.535465
70
192
0
VERTEX
8
BAI
10
47.444954
20
153.357269
30
39.535465
70
192
0
VERTEX
8
BAI
10
47.444954
20
179.587982
30
39.535461
70
192
0
VERTEX
8
BAI
10
46.943253
20
185.928741
30
38.844936
70
192
0
VERTEX
8
BAI
10
45.595058
20
190.044754
30
36.989315
70
192
0
VERTEX
8
BAI
10
43.635757
20
191.511185
30
34.292568
70
192
0
VERTEX
8
BAI
10
42.425102
20
191.511185
30
32.626247
70
192
0
VERTEX
8
BAI
10
41.143524
20
191.511185
30
30.862303
70
192
0
VERTEX
8
BAI
10
39.826481
20
191.511185
30
29.049559
70
192
0
VERTEX
8
BAI
10
39.826508
20
84.186188
30
29.049601
70
192
0
VERTEX
8
BAI
10
40.518917
20
84.186188
30
31.180613
70
192
0
VERTEX
8
BAI
10
41.192688
20
84.186188
30
33.254250
70
192
0
VERTEX
8
BAI
10
41.829166
20
84.186188
30
35.213142
70
192
0
VERTEX
8
BAI
10
42.859226
20
85.652733
30
38.383343
70
192
0
VERTEX
8
BAI
10
43.568012
20
89.769096
30
40.564766
70
192
0
VERTEX
8
BAI
10
43.831772
20
96.110329
30
41.376537
70
192
0
VERTEX
8
BAI
10
43.831772
20
122.341499
30
41.376530
70
192
0
VERTEX
8
BAI
10
43.831768
20
153.357269
30
41.376530
70
192
0
VERTEX
8
BAI
10
43.831768
20
179.587982
30
41.376526
70
192
0
VERTEX
8
BAI
10
43.568005
20
185.928741
30
40.564754
70
192
0
VERTEX
8
BAI
10
42.859219
20
190.044754
30
38.383358
70
192
0
VERTEX
8
BAI
10
41.829155
20
191.511185
30
35.213131
70
192
0
VERTEX
8
BAI
10
41.192673
20
191.511185
30
33.254242
70
192
0
VERTEX
8
BAI
10
40.518909
20
191.511185
30
31.180601
70
192
0
VERTEX
8
BAI
10
39.826500
20
191.511185
30
29.049589
70
192
0
VERTEX
8
BAI
10
39.826511
20
84.186165
30
29.049570
70
192
0
VERTEX
8
BAI
10
39.826511
20
84.186188
30
31.290262
70
192
0
VERTEX
8
BAI
10
39.826511
20
84.186188
30
33.470589
70
192
0
VERTEX
8
BAI
10
39.826511
20
84.186188
30
35.530281
70
192
0
VERTEX
8
BAI
10
39.826511
20
85.652733
30
38.863628
70
192
0
VERTEX
8
BAI
10
39.826508
20
89.769096
30
41.157326
70
192
0
VERTEX
8
BAI
10
39.826508
20
96.110329
30
42.010876
70
192
0
VERTEX
8
BAI
10
39.826508
20
122.341499
30
42.010868
70
192
0
VERTEX
8
BAI
10
39.826504
20
153.357269
30
42.010868
70
192
0
VERTEX
8
BAI
10
39.826500
20
179.587982
30
42.010860
70
192
0
VERTEX
8
BAI
10
39.826500
20
185.928741
30
41.157314
70
192
0
VERTEX
8
BAI
10
39.826500
20
190.044754
30
38.863613
70
192
0
VERTEX
8
BAI
10
39.826500
20
191.511185
30
35.530270
70
192
0
VERTEX
8
BAI
10
39.826500
20
191.511185
30
33.470581
70
192
0
VERTEX
8
BAI
10
39.826500
20
191.511185
30
31.290251
70
192
0
VERTEX
8
BAI
10
39.826504
20
191.511185
30
29.049559
70
192
0
VERTEX
8
BAI
10
39.826515
20
84.186188
30
29.049601
70
192
0
VERTEX
8
BAI
10
39.134106
20
84.186188
30
31.180613
70
192
0
VERTEX
8
BAI
10
38.460335
20
84.186188
30
33.254250
70
192
0
VERTEX
8
BAI
10
37.823860
20
84.186188
30
35.213142
70
192
0
VERTEX
8
BAI
10
36.793793
20
85.652733
30
38.383373
70
192
0
VERTEX
8
BAI
10
36.085003
20
89.769096
30
40.564766
70
192
0
VERTEX
8
BAI
10
35.821243
20
96.110329
30
41.376537
70
192
0
VERTEX
8
BAI
10
35.821239
20
122.341499
30
41.376530
70
192
0
VERTEX
8
BAI
10
35.821239
20
153.357269
30
41.376530
70
192
0
VERTEX
8
BAI
10
35.821236
20
179.587982
30
41.376526
70
192
0
VERTEX
8
BAI
10
36.084999
20
185.928741
30
40.564754
70
192
0
VERTEX
8
BAI
10
36.793777
20
190.044754
30
38.383358
70
192
0
VERTEX
8
BAI
10
37.823849
20
191.511185
30
35.213131
70
192
0
VERTEX
8
BAI
10
38.460327
20
191.511185
30
33.254242
70
192
0
VERTEX
8
BAI
10
39.134098
20
191.511185
30
31.180601
70
192
0
VERTEX
8
BAI
10
39.826508
20
191.511185
30
29.049589
70
192
0
VERTEX
8
BAI
10
39.826530
20
84.186165
30
29.049570
70
192
0
VERTEX
8
BAI
10
38.509491
20
84.186188
30
30.862314
70
192
0
VERTEX
8
BAI
10
37.227905
20
84.186188
30
32.626263
70
192
0
VERTEX
8
BAI
10
36.017250
20
84.186188
30
34.292580
70
192
0
VERTEX
8
BAI
10
34.057949
20
85.652733
30
36.989330
70
192
0
VERTEX
8
BAI
10
32.709755
20
89.769096
30
38.844978
70
192
0
VERTEX
8
BAI
10
32.208050
20
96.110329
30
39.535473
70
192
0
VERTEX
8
BAI
10
32.208050
20
122.341499
30
39.535465
70
192
0
VERTEX
8
BAI
10
32.208050
20
153.357269
30
39.535465
70
192
0
VERTEX
8
BAI
10
32.208046
20
179.587982
30
39.535461
70
192
0
VERTEX
8
BAI
10
32.709751
20
185.928741
30
38.844936
70
192
0
VERTEX
8
BAI
10
34.057938
20
190.044754
30
36.989315
70
192
0
VERTEX
8
BAI
10
36.017246
20
191.511185
30
34.292568
70
192
0
VERTEX
8
BAI
10
37.227898
20
191.511185
30
32.626247
70
192
0
VERTEX
8
BAI
10
38.509480
20
191.511185
30
30.862303
70
192
0
VERTEX
8
BAI
10
39.826519
20
191.511185
30
29.049559
70
192
0
VERTEX
8
BAI
10
39.826508
20
84.186188
30
29.049601
70
192
0
VERTEX
8
BAI
10
38.013756
20
84.186188
30
30.366648
70
192
0
VERTEX
8
BAI
10
36.249813
20
84.186188
30
31.648233
70
192
0
VERTEX
8
BAI
10
34.583488
20
84.186188
30
32.858868
70
192
0
VERTEX
8
BAI
10
31.886738
20
85.652733
30
34.818188
70
192
0
VERTEX
8
BAI
10
30.031111
20
89.769096
30
36.166359
70
192
0
VERTEX
8
BAI
10
29.340576
20
96.110329
30
36.668068
70
192
0
VERTEX
8
BAI
10
29.340574
20
122.341499
30
36.668064
70
192
0
VERTEX
8
BAI
10
29.340574
20
153.357269
30
36.668064
70
192
0
VERTEX
8
BAI
10
29.340572
20
179.587982
30
36.668056
70
192
0
VERTEX
8
BAI
10
30.031107
20
185.928741
30
36.166351
70
192
0
VERTEX
8
BAI
10
31.886732
20
190.044754
30
34.818142
70
192
0
VERTEX
8
BAI
10
34.583477
20
191.511185
30
32.858852
70
192
0
VERTEX
8
BAI
10
36.249809
20
191.511185
30
31.648191
70
192
0
VERTEX
8
BAI
10
38.013752
20
191.511185
30
30.366606
70
192
0
VERTEX
8
BAI
10
39.826504
20
191.511185
30
29.049589
70
192
0
VERTEX
8
BAI
10
39.826542
20
84.186188
30
29.049601
70
192
0
VERTEX
8
BAI
10
37.695526
20
84.186188
30
29.742014
70
192
0
VERTEX
8
BAI
10
35.621883
20
84.186188
30
30.415751
70
192
0
VERTEX
8
BAI
10
33.663002
20
84.186188
30
31.052225
70
192
0
VERTEX
8
BAI
10
30.492783
20
85.652733
30
32.082314
70
192
0
VERTEX
8
BAI
10
28.311361
20
89.769096
30
32.791084
70
192
0
VERTEX
8
BAI
10
27.499592
20
96.110329
30
33.054848
70
192
0
VERTEX
8
BAI
10
27.499590
20
122.341499
30
33.054844
70
192
0
VERTEX
8
BAI
10
27.499586
20
153.357269
30
33.054844
70
192
0
VERTEX
8
BAI
10
27.499586
20
179.587982
30
33.054840
70
192
0
VERTEX
8
BAI
10
28.311361
20
185.928741
30
32.791077
70
192
0
VERTEX
8
BAI
10
30.492779
20
190.044754
30
32.082275
70
192
0
VERTEX
8
BAI
10
33.662998
20
191.511185
30
31.052214
70
192
0
VERTEX
8
BAI
10
35.621883
20
191.511185
30
30.415739
70
192
0
VERTEX
8
BAI
10
37.695522
20
191.511185
30
29.741972
70
192
0
VERTEX
8
BAI
10
39.826538
20
191.511185
30
29.049559
70
192
0
VERTEX
8
BAI
10
39.826504
20
84.186188
30
29.049601
70
192
0
VERTEX
8
BAI
10
37.585819
20
84.186188
30
29.049601
70
192
0
VERTEX
8
BAI
10
35.405464
20
84.186188
30
29.049601
70
192
0
VERTEX
8
BAI
10
33.345768
20
84.186188
30
29.049601
70
192
0
VERTEX
8
BAI
10
30.012409
20
85.652733
30
29.049601
70
192
0
VERTEX
8
BAI
10
27.718727
20
89.769089
30
29.049601
70
192
0
VERTEX
8
BAI
10
26.865179
20
96.110329
30
29.049601
70
192
0
VERTEX
8
BAI
10
26.865179
20
122.341499
30
29.049599
70
192
0
VERTEX
8
BAI
10
26.865179
20
153.357269
30
29.049595
70
192
0
VERTEX
8
BAI
10
26.865179
20
179.587982
30
29.049591
70
192
0
VERTEX
8
BAI
10
27.718729
20
185.928741
30
29.049589
70
192
0
VERTEX
8
BAI
10
30.012409
20
190.044754
30
29.049589
70
192
0
VERTEX
8
BAI
10
33.345768
20
191.511185
30
29.049589
70
192
0
VERTEX
8
BAI
10
35.405464
20
191.511185
30
29.049589
70
192
0
VERTEX
8
BAI
10
37.585819
20
191.511185
30
29.049589
70
192
0
VERTEX
8
BAI
10
39.826504
20
191.511185
30
29.049589
70
192
0
VERTEX
8
BAI
10
39.826534
20
84.186188
30
29.049601
70
192
0
VERTEX
8
BAI
10
37.695522
20
84.186165
30
28.357220
70
192
0
VERTEX
8
BAI
10
35.621876
20
84.186165
30
27.683422
70
192
0
VERTEX
8
BAI
10
33.662994
20
84.186165
30
27.046978
70
192
0
VERTEX
8
BAI
10
30.492773
20
85.652710
30
26.016888
70
192
0
VERTEX
8
BAI
10
28.311356
20
89.769066
30
25.308115
70
192
0
VERTEX
8
BAI
10
27.499584
20
96.110313
30
25.044321
70
192
0
VERTEX
8
BAI
10
27.499586
20
122.341492
30
25.044319
70
192
0
VERTEX
8
BAI
10
27.499586
20
153.357269
30
25.044315
70
192
0
VERTEX
8
BAI
10
27.499586
20
179.587982
30
25.044312
70
192
0
VERTEX
8
BAI
10
28.311361
20
185.928741
30
25.308073
70
192
0
VERTEX
8
BAI
10
30.492779
20
190.044754
30
26.016874
70
192
0
VERTEX
8
BAI
10
33.662998
20
191.511185
30
27.046934
70
192
0
VERTEX
8
BAI
10
35.621880
20
191.511185
30
27.683409
70
192
0
VERTEX
8
BAI
10
37.695522
20
191.511185
30
28.357145
70
192
0
VERTEX
8
BAI
10
39.826538
20
191.511185
30
29.049589
70
192
0
VERTEX
8
BAI
10
39.826492
20
84.186188
30
29.049601
70
192
0
VERTEX
8
BAI
10
38.013741
20
84.186165
30
27.732555
70
192
0
VERTEX
8
BAI
10
36.249805
20
84.186165
30
26.450970
70
192
0
VERTEX
8
BAI
10
34.583473
20
84.186172
30
25.240307
70
192
0
VERTEX
8
BAI
10
31.886728
20
85.652718
30
23.281017
70
192
0
VERTEX
8
BAI
10
30.031101
20
89.769073
30
21.932812
70
192
0
VERTEX
8
BAI
10
29.340567
20
96.110313
30
21.431133
70
192
0
VERTEX
8
BAI
10
29.340569
20
122.341492
30
21.431129
70
192
0
VERTEX
8
BAI
10
29.340572
20
153.357269
30
21.431126
70
192
0
VERTEX
8
BAI
10
29.340572
20
179.587982
30
21.431122
70
192
0
VERTEX
8
BAI
10
30.031107
20
185.928741
30
21.932798
70
192
0
VERTEX
8
BAI
10
31.886732
20
190.044754
30
23.281004
70
192
0
VERTEX
8
BAI
10
34.583477
20
191.511185
30
25.240294
70
192
0
VERTEX
8
BAI
10
36.249809
20
191.511185
30
26.450956
70
192
0
VERTEX
8
BAI
10
38.013748
20
191.511185
30
27.732542
70
192
0
VERTEX
8
BAI
10
39.826500
20
191.511185
30
29.049589
70
192
0
VERTEX
8
BAI
10
39.826515
20
84.186188
30
29.049631
70
192
0
VERTEX
8
BAI
10
38.509476
20
84.186165
30
27.236889
70
192
0
VERTEX
8
BAI
10
37.227898
20
84.186165
30
25.472912
70
192
0
VERTEX
8
BAI
10
36.017239
20
84.186172
30
23.806591
70
192
0
VERTEX
8
BAI
10
34.057934
20
85.652718
30
21.109844
70
192
0
VERTEX
8
BAI
10
32.709747
20
89.769089
30
19.254223
70
192
0
VERTEX
8
BAI
10
32.208042
20
96.110329
30
18.563700
70
192
0
VERTEX
8
BAI
10
32.208046
20
122.341492
30
18.563698
70
192
0
VERTEX
8
BAI
10
32.208050
20
153.357269
30
18.563694
70
192
0
VERTEX
8
BAI
10
32.208050
20
179.587982
30
18.563692
70
192
0
VERTEX
8
BAI
10
32.709755
20
185.928741
30
19.254210
70
192
0
VERTEX
8
BAI
10
34.057945
20
190.044739
30
21.109831
70
192
0
VERTEX
8
BAI
10
36.017246
20
191.511169
30
23.806578
70
192
0
VERTEX
8
BAI
10
37.227901
20
191.511185
30
25.472898
70
192
0
VERTEX
8
BAI
10
38.509483
20
191.511185
30
27.236845
70
192
0
VERTEX
8
BAI
10
39.826519
20
191.511185
30
29.049589
70
192
0
VERTEX
8
BAI
10
39.826492
20
84.186188
30
29.049601
70
192
0
VERTEX
8
BAI
10
39.134079
20
84.186165
30
26.918560
70
192
0
VERTEX
8
BAI
10
38.460316
20
84.186172
30
24.844952
70
192
0
VERTEX
8
BAI
10
37.823833
20
84.186172
30
22.886059
70
192
0
VERTEX
8
BAI
10
36.793770
20
85.652733
30
19.715862
70
192
0
VERTEX
8
BAI
10
36.084984
20
89.769089
30
17.534405
70
192
0
VERTEX
8
BAI
10
35.821224
20
96.110329
30
16.722666
70
192
0
VERTEX
8
BAI
10
35.821228
20
122.341492
30
16.722664
70
192
0
VERTEX
8
BAI
10
35.821232
20
153.357269
30
16.722630
70
192
0
VERTEX
8
BAI
10
35.821232
20
179.587982
30
16.722628
70
192
0
VERTEX
8
BAI
10
36.084995
20
185.928741
30
17.534391
70
192
0
VERTEX
8
BAI
10
36.793774
20
190.044754
30
19.715851
70
192
0
VERTEX
8
BAI
10
37.823845
20
191.511169
30
22.886045
70
192
0
VERTEX
8
BAI
10
38.460323
20
191.511185
30
24.844938
70
192
0
VERTEX
8
BAI
10
39.134087
20
191.511185
30
26.918547
70
192
0
VERTEX
8
BAI
10
39.826500
20
191.511185
30
29.049589
70
192
0
VERTEX
8
BAI
10
39.826481
20
84.186188
30
29.049631
70
192
0
VERTEX
8
BAI
10
39.826481
20
84.186165
30
26.808971
70
192
0
VERTEX
8
BAI
10
39.826481
20
84.186172
30
24.628582
70
192
0
VERTEX
8
BAI
10
39.826488
20
84.186172
30
22.568890
70
192
0
VERTEX
8
BAI
10
39.826488
20
85.652733
30
19.235546
70
192
0
VERTEX
8
BAI
10
39.826492
20
89.769089
30
16.941875
70
192
0
VERTEX
8
BAI
10
39.826492
20
96.110329
30
16.088299
70
192
0
VERTEX
8
BAI
10
39.826492
20
122.341492
30
16.088295
70
192
0
VERTEX
8
BAI
10
39.826496
20
153.357269
30
16.088291
70
192
0
VERTEX
8
BAI
10
39.826500
20
179.587982
30
16.088289
70
192
0
VERTEX
8
BAI
10
39.826500
20
185.928741
30
16.941862
70
192
0
VERTEX
8
BAI
10
39.826500
20
190.044754
30
19.235535
70
192
0
VERTEX
8
BAI
10
39.826500
20
191.511169
30
22.568876
70
192
0
VERTEX
8
BAI
10
39.826496
20
191.511185
30
24.628569
70
192
0
VERTEX
8
BAI
10
39.826496
20
191.511185
30
26.808958
70
192
0
VERTEX
8
BAI
10
39.826492
20
191.511185
30
29.049620
70
192
0
VERTEX
8
BAI
10
39.826496
20
84.186188
30
29.049601
70
192
0
VERTEX
8
BAI
10
40.518909
20
84.186165
30
26.918560
70
192
0
VERTEX
8
BAI
10
41.192669
20
84.186172
30
24.844952
70
192
0
VERTEX
8
BAI
10
41.829151
20
84.186172
30
22.886059
70
192
0
VERTEX
8
BAI
10
42.859219
20
85.652733
30
19.715832
70
192
0
VERTEX
8
BAI
10
43.568005
20
89.769089
30
17.534405
70
192
0
VERTEX
8
BAI
10
43.831768
20
96.110329
30
16.722635
70
192
0
VERTEX
8
BAI
10
43.831768
20
122.341492
30
16.722633
70
192
0
VERTEX
8
BAI
10
43.831772
20
153.357269
30
16.722630
70
192
0
VERTEX
8
BAI
10
43.831772
20
179.587982
30
16.722628
70
192
0
VERTEX
8
BAI
10
43.568012
20
185.928741
30
17.534391
70
192
0
VERTEX
8
BAI
10
42.859226
20
190.044754
30
19.715820
70
192
0
VERTEX
8
BAI
10
41.829159
20
191.511169
30
22.886045
70
192
0
VERTEX
8
BAI
10
41.192680
20
191.511185
30
24.844938
70
192
0
VERTEX
8
BAI
10
40.518913
20
191.511185
30
26.918547
70
192
0
VERTEX
8
BAI
10
39.826504
20
191.511185
30
29.049589
70
192
0
VERTEX
8
BAI
10
39.826477
20
84.186188
30
29.049631
70
192
0
VERTEX
8
BAI
10
41.143524
20
84.186165
30
27.236889
70
192
0
VERTEX
8
BAI
10
42.425098
20
84.186165
30
25.472912
70
192
0
VERTEX
8
BAI
10
43.635757
20
84.186172
30
23.806591
70
192
0
VERTEX
8
BAI
10
45.595058
20
85.652718
30
21.109844
70
192
0
VERTEX
8
BAI
10
46.943253
20
89.769089
30
19.254223
70
192
0
VERTEX
8
BAI
10
47.444954
20
96.110329
30
18.563700
70
192
0
VERTEX
8
BAI
10
47.444962
20
122.341492
30
18.563698
70
192
0
VERTEX
8
BAI
10
47.444962
20
153.357269
30
18.563694
70
192
0
VERTEX
8
BAI
10
47.444962
20
179.587982
30
18.563692
70
192
0
VERTEX
8
BAI
10
46.943260
20
185.928741
30
19.254210
70
192
0
VERTEX
8
BAI
10
45.595062
20
190.044739
30
21.109831
70
192
0
VERTEX
8
BAI
10
43.635769
20
191.511169
30
23.806578
70
192
0
VERTEX
8
BAI
10
42.425106
20
191.511185
30
25.472898
70
192
0
VERTEX
8
BAI
10
41.143528
20
191.511185
30
27.236876
70
192
0
VERTEX
8
BAI
10
39.826488
20
191.511185
30
29.049620
70
192
0
VERTEX
8
BAI
10
39.826508
20
84.186188
30
29.049601
70
192
0
VERTEX
8
BAI
10
41.639259
20
84.186165
30
27.732555
70
192
0
VERTEX
8
BAI
10
43.403198
20
84.186165
30
26.450970
70
192
0
VERTEX
8
BAI
10
45.069523
20
84.186172
30
25.240307
70
192
0
VERTEX
8
BAI
10
47.766277
20
85.652718
30
23.281017
70
192
0
VERTEX
8
BAI
10
49.621902
20
89.769073
30
21.932812
70
192
0
VERTEX
8
BAI
10
50.312439
20
96.110313
30
21.431133
70
192
0
VERTEX
8
BAI
10
50.312439
20
122.341492
30
21.431129
70
192
0
VERTEX
8
BAI
10
50.312443
20
153.357269
30
21.431126
70
192
0
VERTEX
8
BAI
10
50.312443
20
179.587982
30
21.431122
70
192
0
VERTEX
8
BAI
10
49.621902
20
185.928741
30
21.932798
70
192
0
VERTEX
8
BAI
10
47.766281
20
190.044754
30
23.281034
70
192
0
VERTEX
8
BAI
10
45.069534
20
191.511185
30
25.240294
70
192
0
VERTEX
8
BAI
10
43.403202
20
191.511185
30
26.450956
70
192
0
VERTEX
8
BAI
10
41.639267
20
191.511185
30
27.732573
70
192
0
VERTEX
8
BAI
10
39.826511
20
191.511185
30
29.049589
70
192
0
VERTEX
8
BAI
10
39.826469
20
84.186188
30
29.049601
70
192
0
VERTEX
8
BAI
10
41.957489
20
84.186165
30
28.357220
70
192
0
VERTEX
8
BAI
10
44.031128
20
84.186165
30
27.683422
70
192
0
VERTEX
8
BAI
10
45.990013
20
84.186165
30
27.046978
70
192
0
VERTEX
8
BAI
10
49.160225
20
85.652710
30
26.016888
70
192
0
VERTEX
8
BAI
10
51.341648
20
89.769066
30
25.308084
70
192
0
VERTEX
8
BAI
10
52.153423
20
96.110313
30
25.044321
70
192
0
VERTEX
8
BAI
10
52.153423
20
122.341492
30
25.044350
70
192
0
VERTEX
8
BAI
10
52.153423
20
153.357269
30
25.044346
70
192
0
VERTEX
8
BAI
10
52.153423
20
179.587982
30
25.044342
70
192
0
VERTEX
8
BAI
10
51.341652
20
185.928741
30
25.308104
70
192
0
VERTEX
8
BAI
10
49.160236
20
190.044754
30
26.016874
70
192
0
VERTEX
8
BAI
10
45.990017
20
191.511185
30
27.046965
70
192
0
VERTEX
8
BAI
10
44.031132
20
191.511185
30
27.683409
70
192
0
VERTEX
8
BAI
10
41.957493
20
191.511185
30
28.357206
70
192
0
VERTEX
8
BAI
10
39.826469
20
191.511185
30
29.049589
70
192
0
VERTEX
8
BAI
10
0
20
0
30
0
70
128
71
1
72
2
73
-18
0
VERTEX
8
BAI
10
0
20
0
30
0
70
128
71
-1
72
18
73
17
0
VERTEX
8
BAI
10
0
20
0
30
0
70
128
71
2
72
3
73
-19
0
VERTEX
8
BAI
10
0
20
0
30
0
70
128
71
-2
72
19
73
18
0
VERTEX
8
BAI
10
0
20
0
30
0
70
128
71
3
72
4
73
-20
0
VERTEX
8
BAI
10
0
20
0
30
0
70
128
71
-3
72
20
73
19
0
VERTEX
8
BAI
10
0
20
0
30
0
70
128
71
4
72
5
73
-21
0
VERTEX
8
BAI
10
0
20
0
30
0
70
128
71
-4
72
21
73
20
0
VERTEX
8
BAI
10
0
20
0
30
0
70
128
71
5
72
6
73
-22
0
VERTEX
8
BAI
10
0
20
0
30
0
70
128
71
-5
72
22
73
21
0
VERTEX
8
BAI
10
0
20
0
30
0
70
128
71
6
72
7
73
-23
0
VERTEX
8
BAI
10
0
20
0
30
0
70
128
71
-6
72
23
73
22
0
VERTEX
8
BAI
10
0
20
0
30
0
70
128
71
7
72
8
73
-24
0
VERTEX
8
BAI
10
0
20
0
30
0
70
128
71
-7
72
24
73
23
0
VERTEX
8
BAI
10
0
20
0
30
0
70
128
71
8
72
9
73
-25
0
VERTEX
8
BAI
10
0
20
0
30
0
70
128
71
-8
72
25
73
24
0
VERTEX
8
BAI
10
0
20
0
30
0
70
128
71
9
72
10
73
-26
0
VERTEX
8
BAI
10
0
20
0
30
0
70
128
71
-9
72
26
73
25
0
VERTEX
8
BAI
10
0
20
0
30
0
70
128
71
10
72
11
73
-27
0
VERTEX
8
BAI
10
0
20
0
30
0
70
128
71
-10
72
27
73
26
0
VERTEX
8
BAI
10
0
20
0
30
0
70
128
71
11
72
12
73
-28
0
VERTEX
8
BAI
10
0
20
0
30
0
70
128
71
-11
72
28
73
27
0
VERTEX
8
BAI
10
0
20
0
30
0
70
128
71
12
72
13
73
-29
0
VERTEX
8
BAI
10
0
20
0
30
0
70
128
71
-12
72
29
73
28
0
VERTEX
8
BAI
10
0
20
0
30
0
70
128
71
13
72
14
73
-30
0
VERTEX
8
BAI
10
0
20
0
30
0
70
128
71
-13
72
30
73
29
0
VERTEX
8
BAI
10
0
20
0
30
0
70
128
71
14
72
15
73
-31
0
VERTEX
8
BAI
10
0
20
0
30
0
70
128
71
-14
72
31
73
30
0
VERTEX
8
BAI
10
0
20
0
30
0
70
128
71
15
72
16
73
-32
0
VERTEX
8
BAI
10
0
20
0
30
0
70
128
71
-15
72
32
73
31
0
VERTEX
8
BAI
10
0
20
0
30
0
70
128
71
16
72
1
73
-17
0
VERTEX
8
BAI
10
0
20
0
30
0
70
128
71
-16
72
17
73
32
0
VERTEX
8
BAI
10
0
20
0
30
0
70
128
71
17
72
18
73
-34
0
VERTEX
8
BAI
10
0
20
0
30
0
70
128
71
-17
72
34
73
33
0
VERTEX
8
BAI
10
0
20
0
30
0
70
128
71
18
72
19
73
-35
0
VERTEX
8
BAI
10
0
20
0
30
0
70
128
71
-18
72
35
73
34
0
VERTEX
8
BAI
10
0
20
0
30
0
70
128
71
19
72
20
73
-36
0
VERTEX
8
BAI
10
0
20
0
30
0
70
128
71
-19
72
36
73
35
0
VERTEX
8
BAI
10
0
20
0
30
0
70
128
71
20
72
21
73
-37
0
VERTEX
8
BAI
10
0
20
0
30
0
70
128
71
-20
72
37
73
36
0
VERTEX
8
BAI
10
0
20
0
30
0
70
128
71
21
72
22
73
-38
0
VERTEX
8
BAI
10
0
20
0
30
0
70
128
71
-21
72
38
73
37
0
VERTEX
8
BAI
10
0
20
0
30
0
70
128
71
22
72
23
73
-39
0
VERTEX
8
BAI
10
0
20
0
30
0
70
128
71
-22
72
39
73
38
0
VERTEX
8
BAI
10
0
20
0
30
0
70
128
71
23
72
24
73
-40
0
VERTEX
8
BAI
10
0
20
0
30
0
70
128
71
-23
72
40
73
39
0
VERTEX
8
BAI
10
0
20
0
30
0
70
128
71
24
72
25
73
-41
0
VERTEX
8
BAI
10
0
20
0
30
0
70
128
71
-24
72
41
73
40
0
VERTEX
8
BAI
10
0
20
0
30
0
70
128
71
25
72
26
73
-42
0
VERTEX
8
BAI
10
0
20
0
30
0
70
128
71
-25
72
42
73
41
0
VERTEX
8
BAI
10
0
20
0
30
0
70
128
71
26
72
27
73
-43
0
VERTEX
8
BAI
10
0
20
0
30
0
70
128
71
-26
72
43
73
42
0
VERTEX
8
BAI
10
0
20
0
30
0
70
128
71
27
72
28
73
-44
0
VERTEX
8
BAI
10
0
20
0
30
0
70
128
71
-27
72
44
73
43
0
VERTEX
8
BAI
10
0
20
0
30
0
70
128
71
28
72
29
73
-45
0
VERTEX
8
BAI
10
0
20
0
30
0
70
128
71
-28
72
45
73
44
0
VERTEX
8
BAI
10
0
20
0
30
0
70
128
71
29
72
30
73
-46
0
VERTEX
8
BAI
10
0
20
0
30
0
70
128
71
-29
72
46
73
45
0
VERTEX
8
BAI
10
0
20
0
30
0
70
128
71
30
72
31
73
-47
0
VERTEX
8
BAI
10
0
20
0
30
0
70
128
71
-30
72
47
73
46
0
VERTEX
8
BAI
10
0
20
0
30
0
70
128
71
31
72
32
73
-48
0
VERTEX
8
BAI
10
0
20
0
30
0
70
128
71
-31
72
48
73
47
0
VERTEX
8
BAI
10
0
20
0
30
0
70
128
71
32
72
17
73
-33
0
VERTEX
8
BAI
10
0
20
0
30
0
70
128
71
-32
72
33
73
48
0
VERTEX
8
BAI
10
0
20
0
30
0
70
128
71
33
72
34
73
-50
0
VERTEX
8
BAI
10
0
20
0
30
0
70
128
71
-33
72
50
73
49
0
VERTEX
8
BAI
10
0
20
0
30
0
70
128
71
34
72
35
73
-51
0
VERTEX
8
BAI
10
0
20
0
30
0
70
128
71
-34
72
51
73
50
0
VERTEX
8
BAI
10
0
20
0
30
0
70
128
71
35
72
36
73
-52
0
VERTEX
8
BAI
10
0
20
0
30
0
70
128
71
-35
72
52
73
51
0
VERTEX
8
BAI
10
0
20
0
30
0
70
128
71
36
72
37
73
-53
0
VERTEX
8
BAI
10
0
20
0
30
0
70
128
71
-36
72
53
73
52
0
VERTEX
8
BAI
10
0
20
0
30
0
70
128
71
37
72
38
73
-54
0
VERTEX
8
BAI
10
0
20
0
30
0
70
128
71
-37
72
54
73
53
0
VERTEX
8
BAI
10
0
20
0
30
0
70
128
71
38
72
39
73
-55
0
VERTEX
8
BAI
10
0
20
0
30
0
70
128
71
-38
72
55
73
54
0
VERTEX
8
BAI
10
0
20
0
30
0
70
128
71
39
72
40
73
-56
0
VERTEX
8
BAI
10
0
20
0
30
0
70
128
71
-39
72
56
73
55
0
VERTEX
8
BAI
10
0
20
0
30
0
70
128
71
40
72
41
73
-57
0
VERTEX
8
BAI
10
0
20
0
30
0
70
128
71
-40
72
57
73
56
0
VERTEX
8
BAI
10
0
20
0
30
0
70
128
71
41
72
42
73
-58
0
VERTEX
8
BAI
10
0
20
0
30
0
70
128
71
-41
72
58
73
57
0
VERTEX
8
BAI
10
0
20
0
30
0
70
128
71
42
72
43
73
-59
0
VERTEX
8
BAI
10
0
20
0
30
0
70
128
71
-42
72
59
73
58
0
VERTEX
8
BAI
10
0
20
0
30
0
70
128
71
43
72
44
73
-60
0
VERTEX
8
BAI
10
0
20
0
30
0
70
128
71
-43
72
60
73
59
0
VERTEX
8
BAI
10
0
20
0
30
0
70
128
71
44
72
45
73
-61
0
VERTEX
8
BAI
10
0
20
0
30
0
70
128
71
-44
72
61
73
60
0
VERTEX
8
BAI
10
0
20
0
30
0
70
128
71
45
72
46
73
-62
0
VERTEX
8
BAI
10
0
20
0
30
0
70
128
71
-45
72
62
73
61
0
VERTEX
8
BAI
10
0
20
0
30
0
70
128
71
46
72
47
73
-63
0
VERTEX
8
BAI
10
0
20
0
30
0
70
128
71
-46
72
63
73
62
0
VERTEX
8
BAI
10
0
20
0
30
0
70
128
71
47
72
48
73
-64
0
VERTEX
8
BAI
10
0
20
0
30
0
70
128
71
-47
72
64
73
63
0
VERTEX
8
BAI
10
0
20
0
30
0
70
128
71
48
72
33
73
-49
0
VERTEX
8
BAI
10
0
20
0
30
0
70
128
71
-48
72
49
73
64
0
VERTEX
8
BAI
10
0
20
0
30
0
70
128
71
49
72
50
73
-66
0
VERTEX
8
BAI
10
0
20
0
30
0
70
128
71
-49
72
66
73
65
0
VERTEX
8
BAI
10
0
20
0
30
0
70
128
71
50
72
51
73
-67
0
VERTEX
8
BAI
10
0
20
0
30
0
70
128
71
-50
72
67
73
66
0
VERTEX
8
BAI
10
0
20
0
30
0
70
128
71
51
72
52
73
-68
0
VERTEX
8
BAI
10
0
20
0
30
0
70
128
71
-51
72
68
73
67
0
VERTEX
8
BAI
10
0
20
0
30
0
70
128
71
52
72
53
73
-69
0
VERTEX
8
BAI
10
0
20
0
30
0
70
128
71
-52
72
69
73
68
0
VERTEX
8
BAI
10
0
20
0
30
0
70
128
71
53
72
54
73
-70
0
VERTEX
8
BAI
10
0
20
0
30
0
70
128
71
-53
72
70
73
69
0
VERTEX
8
BAI
10
0
20
0
30
0
70
128
71
54
72
55
73
-71
0
VERTEX
8
BAI
10
0
20
0
30
0
70
128
71
-54
72
71
73
70
0
VERTEX
8
BAI
10
0
20
0
30
0
70
128
71
55
72
56
73
-72
0
VERTEX
8
BAI
10
0
20
0
30
0
70
128
71
-55
72
72
73
71
0
VERTEX
8
BAI
10
0
20
0
30
0
70
128
71
56
72
57
73
-73
0
VERTEX
8
BAI
10
0
20
0
30
0
70
128
71
-56
72
73
73
72
0
VERTEX
8
BAI
10
0
20
0
30
0
70
128
71
57
72
58
73
-74
0
VERTEX
8
BAI
10
0
20
0
30
0
70
128
71
-57
72
74
73
73
0
VERTEX
8
BAI
10
0
20
0
30
0
70
128
71
58
72
59
73
-75
0
VERTEX
8
BAI
10
0
20
0
30
0
70
128
71
-58
72
75
73
74
0
VERTEX
8
BAI
10
0
20
0
30
0
70
128
71
59
72
60
73
-76
0
VERTEX
8
BAI
10
0
20
0
30
0
70
128
71
-59
72
76
73
75
0
VERTEX
8
BAI
10
0
20
0
30
0
70
128
71
60
72
61
73
-77
0
VERTEX
8
BAI
10
0
20
0
30
0
70
128
71
-60
72
77
73
76
0
VERTEX
8
BAI
10
0
20
0
30
0
70
128
71
61
72
62
73
-78
0
VERTEX
8
BAI
10
0
20
0
30
0
70
128
71
-61
72
78
73
77
0
VERTEX
8
BAI
10
0
20
0
30
0
70
128
71
62
72
63
73
-79
0
VERTEX
8
BAI
10
0
20
0
30
0
70
128
71
-62
72
79
73
78
0
VERTEX
8
BAI
10
0
20
0
30
0
70
128
71
63
72
64
73
-80
0
VERTEX
8
BAI
10
0
20
0
30
0
70
128
71
-63
72
80
73
79
0
VERTEX
8
BAI
10
0
20
0
30
0
70
128
71
64
72
49
73
-65
0
VERTEX
8
BAI
10
0
20
0
30
0
70
128
71
-64
72
65
73
80
0
VERTEX
8
BAI
10
0
20
0
30
0
70
128
71
65
72
66
73
-82
0
VERTEX
8
BAI
10
0
20
0
30
0
70
128
71
-65
72
82
73
81
0
VERTEX
8
BAI
10
0
20
0
30
0
70
128
71
66
72
67
73
-83
0
VERTEX
8
BAI
10
0
20
0
30
0
70
128
71
-66
72
83
73
82
0
VERTEX
8
BAI
10
0
20
0
30
0
70
128
71
67
72
68
73
-84
0
VERTEX
8
BAI
10
0
20
0
30
0
70
128
71
-67
72
84
73
83
0
VERTEX
8
BAI
10
0
20
0
30
0
70
128
71
68
72
69
73
-85
0
VERTEX
8
BAI
10
0
20
0
30
0
70
128
71
-68
72
85
73
84
0
VERTEX
8
BAI
10
0
20
0
30
0
70
128
71
69
72
70
73
-86
0
VERTEX
8
BAI
10
0
20
0
30
0
70
128
71
-69
72
86
73
85
0
VERTEX
8
BAI
10
0
20
0
30
0
70
128
71
70
72
71
73
-87
0
VERTEX
8
BAI
10
0
20
0
30
0
70
128
71
-70
72
87
73
86
0
VERTEX
8
BAI
10
0
20
0
30
0
70
128
71
71
72
72
73
-88
0
VERTEX
8
BAI
10
0
20
0
30
0
70
128
71
-71
72
88
73
87
0
VERTEX
8
BAI
10
0
20
0
30
0
70
128
71
72
72
73
73
-89
0
VERTEX
8
BAI
10
0
20
0
30
0
70
128
71
-72
72
89
73
88
0
VERTEX
8
BAI
10
0
20
0
30
0
70
128
71
73
72
74
73
-90
0
VERTEX
8
BAI
10
0
20
0
30
0
70
128
71
-73
72
90
73
89
0
VERTEX
8
BAI
10
0
20
0
30
0
70
128
71
74
72
75
73
-91
0
VERTEX
8
BAI
10
0
20
0
30
0
70
128
71
-74
72
91
73
90
0
VERTEX
8
BAI
10
0
20
0
30
0
70
128
71
75
72
76
73
-92
0
VERTEX
8
BAI
10
0
20
0
30
0
70
128
71
-75
72
92
73
91
0
VERTEX
8
BAI
10
0
20
0
30
0
70
128
71
76
72
77
73
-93
0
VERTEX
8
BAI
10
0
20
0
30
0
70
128
71
-76
72
93
73
92
0
VERTEX
8
BAI
10
0
20
0
30
0
70
128
71
77
72
78
73
-94
0
VERTEX
8
BAI
10
0
20
0
30
0
70
128
71
-77
72
94
73
93
0
VERTEX
8
BAI
10
0
20
0
30
0
70
128
71
78
72
79
73
-95
0
VERTEX
8
BAI
10
0
20
0
30
0
70
128
71
-78
72
95
73
94
0
VERTEX
8
BAI
10
0
20
0
30
0
70
128
71
79
72
80
73
-96
0
VERTEX
8
BAI
10
0
20
0
30
0
70
128
71
-79
72
96
73
95
0
VERTEX
8
BAI
10
0
20
0
30
0
70
128
71
80
72
65
73
-81
0
VERTEX
8
BAI
10
0
20
0
30
0
70
128
71
-80
72
81
73
96
0
VERTEX
8
BAI
10
0
20
0
30
0
70
128
71
81
72
82
73
-98
0
VERTEX
8
BAI
10
0
20
0
30
0
70
128
71
-81
72
98
73
97
0
VERTEX
8
BAI
10
0
20
0
30
0
70
128
71
82
72
83
73
-99
0
VERTEX
8
BAI
10
0
20
0
30
0
70
128
71
-82
72
99
73
98
0
VERTEX
8
BAI
10
0
20
0
30
0
70
128
71
83
72
84
73
-100
0
VERTEX
8
BAI
10
0
20
0
30
0
70
128
71
-83
72
100
73
99
0
VERTEX
8
BAI
10
0
20
0
30
0
70
128
71
84
72
85
73
-101
0
VERTEX
8
BAI
10
0
20
0
30
0
70
128
71
-84
72
101
73
100
0
VERTEX
8
BAI
10
0
20
0
30
0
70
128
71
85
72
86
73
-102
0
VERTEX
8
BAI
10
0
20
0
30
0
70
128
71
-85
72
102
73
101
0
VERTEX
8
BAI
10
0
20
0
30
0
70
128
71
86
72
87
73
-103
0
VERTEX
8
BAI
10
0
20
0
30
0
70
128
71
-86
72
103
73
102
0
VERTEX
8
BAI
10
0
20
0
30
0
70
128
71
87
72
88
73
-104
0
VERTEX
8
BAI
10
0
20
0
30
0
70
128
71
-87
72
104
73
103
0
VERTEX
8
BAI
10
0
20
0
30
0
70
128
71
88
72
89
73
-105
0
VERTEX
8
BAI
10
0
20
0
30
0
70
128
71
-88
72
105
73
104
0
VERTEX
8
BAI
10
0
20
0
30
0
70
128
71
89
72
90
73
-106
0
VERTEX
8
BAI
10
0
20
0
30
0
70
128
71
-89
72
106
73
105
0
VERTEX
8
BAI
10
0
20
0
30
0
70
128
71
90
72
91
73
-107
0
VERTEX
8
BAI
10
0
20
0
30
0
70
128
71
-90
72
107
73
106
0
VERTEX
8
BAI
10
0
20
0
30
0
70
128
71
91
72
92
73
-108
0
VERTEX
8
BAI
10
0
20
0
30
0
70
128
71
-91
72
108
73
107
0
VERTEX
8
BAI
10
0
20
0
30
0
70
128
71
92
72
93
73
-109
0
VERTEX
8
BAI
10
0
20
0
30
0
70
128
71
-92
72
109
73
108
0
VERTEX
8
BAI
10
0
20
0
30
0
70
128
71
93
72
94
73
-110
0
VERTEX
8
BAI
10
0
20
0
30
0
70
128
71
-93
72
110
73
109
0
VERTEX
8
BAI
10
0
20
0
30
0
70
128
71
94
72
95
73
-111
0
VERTEX
8
BAI
10
0
20
0
30
0
70
128
71
-94
72
111
73
110
0
VERTEX
8
BAI
10
0
20
0
30
0
70
128
71
95
72
96
73
-112
0
VERTEX
8
BAI
10
0
20
0
30
0
70
128
71
-95
72
112
73
111
0
VERTEX
8
BAI
10
0
20
0
30
0
70
128
71
96
72
81
73
-97
0
VERTEX
8
BAI
10
0
20
0
30
0
70
128
71
-96
72
97
73
112
0
VERTEX
8
BAI
10
0
20
0
30
0
70
128
71
97
72
98
73
-114
0
VERTEX
8
BAI
10
0
20
0
30
0
70
128
71
-97
72
114
73
113
0
VERTEX
8
BAI
10
0
20
0
30
0
70
128
71
98
72
99
73
-115
0
VERTEX
8
BAI
10
0
20
0
30
0
70
128
71
-98
72
115
73
114
0
VERTEX
8
BAI
10
0
20
0
30
0
70
128
71
99
72
100
73
-116
0
VERTEX
8
BAI
10
0
20
0
30
0
70
128
71
-99
72
116
73
115
0
VERTEX
8
BAI
10
0
20
0
30
0
70
128
71
100
72
101
73
-117
0
VERTEX
8
BAI
10
0
20
0
30
0
70
128
71
-100
72
117
73
116
0
VERTEX
8
BAI
10
0
20
0
30
0
70
128
71
101
72
102
73
-118
0
VERTEX
8
BAI
10
0
20
0
30
0
70
128
71
-101
72
118
73
117
0
VERTEX
8
BAI
10
0
20
0
30
0
70
128
71
102
72
103
73
-119
0
VERTEX
8
BAI
10
0
20
0
30
0
70
128
71
-102
72
119
73
118
0
VERTEX
8
BAI
10
0
20
0
30
0
70
128
71
103
72
104
73
-120
0
VERTEX
8
BAI
10
0
20
0
30
0
70
128
71
-103
72
120
73
119
0
VERTEX
8
BAI
10
0
20
0
30
0
70
128
71
104
72
105
73
-121
0
VERTEX
8
BAI
10
0
20
0
30
0
70
128
71
-104
72
121
73
120
0
VERTEX
8
BAI
10
0
20
0
30
0
70
128
71
105
72
106
73
-122
0
VERTEX
8
BAI
10
0
20
0
30
0
70
128
71
-105
72
122
73
121
0
VERTEX
8
BAI
10
0
20
0
30
0
70
128
71
106
72
107
73
-123
0
VERTEX
8
BAI
10
0
20
0
30
0
70
128
71
-106
72
123
73
122
0
VERTEX
8
BAI
10
0
20
0
30
0
70
128
71
107
72
108
73
-124
0
VERTEX
8
BAI
10
0
20
0
30
0
70
128
71
-107
72
124
73
123
0
VERTEX
8
BAI
10
0
20
0
30
0
70
128
71
108
72
109
73
-125
0
VERTEX
8
BAI
10
0
20
0
30
0
70
128
71
-108
72
125
73
124
0
VERTEX
8
BAI
10
0
20
0
30
0
70
128
71
109
72
110
73
-126
0
VERTEX
8
BAI
10
0
20
0
30
0
70
128
71
-109
72
126
73
125
0
VERTEX
8
BAI
10
0
20
0
30
0
70
128
71
110
72
111
73
-127
0
VERTEX
8
BAI
10
0
20
0
30
0
70
128
71
-110
72
127
73
126
0
VERTEX
8
BAI
10
0
20
0
30
0
70
128
71
111
72
112
73
-128
0
VERTEX
8
BAI
10
0
20
0
30
0
70
128
71
-111
72
128
73
127
0
VERTEX
8
BAI
10
0
20
0
30
0
70
128
71
112
72
97
73
-113
0
VERTEX
8
BAI
10
0
20
0
30
0
70
128
71
-112
72
113
73
128
0
VERTEX
8
BAI
10
0
20
0
30
0
70
128
71
113
72
114
73
-130
0
VERTEX
8
BAI
10
0
20
0
30
0
70
128
71
-113
72
130
73
129
0
VERTEX
8
BAI
10
0
20
0
30
0
70
128
71
114
72
115
73
-131
0
VERTEX
8
BAI
10
0
20
0
30
0
70
128
71
-114
72
131
73
130
0
VERTEX
8
BAI
10
0
20
0
30
0
70
128
71
115
72
116
73
-132
0
VERTEX
8
BAI
10
0
20
0
30
0
70
128
71
-115
72
132
73
131
0
VERTEX
8
BAI
10
0
20
0
30
0
70
128
71
116
72
117
73
-133
0
VERTEX
8
BAI
10
0
20
0
30
0
70
128
71
-116
72
133
73
132
0
VERTEX
8
BAI
10
0
20
0
30
0
70
128
71
117
72
118
73
-134
0
VERTEX
8
BAI
10
0
20
0
30
0
70
128
71
-117
72
134
73
133
0
VERTEX
8
BAI
10
0
20
0
30
0
70
128
71
118
72
119
73
-135
0
VERTEX
8
BAI
10
0
20
0
30
0
70
128
71
-118
72
135
73
134
0
VERTEX
8
BAI
10
0
20
0
30
0
70
128
71
119
72
120
73
-136
0
VERTEX
8
BAI
10
0
20
0
30
0
70
128
71
-119
72
136
73
135
0
VERTEX
8
BAI
10
0
20
0
30
0
70
128
71
120
72
121
73
-137
0
VERTEX
8
BAI
10
0
20
0
30
0
70
128
71
-120
72
137
73
136
0
VERTEX
8
BAI
10
0
20
0
30
0
70
128
71
121
72
122
73
-138
0
VERTEX
8
BAI
10
0
20
0
30
0
70
128
71
-121
72
138
73
137
0
VERTEX
8
BAI
10
0
20
0
30
0
70
128
71
122
72
123
73
-139
0
VERTEX
8
BAI
10
0
20
0
30
0
70
128
71
-122
72
139
73
138
0
VERTEX
8
BAI
10
0
20
0
30
0
70
128
71
123
72
124
73
-140
0
VERTEX
8
BAI
10
0
20
0
30
0
70
128
71
-123
72
140
73
139
0
VERTEX
8
BAI
10
0
20
0
30
0
70
128
71
124
72
125
73
-141
0
VERTEX
8
BAI
10
0
20
0
30
0
70
128
71
-124
72
141
73
140
0
VERTEX
8
BAI
10
0
20
0
30
0
70
128
71
125
72
126
73
-142
0
VERTEX
8
BAI
10
0
20
0
30
0
70
128
71
-125
72
142
73
141
0
VERTEX
8
BAI
10
0
20
0
30
0
70
128
71
126
72
127
73
-143
0
VERTEX
8
BAI
10
0
20
0
30
0
70
128
71
-126
72
143
73
142
0
VERTEX
8
BAI
10
0
20
0
30
0
70
128
71
127
72
128
73
-144
0
VERTEX
8
BAI
10
0
20
0
30
0
70
128
71
-127
72
144
73
143
0
VERTEX
8
BAI
10
0
20
0
30
0
70
128
71
128
72
113
73
-129
0
VERTEX
8
BAI
10
0
20
0
30
0
70
128
71
-128
72
129
73
144
0
VERTEX
8
BAI
10
0
20
0
30
0
70
128
71
129
72
130
73
-146
0
VERTEX
8
BAI
10
0
20
0
30
0
70
128
71
-129
72
146
73
145
0
VERTEX
8
BAI
10
0
20
0
30
0
70
128
71
130
72
131
73
-147
0
VERTEX
8
BAI
10
0
20
0
30
0
70
128
71
-130
72
147
73
146
0
VERTEX
8
BAI
10
0
20
0
30
0
70
128
71
131
72
132
73
-148
0
VERTEX
8
BAI
10
0
20
0
30
0
70
128
71
-131
72
148
73
147
0
VERTEX
8
BAI
10
0
20
0
30
0
70
128
71
132
72
133
73
-149
0
VERTEX
8
BAI
10
0
20
0
30
0
70
128
71
-132
72
149
73
148
0
VERTEX
8
BAI
10
0
20
0
30
0
70
128
71
133
72
134
73
-150
0
VERTEX
8
BAI
10
0
20
0
30
0
70
128
71
-133
72
150
73
149
0
VERTEX
8
BAI
10
0
20
0
30
0
70
128
71
134
72
135
73
-151
0
VERTEX
8
BAI
10
0
20
0
30
0
70
128
71
-134
72
151
73
150
0
VERTEX
8
BAI
10
0
20
0
30
0
70
128
71
135
72
136
73
-152
0
VERTEX
8
BAI
10
0
20
0
30
0
70
128
71
-135
72
152
73
151
0
VERTEX
8
BAI
10
0
20
0
30
0
70
128
71
136
72
137
73
-153
0
VERTEX
8
BAI
10
0
20
0
30
0
70
128
71
-136
72
153
73
152
0
VERTEX
8
BAI
10
0
20
0
30
0
70
128
71
137
72
138
73
-154
0
VERTEX
8
BAI
10
0
20
0
30
0
70
128
71
-137
72
154
73
153
0
VERTEX
8
BAI
10
0
20
0
30
0
70
128
71
138
72
139
73
-155
0
VERTEX
8
BAI
10
0
20
0
30
0
70
128
71
-138
72
155
73
154
0
VERTEX
8
BAI
10
0
20
0
30
0
70
128
71
139
72
140
73
-156
0
VERTEX
8
BAI
10
0
20
0
30
0
70
128
71
-139
72
156
73
155
0
VERTEX
8
BAI
10
0
20
0
30
0
70
128
71
140
72
141
73
-157
0
VERTEX
8
BAI
10
0
20
0
30
0
70
128
71
-140
72
157
73
156
0
VERTEX
8
BAI
10
0
20
0
30
0
70
128
71
141
72
142
73
-158
0
VERTEX
8
BAI
10
0
20
0
30
0
70
128
71
-141
72
158
73
157
0
VERTEX
8
BAI
10
0
20
0
30
0
70
128
71
142
72
143
73
-159
0
VERTEX
8
BAI
10
0
20
0
30
0
70
128
71
-142
72
159
73
158
0
VERTEX
8
BAI
10
0
20
0
30
0
70
128
71
143
72
144
73
-160
0
VERTEX
8
BAI
10
0
20
0
30
0
70
128
71
-143
72
160
73
159
0
VERTEX
8
BAI
10
0
20
0
30
0
70
128
71
144
72
129
73
-145
0
VERTEX
8
BAI
10
0
20
0
30
0
70
128
71
-144
72
145
73
160
0
VERTEX
8
BAI
10
0
20
0
30
0
70
128
71
145
72
146
73
-162
0
VERTEX
8
BAI
10
0
20
0
30
0
70
128
71
-145
72
162
73
161
0
VERTEX
8
BAI
10
0
20
0
30
0
70
128
71
146
72
147
73
-163
0
VERTEX
8
BAI
10
0
20
0
30
0
70
128
71
-146
72
163
73
162
0
VERTEX
8
BAI
10
0
20
0
30
0
70
128
71
147
72
148
73
-164
0
VERTEX
8
BAI
10
0
20
0
30
0
70
128
71
-147
72
164
73
163
0
VERTEX
8
BAI
10
0
20
0
30
0
70
128
71
148
72
149
73
-165
0
VERTEX
8
BAI
10
0
20
0
30
0
70
128
71
-148
72
165
73
164
0
VERTEX
8
BAI
10
0
20
0
30
0
70
128
71
149
72
150
73
-166
0
VERTEX
8
BAI
10
0
20
0
30
0
70
128
71
-149
72
166
73
165
0
VERTEX
8
BAI
10
0
20
0
30
0
70
128
71
150
72
151
73
-167
0
VERTEX
8
BAI
10
0
20
0
30
0
70
128
71
-150
72
167
73
166
0
VERTEX
8
BAI
10
0
20
0
30
0
70
128
71
151
72
152
73
-168
0
VERTEX
8
BAI
10
0
20
0
30
0
70
128
71
-151
72
168
73
167
0
VERTEX
8
BAI
10
0
20
0
30
0
70
128
71
152
72
153
73
-169
0
VERTEX
8
BAI
10
0
20
0
30
0
70
128
71
-152
72
169
73
168
0
VERTEX
8
BAI
10
0
20
0
30
0
70
128
71
153
72
154
73
-170
0
VERTEX
8
BAI
10
0
20
0
30
0
70
128
71
-153
72
170
73
169
0
VERTEX
8
BAI
10
0
20
0
30
0
70
128
71
154
72
155
73
-171
0
VERTEX
8
BAI
10
0
20
0
30
0
70
128
71
-154
72
171
73
170
0
VERTEX
8
BAI
10
0
20
0
30
0
70
128
71
155
72
156
73
-172
0
VERTEX
8
BAI
10
0
20
0
30
0
70
128
71
-155
72
172
73
171
0
VERTEX
8
BAI
10
0
20
0
30
0
70
128
71
156
72
157
73
-173
0
VERTEX
8
BAI
10
0
20
0
30
0
70
128
71
-156
72
173
73
172
0
VERTEX
8
BAI
10
0
20
0
30
0
70
128
71
157
72
158
73
-174
0
VERTEX
8
BAI
10
0
20
0
30
0
70
128
71
-157
72
174
73
173
0
VERTEX
8
BAI
10
0
20
0
30
0
70
128
71
158
72
159
73
-175
0
VERTEX
8
BAI
10
0
20
0
30
0
70
128
71
-158
72
175
73
174
0
VERTEX
8
BAI
10
0
20
0
30
0
70
128
71
159
72
160
73
-176
0
VERTEX
8
BAI
10
0
20
0
30
0
70
128
71
-159
72
176
73
175
0
VERTEX
8
BAI
10
0
20
0
30
0
70
128
71
160
72
145
73
-161
0
VERTEX
8
BAI
10
0
20
0
30
0
70
128
71
-160
72
161
73
176
0
VERTEX
8
BAI
10
0
20
0
30
0
70
128
71
161
72
162
73
-178
0
VERTEX
8
BAI
10
0
20
0
30
0
70
128
71
-161
72
178
73
177
0
VERTEX
8
BAI
10
0
20
0
30
0
70
128
71
162
72
163
73
-179
0
VERTEX
8
BAI
10
0
20
0
30
0
70
128
71
-162
72
179
73
178
0
VERTEX
8
BAI
10
0
20
0
30
0
70
128
71
163
72
164
73
-180
0
VERTEX
8
BAI
10
0
20
0
30
0
70
128
71
-163
72
180
73
179
0
VERTEX
8
BAI
10
0
20
0
30
0
70
128
71
164
72
165
73
-181
0
VERTEX
8
BAI
10
0
20
0
30
0
70
128
71
-164
72
181
73
180
0
VERTEX
8
BAI
10
0
20
0
30
0
70
128
71
165
72
166
73
-182
0
VERTEX
8
BAI
10
0
20
0
30
0
70
128
71
-165
72
182
73
181
0
VERTEX
8
BAI
10
0
20
0
30
0
70
128
71
166
72
167
73
-183
0
VERTEX
8
BAI
10
0
20
0
30
0
70
128
71
-166
72
183
73
182
0
VERTEX
8
BAI
10
0
20
0
30
0
70
128
71
167
72
168
73
-184
0
VERTEX
8
BAI
10
0
20
0
30
0
70
128
71
-167
72
184
73
183
0
VERTEX
8
BAI
10
0
20
0
30
0
70
128
71
168
72
169
73
-185
0
VERTEX
8
BAI
10
0
20
0
30
0
70
128
71
-168
72
185
73
184
0
VERTEX
8
BAI
10
0
20
0
30
0
70
128
71
169
72
170
73
-186
0
VERTEX
8
BAI
10
0
20
0
30
0
70
128
71
-169
72
186
73
185
0
VERTEX
8
BAI
10
0
20
0
30
0
70
128
71
170
72
171
73
-187
0
VERTEX
8
BAI
10
0
20
0
30
0
70
128
71
-170
72
187
73
186
0
VERTEX
8
BAI
10
0
20
0
30
0
70
128
71
171
72
172
73
-188
0
VERTEX
8
BAI
10
0
20
0
30
0
70
128
71
-171
72
188
73
187
0
VERTEX
8
BAI
10
0
20
0
30
0
70
128
71
172
72
173
73
-189
0
VERTEX
8
BAI
10
0
20
0
30
0
70
128
71
-172
72
189
73
188
0
VERTEX
8
BAI
10
0
20
0
30
0
70
128
71
173
72
174
73
-190
0
VERTEX
8
BAI
10
0
20
0
30
0
70
128
71
-173
72
190
73
189
0
VERTEX
8
BAI
10
0
20
0
30
0
70
128
71
174
72
175
73
-191
0
VERTEX
8
BAI
10
0
20
0
30
0
70
128
71
-174
72
191
73
190
0
VERTEX
8
BAI
10
0
20
0
30
0
70
128
71
175
72
176
73
-192
0
VERTEX
8
BAI
10
0
20
0
30
0
70
128
71
-175
72
192
73
191
0
VERTEX
8
BAI
10
0
20
0
30
0
70
128
71
176
72
161
73
-177
0
VERTEX
8
BAI
10
0
20
0
30
0
70
128
71
-176
72
177
73
192
0
VERTEX
8
BAI
10
0
20
0
30
0
70
128
71
177
72
178
73
-194
0
VERTEX
8
BAI
10
0
20
0
30
0
70
128
71
-177
72
194
73
193
0
VERTEX
8
BAI
10
0
20
0
30
0
70
128
71
178
72
179
73
-195
0
VERTEX
8
BAI
10
0
20
0
30
0
70
128
71
-178
72
195
73
194
0
VERTEX
8
BAI
10
0
20
0
30
0
70
128
71
179
72
180
73
-196
0
VERTEX
8
BAI
10
0
20
0
30
0
70
128
71
-179
72
196
73
195
0
VERTEX
8
BAI
10
0
20
0
30
0
70
128
71
180
72
181
73
-197
0
VERTEX
8
BAI
10
0
20
0
30
0
70
128
71
-180
72
197
73
196
0
VERTEX
8
BAI
10
0
20
0
30
0
70
128
71
181
72
182
73
-198
0
VERTEX
8
BAI
10
0
20
0
30
0
70
128
71
-181
72
198
73
197
0
VERTEX
8
BAI
10
0
20
0
30
0
70
128
71
182
72
183
73
-199
0
VERTEX
8
BAI
10
0
20
0
30
0
70
128
71
-182
72
199
73
198
0
VERTEX
8
BAI
10
0
20
0
30
0
70
128
71
183
72
184
73
-200
0
VERTEX
8
BAI
10
0
20
0
30
0
70
128
71
-183
72
200
73
199
0
VERTEX
8
BAI
10
0
20
0
30
0
70
128
71
184
72
185
73
-201
0
VERTEX
8
BAI
10
0
20
0
30
0
70
128
71
-184
72
201
73
200
0
VERTEX
8
BAI
10
0
20
0
30
0
70
128
71
185
72
186
73
-202
0
VERTEX
8
BAI
10
0
20
0
30
0
70
128
71
-185
72
202
73
201
0
VERTEX
8
BAI
10
0
20
0
30
0
70
128
71
186
72
187
73
-203
0
VERTEX
8
BAI
10
0
20
0
30
0
70
128
71
-186
72
203
73
202
0
VERTEX
8
BAI
10
0
20
0
30
0
70
128
71
187
72
188
73
-204
0
VERTEX
8
BAI
10
0
20
0
30
0
70
128
71
-187
72
204
73
203
0
VERTEX
8
BAI
10
0
20
0
30
0
70
128
71
188
72
189
73
-205
0
VERTEX
8
BAI
10
0
20
0
30
0
70
128
71
-188
72
205
73
204
0
VERTEX
8
BAI
10
0
20
0
30
0
70
128
71
189
72
190
73
-206
0
VERTEX
8
BAI
10
0
20
0
30
0
70
128
71
-189
72
206
73
205
0
VERTEX
8
BAI
10
0
20
0
30
0
70
128
71
190
72
191
73
-207
0
VERTEX
8
BAI
10
0
20
0
30
0
70
128
71
-190
72
207
73
206
0
VERTEX
8
BAI
10
0
20
0
30
0
70
128
71
191
72
192
73
-208
0
VERTEX
8
BAI
10
0
20
0
30
0
70
128
71
-191
72
208
73
207
0
VERTEX
8
BAI
10
0
20
0
30
0
70
128
71
192
72
177
73
-193
0
VERTEX
8
BAI
10
0
20
0
30
0
70
128
71
-192
72
193
73
208
0
VERTEX
8
BAI
10
0
20
0
30
0
70
128
71
193
72
194
73
-210
0
VERTEX
8
BAI
10
0
20
0
30
0
70
128
71
-193
72
210
73
209
0
VERTEX
8
BAI
10
0
20
0
30
0
70
128
71
194
72
195
73
-211
0
VERTEX
8
BAI
10
0
20
0
30
0
70
128
71
-194
72
211
73
210
0
VERTEX
8
BAI
10
0
20
0
30
0
70
128
71
195
72
196
73
-212
0
VERTEX
8
BAI
10
0
20
0
30
0
70
128
71
-195
72
212
73
211
0
VERTEX
8
BAI
10
0
20
0
30
0
70
128
71
196
72
197
73
-213
0
VERTEX
8
BAI
10
0
20
0
30
0
70
128
71
-196
72
213
73
212
0
VERTEX
8
BAI
10
0
20
0
30
0
70
128
71
197
72
198
73
-214
0
VERTEX
8
BAI
10
0
20
0
30
0
70
128
71
-197
72
214
73
213
0
VERTEX
8
BAI
10
0
20
0
30
0
70
128
71
198
72
199
73
-215
0
VERTEX
8
BAI
10
0
20
0
30
0
70
128
71
-198
72
215
73
214
0
VERTEX
8
BAI
10
0
20
0
30
0
70
128
71
199
72
200
73
-216
0
VERTEX
8
BAI
10
0
20
0
30
0
70
128
71
-199
72
216
73
215
0
VERTEX
8
BAI
10
0
20
0
30
0
70
128
71
200
72
201
73
-217
0
VERTEX
8
BAI
10
0
20
0
30
0
70
128
71
-200
72
217
73
216
0
VERTEX
8
BAI
10
0
20
0
30
0
70
128
71
201
72
202
73
-218
0
VERTEX
8
BAI
10
0
20
0
30
0
70
128
71
-201
72
218
73
217
0
VERTEX
8
BAI
10
0
20
0
30
0
70
128
71
202
72
203
73
-219
0
VERTEX
8
BAI
10
0
20
0
30
0
70
128
71
-202
72
219
73
218
0
VERTEX
8
BAI
10
0
20
0
30
0
70
128
71
203
72
204
73
-220
0
VERTEX
8
BAI
10
0
20
0
30
0
70
128
71
-203
72
220
73
219
0
VERTEX
8
BAI
10
0
20
0
30
0
70
128
71
204
72
205
73
-221
0
VERTEX
8
BAI
10
0
20
0
30
0
70
128
71
-204
72
221
73
220
0
VERTEX
8
BAI
10
0
20
0
30
0
70
128
71
205
72
206
73
-222
0
VERTEX
8
BAI
10
0
20
0
30
0
70
128
71
-205
72
222
73
221
0
VERTEX
8
BAI
10
0
20
0
30
0
70
128
71
206
72
207
73
-223
0
VERTEX
8
BAI
10
0
20
0
30
0
70
128
71
-206
72
223
73
222
0
VERTEX
8
BAI
10
0
20
0
30
0
70
128
71
207
72
208
73
-224
0
VERTEX
8
BAI
10
0
20
0
30
0
70
128
71
-207
72
224
73
223
0
VERTEX
8
BAI
10
0
20
0
30
0
70
128
71
208
72
193
73
-209
0
VERTEX
8
BAI
10
0
20
0
30
0
70
128
71
-208
72
209
73
224
0
VERTEX
8
BAI
10
0
20
0
30
0
70
128
71
209
72
210
73
-226
0
VERTEX
8
BAI
10
0
20
0
30
0
70
128
71
-209
72
226
73
225
0
VERTEX
8
BAI
10
0
20
0
30
0
70
128
71
210
72
211
73
-227
0
VERTEX
8
BAI
10
0
20
0
30
0
70
128
71
-210
72
227
73
226
0
VERTEX
8
BAI
10
0
20
0
30
0
70
128
71
211
72
212
73
-228
0
VERTEX
8
BAI
10
0
20
0
30
0
70
128
71
-211
72
228
73
227
0
VERTEX
8
BAI
10
0
20
0
30
0
70
128
71
212
72
213
73
-229
0
VERTEX
8
BAI
10
0
20
0
30
0
70
128
71
-212
72
229
73
228
0
VERTEX
8
BAI
10
0
20
0
30
0
70
128
71
213
72
214
73
-230
0
VERTEX
8
BAI
10
0
20
0
30
0
70
128
71
-213
72
230
73
229
0
VERTEX
8
BAI
10
0
20
0
30
0
70
128
71
214
72
215
73
-231
0
VERTEX
8
BAI
10
0
20
0
30
0
70
128
71
-214
72
231
73
230
0
VERTEX
8
BAI
10
0
20
0
30
0
70
128
71
215
72
216
73
-232
0
VERTEX
8
BAI
10
0
20
0
30
0
70
128
71
-215
72
232
73
231
0
VERTEX
8
BAI
10
0
20
0
30
0
70
128
71
216
72
217
73
-233
0
VERTEX
8
BAI
10
0
20
0
30
0
70
128
71
-216
72
233
73
232
0
VERTEX
8
BAI
10
0
20
0
30
0
70
128
71
217
72
218
73
-234
0
VERTEX
8
BAI
10
0
20
0
30
0
70
128
71
-217
72
234
73
233
0
VERTEX
8
BAI
10
0
20
0
30
0
70
128
71
218
72
219
73
-235
0
VERTEX
8
BAI
10
0
20
0
30
0
70
128
71
-218
72
235
73
234
0
VERTEX
8
BAI
10
0
20
0
30
0
70
128
71
219
72
220
73
-236
0
VERTEX
8
BAI
10
0
20
0
30
0
70
128
71
-219
72
236
73
235
0
VERTEX
8
BAI
10
0
20
0
30
0
70
128
71
220
72
221
73
-237
0
VERTEX
8
BAI
10
0
20
0
30
0
70
128
71
-220
72
237
73
236
0
VERTEX
8
BAI
10
0
20
0
30
0
70
128
71
221
72
222
73
-238
0
VERTEX
8
BAI
10
0
20
0
30
0
70
128
71
-221
72
238
73
237
0
VERTEX
8
BAI
10
0
20
0
30
0
70
128
71
222
72
223
73
-239
0
VERTEX
8
BAI
10
0
20
0
30
0
70
128
71
-222
72
239
73
238
0
VERTEX
8
BAI
10
0
20
0
30
0
70
128
71
223
72
224
73
-240
0
VERTEX
8
BAI
10
0
20
0
30
0
70
128
71
-223
72
240
73
239
0
VERTEX
8
BAI
10
0
20
0
30
0
70
128
71
224
72
209
73
-225
0
VERTEX
8
BAI
10
0
20
0
30
0
70
128
71
-224
72
225
73
240
0
VERTEX
8
BAI
10
0
20
0
30
0
70
128
71
225
72
226
73
-242
0
VERTEX
8
BAI
10
0
20
0
30
0
70
128
71
-225
72
242
73
241
0
VERTEX
8
BAI
10
0
20
0
30
0
70
128
71
226
72
227
73
-243
0
VERTEX
8
BAI
10
0
20
0
30
0
70
128
71
-226
72
243
73
242
0
VERTEX
8
BAI
10
0
20
0
30
0
70
128
71
227
72
228
73
-244
0
VERTEX
8
BAI
10
0
20
0
30
0
70
128
71
-227
72
244
73
243
0
VERTEX
8
BAI
10
0
20
0
30
0
70
128
71
228
72
229
73
-245
0
VERTEX
8
BAI
10
0
20
0
30
0
70
128
71
-228
72
245
73
244
0
VERTEX
8
BAI
10
0
20
0
30
0
70
128
71
229
72
230
73
-246
0
VERTEX
8
BAI
10
0
20
0
30
0
70
128
71
-229
72
246
73
245
0
VERTEX
8
BAI
10
0
20
0
30
0
70
128
71
230
72
231
73
-247
0
VERTEX
8
BAI
10
0
20
0
30
0
70
128
71
-230
72
247
73
246
0
VERTEX
8
BAI
10
0
20
0
30
0
70
128
71
231
72
232
73
-248
0
VERTEX
8
BAI
10
0
20
0
30
0
70
128
71
-231
72
248
73
247
0
VERTEX
8
BAI
10
0
20
0
30
0
70
128
71
232
72
233
73
-249
0
VERTEX
8
BAI
10
0
20
0
30
0
70
128
71
-232
72
249
73
248
0
VERTEX
8
BAI
10
0
20
0
30
0
70
128
71
233
72
234
73
-250
0
VERTEX
8
BAI
10
0
20
0
30
0
70
128
71
-233
72
250
73
249
0
VERTEX
8
BAI
10
0
20
0
30
0
70
128
71
234
72
235
73
-251
0
VERTEX
8
BAI
10
0
20
0
30
0
70
128
71
-234
72
251
73
250
0
VERTEX
8
BAI
10
0
20
0
30
0
70
128
71
235
72
236
73
-252
0
VERTEX
8
BAI
10
0
20
0
30
0
70
128
71
-235
72
252
73
251
0
VERTEX
8
BAI
10
0
20
0
30
0
70
128
71
236
72
237
73
-253
0
VERTEX
8
BAI
10
0
20
0
30
0
70
128
71
-236
72
253
73
252
0
VERTEX
8
BAI
10
0
20
0
30
0
70
128
71
237
72
238
73
-254
0
VERTEX
8
BAI
10
0
20
0
30
0
70
128
71
-237
72
254
73
253
0
VERTEX
8
BAI
10
0
20
0
30
0
70
128
71
238
72
239
73
-255
0
VERTEX
8
BAI
10
0
20
0
30
0
70
128
71
-238
72
255
73
254
0
VERTEX
8
BAI
10
0
20
0
30
0
70
128
71
239
72
240
73
-256
0
VERTEX
8
BAI
10
0
20
0
30
0
70
128
71
-239
72
256
73
255
0
VERTEX
8
BAI
10
0
20
0
30
0
70
128
71
240
72
225
73
-241
0
VERTEX
8
BAI
10
0
20
0
30
0
70
128
71
-240
72
241
73
256
0
VERTEX
8
BAI
10
0
20
0
30
0
70
128
71
241
72
242
73
-258
0
VERTEX
8
BAI
10
0
20
0
30
0
70
128
71
-241
72
258
73
257
0
VERTEX
8
BAI
10
0
20
0
30
0
70
128
71
242
72
243
73
-259
0
VERTEX
8
BAI
10
0
20
0
30
0
70
128
71
-242
72
259
73
258
0
VERTEX
8
BAI
10
0
20
0
30
0
70
128
71
243
72
244
73
-260
0
VERTEX
8
BAI
10
0
20
0
30
0
70
128
71
-243
72
260
73
259
0
VERTEX
8
BAI
10
0
20
0
30
0
70
128
71
244
72
245
73
-261
0
VERTEX
8
BAI
10
0
20
0
30
0
70
128
71
-244
72
261
73
260
0
VERTEX
8
BAI
10
0
20
0
30
0
70
128
71
245
72
246
73
-262
0
VERTEX
8
BAI
10
0
20
0
30
0
70
128
71
-245
72
262
73
261
0
VERTEX
8
BAI
10
0
20
0
30
0
70
128
71
246
72
247
73
-263
0
VERTEX
8
BAI
10
0
20
0
30
0
70
128
71
-246
72
263
73
262
0
VERTEX
8
BAI
10
0
20
0
30
0
70
128
71
247
72
248
73
-264
0
VERTEX
8
BAI
10
0
20
0
30
0
70
128
71
-247
72
264
73
263
0
VERTEX
8
BAI
10
0
20
0
30
0
70
128
71
248
72
249
73
-265
0
VERTEX
8
BAI
10
0
20
0
30
0
70
128
71
-248
72
265
73
264
0
VERTEX
8
BAI
10
0
20
0
30
0
70
128
71
249
72
250
73
-266
0
VERTEX
8
BAI
10
0
20
0
30
0
70
128
71
-249
72
266
73
265
0
VERTEX
8
BAI
10
0
20
0
30
0
70
128
71
250
72
251
73
-267
0
VERTEX
8
BAI
10
0
20
0
30
0
70
128
71
-250
72
267
73
266
0
VERTEX
8
BAI
10
0
20
0
30
0
70
128
71
251
72
252
73
-268
0
VERTEX
8
BAI
10
0
20
0
30
0
70
128
71
-251
72
268
73
267
0
VERTEX
8
BAI
10
0
20
0
30
0
70
128
71
252
72
253
73
-269
0
VERTEX
8
BAI
10
0
20
0
30
0
70
128
71
-252
72
269
73
268
0
VERTEX
8
BAI
10
0
20
0
30
0
70
128
71
253
72
254
73
-270
0
VERTEX
8
BAI
10
0
20
0
30
0
70
128
71
-253
72
270
73
269
0
VERTEX
8
BAI
10
0
20
0
30
0
70
128
71
254
72
255
73
-271
0
VERTEX
8
BAI
10
0
20
0
30
0
70
128
71
-254
72
271
73
270
0
VERTEX
8
BAI
10
0
20
0
30
0
70
128
71
255
72
256
73
-272
0
VERTEX
8
BAI
10
0
20
0
30
0
70
128
71
-255
72
272
73
271
0
VERTEX
8
BAI
10
0
20
0
30
0
70
128
71
256
72
241
73
-257
0
VERTEX
8
BAI
10
0
20
0
30
0
70
128
71
-256
72
257
73
272
0
VERTEX
8
BAI
10
0
20
0
30
0
70
128
71
257
72
258
73
-274
0
VERTEX
8
BAI
10
0
20
0
30
0
70
128
71
-257
72
274
73
273
0
VERTEX
8
BAI
10
0
20
0
30
0
70
128
71
258
72
259
73
-275
0
VERTEX
8
BAI
10
0
20
0
30
0
70
128
71
-258
72
275
73
274
0
VERTEX
8
BAI
10
0
20
0
30
0
70
128
71
259
72
260
73
-276
0
VERTEX
8
BAI
10
0
20
0
30
0
70
128
71
-259
72
276
73
275
0
VERTEX
8
BAI
10
0
20
0
30
0
70
128
71
260
72
261
73
-277
0
VERTEX
8
BAI
10
0
20
0
30
0
70
128
71
-260
72
277
73
276
0
VERTEX
8
BAI
10
0
20
0
30
0
70
128
71
261
72
262
73
-278
0
VERTEX
8
BAI
10
0
20
0
30
0
70
128
71
-261
72
278
73
277
0
VERTEX
8
BAI
10
0
20
0
30
0
70
128
71
262
72
263
73
-279
0
VERTEX
8
BAI
10
0
20
0
30
0
70
128
71
-262
72
279
73
278
0
VERTEX
8
BAI
10
0
20
0
30
0
70
128
71
263
72
264
73
-280
0
VERTEX
8
BAI
10
0
20
0
30
0
70
128
71
-263
72
280
73
279
0
VERTEX
8
BAI
10
0
20
0
30
0
70
128
71
264
72
265
73
-281
0
VERTEX
8
BAI
10
0
20
0
30
0
70
128
71
-264
72
281
73
280
0
VERTEX
8
BAI
10
0
20
0
30
0
70
128
71
265
72
266
73
-282
0
VERTEX
8
BAI
10
0
20
0
30
0
70
128
71
-265
72
282
73
281
0
VERTEX
8
BAI
10
0
20
0
30
0
70
128
71
266
72
267
73
-283
0
VERTEX
8
BAI
10
0
20
0
30
0
70
128
71
-266
72
283
73
282
0
VERTEX
8
BAI
10
0
20
0
30
0
70
128
71
267
72
268
73
-284
0
VERTEX
8
BAI
10
0
20
0
30
0
70
128
71
-267
72
284
73
283
0
VERTEX
8
BAI
10
0
20
0
30
0
70
128
71
268
72
269
73
-285
0
VERTEX
8
BAI
10
0
20
0
30
0
70
128
71
-268
72
285
73
284
0
VERTEX
8
BAI
10
0
20
0
30
0
70
128
71
269
72
270
73
-286
0
VERTEX
8
BAI
10
0
20
0
30
0
70
128
71
-269
72
286
73
285
0
VERTEX
8
BAI
10
0
20
0
30
0
70
128
71
270
72
271
73
-287
0
VERTEX
8
BAI
10
0
20
0
30
0
70
128
71
-270
72
287
73
286
0
VERTEX
8
BAI
10
0
20
0
30
0
70
128
71
271
72
272
73
-288
0
VERTEX
8
BAI
10
0
20
0
30
0
70
128
71
-271
72
288
73
287
0
VERTEX
8
BAI
10
0
20
0
30
0
70
128
71
272
72
257
73
-273
0
VERTEX
8
BAI
10
0
20
0
30
0
70
128
71
-272
72
273
73
288
0
VERTEX
8
BAI
10
0
20
0
30
0
70
128
71
273
72
274
73
-290
0
VERTEX
8
BAI
10
0
20
0
30
0
70
128
71
-273
72
290
73
289
0
VERTEX
8
BAI
10
0
20
0
30
0
70
128
71
274
72
275
73
-291
0
VERTEX
8
BAI
10
0
20
0
30
0
70
128
71
-274
72
291
73
290
0
VERTEX
8
BAI
10
0
20
0
30
0
70
128
71
275
72
276
73
-292
0
VERTEX
8
BAI
10
0
20
0
30
0
70
128
71
-275
72
292
73
291
0
VERTEX
8
BAI
10
0
20
0
30
0
70
128
71
276
72
277
73
-293
0
VERTEX
8
BAI
10
0
20
0
30
0
70
128
71
-276
72
293
73
292
0
VERTEX
8
BAI
10
0
20
0
30
0
70
128
71
277
72
278
73
-294
0
VERTEX
8
BAI
10
0
20
0
30
0
70
128
71
-277
72
294
73
293
0
VERTEX
8
BAI
10
0
20
0
30
0
70
128
71
278
72
279
73
-295
0
VERTEX
8
BAI
10
0
20
0
30
0
70
128
71
-278
72
295
73
294
0
VERTEX
8
BAI
10
0
20
0
30
0
70
128
71
279
72
280
73
-296
0
VERTEX
8
BAI
10
0
20
0
30
0
70
128
71
-279
72
296
73
295
0
VERTEX
8
BAI
10
0
20
0
30
0
70
128
71
280
72
281
73
-297
0
VERTEX
8
BAI
10
0
20
0
30
0
70
128
71
-280
72
297
73
296
0
VERTEX
8
BAI
10
0
20
0
30
0
70
128
71
281
72
282
73
-298
0
VERTEX
8
BAI
10
0
20
0
30
0
70
128
71
-281
72
298
73
297
0
VERTEX
8
BAI
10
0
20
0
30
0
70
128
71
282
72
283
73
-299
0
VERTEX
8
BAI
10
0
20
0
30
0
70
128
71
-282
72
299
73
298
0
VERTEX
8
BAI
10
0
20
0
30
0
70
128
71
283
72
284
73
-300
0
VERTEX
8
BAI
10
0
20
0
30
0
70
128
71
-283
72
300
73
299
0
VERTEX
8
BAI
10
0
20
0
30
0
70
128
71
284
72
285
73
-301
0
VERTEX
8
BAI
10
0
20
0
30
0
70
128
71
-284
72
301
73
300
0
VERTEX
8
BAI
10
0
20
0
30
0
70
128
71
285
72
286
73
-302
0
VERTEX
8
BAI
10
0
20
0
30
0
70
128
71
-285
72
302
73
301
0
VERTEX
8
BAI
10
0
20
0
30
0
70
128
71
286
72
287
73
-303
0
VERTEX
8
BAI
10
0
20
0
30
0
70
128
71
-286
72
303
73
302
0
VERTEX
8
BAI
10
0
20
0
30
0
70
128
71
287
72
288
73
-304
0
VERTEX
8
BAI
10
0
20
0
30
0
70
128
71
-287
72
304
73
303
0
VERTEX
8
BAI
10
0
20
0
30
0
70
128
71
288
72
273
73
-289
0
VERTEX
8
BAI
10
0
20
0
30
0
70
128
71
-288
72
289
73
304
0
VERTEX
8
BAI
10
0
20
0
30
0
70
128
71
289
72
290
73
-306
0
VERTEX
8
BAI
10
0
20
0
30
0
70
128
71
-289
72
306
73
305
0
VERTEX
8
BAI
10
0
20
0
30
0
70
128
71
290
72
291
73
-307
0
VERTEX
8
BAI
10
0
20
0
30
0
70
128
71
-290
72
307
73
306
0
VERTEX
8
BAI
10
0
20
0
30
0
70
128
71
291
72
292
73
-308
0
VERTEX
8
BAI
10
0
20
0
30
0
70
128
71
-291
72
308
73
307
0
VERTEX
8
BAI
10
0
20
0
30
0
70
128
71
292
72
293
73
-309
0
VERTEX
8
BAI
10
0
20
0
30
0
70
128
71
-292
72
309
73
308
0
VERTEX
8
BAI
10
0
20
0
30
0
70
128
71
293
72
294
73
-310
0
VERTEX
8
BAI
10
0
20
0
30
0
70
128
71
-293
72
310
73
309
0
VERTEX
8
BAI
10
0
20
0
30
0
70
128
71
294
72
295
73
-311
0
VERTEX
8
BAI
10
0
20
0
30
0
70
128
71
-294
72
311
73
310
0
VERTEX
8
BAI
10
0
20
0
30
0
70
128
71
295
72
296
73
-312
0
VERTEX
8
BAI
10
0
20
0
30
0
70
128
71
-295
72
312
73
311
0
VERTEX
8
BAI
10
0
20
0
30
0
70
128
71
296
72
297
73
-313
0
VERTEX
8
BAI
10
0
20
0
30
0
70
128
71
-296
72
313
73
312
0
VERTEX
8
BAI
10
0
20
0
30
0
70
128
71
297
72
298
73
-314
0
VERTEX
8
BAI
10
0
20
0
30
0
70
128
71
-297
72
314
73
313
0
VERTEX
8
BAI
10
0
20
0
30
0
70
128
71
298
72
299
73
-315
0
VERTEX
8
BAI
10
0
20
0
30
0
70
128
71
-298
72
315
73
314
0
VERTEX
8
BAI
10
0
20
0
30
0
70
128
71
299
72
300
73
-316
0
VERTEX
8
BAI
10
0
20
0
30
0
70
128
71
-299
72
316
73
315
0
VERTEX
8
BAI
10
0
20
0
30
0
70
128
71
300
72
301
73
-317
0
VERTEX
8
BAI
10
0
20
0
30
0
70
128
71
-300
72
317
73
316
0
VERTEX
8
BAI
10
0
20
0
30
0
70
128
71
301
72
302
73
-318
0
VERTEX
8
BAI
10
0
20
0
30
0
70
128
71
-301
72
318
73
317
0
VERTEX
8
BAI
10
0
20
0
30
0
70
128
71
302
72
303
73
-319
0
VERTEX
8
BAI
10
0
20
0
30
0
70
128
71
-302
72
319
73
318
0
VERTEX
8
BAI
10
0
20
0
30
0
70
128
71
303
72
304
73
-320
0
VERTEX
8
BAI
10
0
20
0
30
0
70
128
71
-303
72
320
73
319
0
VERTEX
8
BAI
10
0
20
0
30
0
70
128
71
304
72
289
73
-305
0
VERTEX
8
BAI
10
0
20
0
30
0
70
128
71
-304
72
305
73
320
0
VERTEX
8
BAI
10
0
20
0
30
0
70
128
71
305
72
306
73
-2
0
VERTEX
8
BAI
10
0
20
0
30
0
70
128
71
-305
72
2
73
1
0
VERTEX
8
BAI
10
0
20
0
30
0
70
128
71
306
72
307
73
-3
0
VERTEX
8
BAI
10
0
20
0
30
0
70
128
71
-306
72
3
73
2
0
VERTEX
8
BAI
10
0
20
0
30
0
70
128
71
307
72
308
73
-4
0
VERTEX
8
BAI
10
0
20
0
30
0
70
128
71
-307
72
4
73
3
0
VERTEX
8
BAI
10
0
20
0
30
0
70
128
71
308
72
309
73
-5
0
VERTEX
8
BAI
10
0
20
0
30
0
70
128
71
-308
72
5
73
4
0
VERTEX
8
BAI
10
0
20
0
30
0
70
128
71
309
72
310
73
-6
0
VERTEX
8
BAI
10
0
20
0
30
0
70
128
71
-309
72
6
73
5
0
VERTEX
8
BAI
10
0
20
0
30
0
70
128
71
310
72
311
73
-7
0
VERTEX
8
BAI
10
0
20
0
30
0
70
128
71
-310
72
7
73
6
0
VERTEX
8
BAI
10
0
20
0
30
0
70
128
71
311
72
312
73
-8
0
VERTEX
8
BAI
10
0
20
0
30
0
70
128
71
-311
72
8
73
7
0
VERTEX
8
BAI
10
0
20
0
30
0
70
128
71
312
72
313
73
-9
0
VERTEX
8
BAI
10
0
20
0
30
0
70
128
71
-312
72
9
73
8
0
VERTEX
8
BAI
10
0
20
0
30
0
70
128
71
313
72
314
73
-10
0
VERTEX
8
BAI
10
0
20
0
30
0
70
128
71
-313
72
10
73
9
0
VERTEX
8
BAI
10
0
20
0
30
0
70
128
71
314
72
315
73
-11
0
VERTEX
8
BAI
10
0
20
0
30
0
70
128
71
-314
72
11
73
10
0
VERTEX
8
BAI
10
0
20
0
30
0
70
128
71
315
72
316
73
-12
0
VERTEX
8
BAI
10
0
20
0
30
0
70
128
71
-315
72
12
73
11
0
VERTEX
8
BAI
10
0
20
0
30
0
70
128
71
316
72
317
73
-13
0
VERTEX
8
BAI
10
0
20
0
30
0
70
128
71
-316
72
13
73
12
0
VERTEX
8
BAI
10
0
20
0
30
0
70
128
71
317
72
318
73
-14
0
VERTEX
8
BAI
10
0
20
0
30
0
70
128
71
-317
72
14
73
13
0
VERTEX
8
BAI
10
0
20
0
30
0
70
128
71
318
72
319
73
-15
0
VERTEX
8
BAI
10
0
20
0
30
0
70
128
71
-318
72
15
73
14
0
VERTEX
8
BAI
10
0
20
0
30
0
70
128
71
319
72
320
73
-16
0
VERTEX
8
BAI
10
0
20
0
30
0
70
128
71
-319
72
16
73
15
0
VERTEX
8
BAI
10
0
20
0
30
0
70
128
71
320
72
305
73
-1
0
VERTEX
8
BAI
10
0
20
0
30
0
70
128
71
-320
72
1
73
16
0
SEQEND
8
BAI
0
POLYLINE
8
I
66
1
70
64
71
232
72
456
62
52
0
VERTEX
8
I
10
40.000000
20
250.000000
30
-64.389862
70
192
0
VERTEX
8
I
10
36.590542
20
249.963974
30
-62.976257
70
192
0
VERTEX
8
I
10
35.177025
20
249.949036
30
-59.566620
70
192
0
VERTEX
8
I
10
36.590542
20
249.963974
30
-56.156982
70
192
0
VERTEX
8
I
10
40.000000
20
250.000000
30
-54.743378
70
192
0
VERTEX
8
I
10
43.409458
20
250.036026
30
-56.156982
70
192
0
VERTEX
8
I
10
44.822975
20
250.050964
30
-59.566620
70
192
0
VERTEX
8
I
10
43.409458
20
250.036026
30
-62.976257
70
192
0
VERTEX
8
I
10
39.909138
20
258.599365
30
-64.389862
70
192
0
VERTEX
8
I
10
36.499870
20
258.650421
30
-62.976257
70
192
0
VERTEX
8
I
10
35.086433
20
258.671600
30
-59.566620
70
192
0
VERTEX
8
I
10
36.499870
20
258.650421
30
-56.156982
70
192
0
VERTEX
8
I
10
39.909138
20
258.599365
30
-54.743378
70
192
0
VERTEX
8
I
10
43.318405
20
258.548309
30
-56.156982
70
192
0
VERTEX
8
I
10
44.731842
20
258.527130
30
-59.566620
70
192
0
VERTEX
8
I
10
43.318405
20
258.548309
30
-62.976257
70
192
0
VERTEX
8
I
10
40.820351
20
281.073517
30
-64.389862
70
192
0
VERTEX
8
I
10
37.421284
20
281.341919
30
-62.976261
70
192
0
VERTEX
8
I
10
36.012074
20
281.453217
30
-59.566624
70
192
0
VERTEX
8
I
10
37.421284
20
281.341919
30
-56.156986
70
192
0
VERTEX
8
I
10
40.820351
20
281.073517
30
-54.743382
70
192
0
VERTEX
8
I
10
44.219418
20
280.805115
30
-56.156986
70
192
0
VERTEX
8
I
10
45.628628
20
280.693817
30
-59.566624
70
192
0
VERTEX
8
I
10
44.219418
20
280.805115
30
-62.976261
70
192
0
VERTEX
8
I
10
44.509342
20
312.436584
30
-64.389870
70
192
0
VERTEX
8
I
10
41.150791
20
313.024658
30
-62.976265
70
192
0
VERTEX
8
I
10
39.758377
20
313.268463
30
-59.566628
70
192
0
VERTEX
8
I
10
41.150791
20
313.024658
30
-56.156990
70
192
0
VERTEX
8
I
10
44.509342
20
312.436584
30
-54.743385
70
192
0
VERTEX
8
I
10
47.867893
20
311.848511
30
-56.156990
70
192
0
VERTEX
8
I
10
49.260307
20
311.604706
30
-59.566628
70
192
0
VERTEX
8
I
10
47.867893
20
311.848511
30
-62.976265
70
192
0
VERTEX
8
I
10
52.751816
20
347.702606
30
-64.389870
70
192
0
VERTEX
8
I
10
49.511288
20
348.763123
30
-62.976265
70
192
0
VERTEX
8
I
10
48.167805
20
349.202789
30
-59.566628
70
192
0
VERTEX
8
I
10
49.511288
20
348.763123
30
-56.156990
70
192
0
VERTEX
8
I
10
52.751816
20
347.702606
30
-54.743385
70
192
0
VERTEX
8
I
10
55.992344
20
346.642090
30
-56.156990
70
192
0
VERTEX
8
I
10
57.335827
20
346.202423
30
-59.566628
70
192
0
VERTEX
8
I
10
55.992344
20
346.642090
30
-62.976265
70
192
0
VERTEX
8
I
10
67.323471
20
381.885712
30
-64.389877
70
192
0
VERTEX
8
I
10
64.400475
20
383.641205
30
-62.976269
70
192
0
VERTEX
8
I
10
63.188637
20
384.369019
30
-59.566631
70
192
0
VERTEX
8
I
10
64.400475
20
383.641205
30
-56.156994
70
192
0
VERTEX
8
I
10
67.323471
20
381.885712
30
-54.743389
70
192
0
VERTEX
8
I
10
70.246468
20
380.130219
30
-56.156994
70
192
0
VERTEX
8
I
10
71.458305
20
379.402405
30
-59.566631
70
192
0
VERTEX
8
I
10
70.246468
20
380.130219
30
-62.976269
70
192
0
VERTEX
8
I
10
90.000000
20
410.000000
30
-64.389877
70
192
0
VERTEX
8
I
10
87.509338
20
412.328583
30
-62.976273
70
192
0
VERTEX
8
I
10
86.476738
20
413.293976
30
-59.566635
70
192
0
VERTEX
8
I
10
87.509338
20
412.328583
30
-56.156998
70
192
0
VERTEX
8
I
10
90.000000
20
410.000000
30
-54.743393
70
192
0
VERTEX
8
I
10
92.490662
20
407.671417
30
-56.156998
70
192
0
VERTEX
8
I
10
93.523262
20
406.706024
30
-59.566635
70
192
0
VERTEX
8
I
10
92.490662
20
407.671417
30
-62.976273
70
192
0
VERTEX
8
I
10
113.580521
20
431.791046
30
-64.389877
70
192
0
VERTEX
8
I
10
111.124107
20
434.155731
30
-62.976273
70
192
0
VERTEX
8
I
10
110.105713
20
435.136108
30
-59.566635
70
192
0
VERTEX
8
I
10
111.124107
20
434.155731
30
-56.156998
70
192
0
VERTEX
8
I
10
113.580521
20
431.791046
30
-54.743393
70
192
0
VERTEX
8
I
10
116.036934
20
429.426361
30
-56.156998
70
192
0
VERTEX
8
I
10
117.055328
20
428.445984
30
-59.566635
70
192
0
VERTEX
8
I
10
116.036934
20
429.426361
30
-62.976273
70
192
0
VERTEX
8
I
10
129.029831
20
449.840790
30
-64.389877
70
192
0
VERTEX
8
I
10
126.163803
20
451.687836
30
-62.976276
70
192
0
VERTEX
8
I
10
124.975578
20
452.453583
30
-59.566639
70
192
0
VERTEX
8
I
10
126.163803
20
451.687836
30
-56.157001
70
192
0
VERTEX
8
I
10
129.029831
20
449.840790
30
-54.743397
70
192
0
VERTEX
8
I
10
131.895859
20
447.993744
30
-56.157001
70
192
0
VERTEX
8
I
10
133.084076
20
447.227997
30
-59.566639
70
192
0
VERTEX
8
I
10
131.895859
20
447.993744
30
-62.976276
70
192
0
VERTEX
8
I
10
135.372177
20
463.417908
30
-64.389885
70
192
0
VERTEX
8
I
10
131.962646
20
463.446716
30
-62.976276
70
192
0
VERTEX
8
I
10
130.549103
20
463.458679
30
-59.566639
70
192
0
VERTEX
8
I
10
131.962646
20
463.446716
30
-56.157001
70
192
0
VERTEX
8
I
10
135.372177
20
463.417908
30
-54.743397
70
192
0
VERTEX
8
I
10
138.781708
20
463.389099
30
-56.157001
70
192
0
VERTEX
8
I
10
140.195251
20
463.377136
30
-59.566639
70
192
0
VERTEX
8
I
10
138.781708
20
463.389099
30
-62.976276
70
192
0
VERTEX
8
I
10
131.631821
20
471.791046
30
-64.389885
70
192
0
VERTEX
8
I
10
129.549469
20
469.091125
30
-62.976276
70
192
0
VERTEX
8
I
10
128.686142
20
467.971802
30
-59.566639
70
192
0
VERTEX
8
I
10
129.549469
20
469.091125
30
-56.157001
70
192
0
VERTEX
8
I
10
131.631821
20
471.791046
30
-54.743408
70
192
0
VERTEX
8
I
10
133.714172
20
474.490967
30
-56.157001
70
192
0
VERTEX
8
I
10
134.577499
20
475.610291
30
-59.566639
70
192
0
VERTEX
8
I
10
133.714172
20
474.490967
30
-62.976276
70
192
0
VERTEX
8
I
10
116.833000
20
474.228851
30
-64.389885
70
192
0
VERTEX
8
I
10
116.821144
20
470.819214
30
-62.976276
70
192
0
VERTEX
8
I
10
116.816223
20
469.405640
30
-59.566639
70
192
0
VERTEX
8
I
10
116.821144
20
470.819214
30
-56.157001
70
192
0
VERTEX
8
I
10
116.833000
20
474.228851
30
-54.743397
70
192
0
VERTEX
8
I
10
116.844856
20
477.638489
30
-56.157001
70
192
0
VERTEX
8
I
10
116.849777
20
479.052063
30
-59.566639
70
192
0
VERTEX
8
I
10
116.844856
20
477.638489
30
-62.976276
70
192
0
VERTEX
8
I
10
90.000000
20
470.000000
30
-64.389885
70
192
0
VERTEX
8
I
10
90.201157
20
466.596283
30
-62.976276
70
192
0
VERTEX
8
I
10
90.284561
20
465.185150
30
-59.566639
70
192
0
VERTEX
8
I
10
90.201157
20
466.596283
30
-56.157001
70
192
0
VERTEX
8
I
10
90.000000
20
470.000000
30
-54.743397
70
192
0
VERTEX
8
I
10
89.798843
20
473.403717
30
-56.157001
70
192
0
VERTEX
8
I
10
89.715439
20
474.814850
30
-59.566639
70
192
0
VERTEX
8
I
10
89.798843
20
473.403717
30
-62.976276
70
192
0
VERTEX
8
I
10
57.439728
20
471.245880
30
-64.389885
70
192
0
VERTEX
8
I
10
56.562706
20
467.950958
30
-62.976276
70
192
0
VERTEX
8
I
10
56.199104
20
466.584930
30
-59.566639
70
192
0
VERTEX
8
I
10
56.562710
20
467.950958
30
-56.157001
70
192
0
VERTEX
8
I
10
57.439728
20
471.245880
30
-54.743397
70
192
0
VERTEX
8
I
10
58.316750
20
474.540802
30
-56.157001
70
192
0
VERTEX
8
I
10
58.680351
20
475.906830
30
-59.566639
70
192
0
VERTEX
8
I
10
58.316746
20
474.540802
30
-62.976276
70
192
0
VERTEX
8
I
10
28.485374
20
486.394714
30
-64.389885
70
192
0
VERTEX
8
I
10
26.436691
20
483.669159
30
-62.976280
70
192
0
VERTEX
8
I
10
25.587334
20
482.539185
30
-59.566639
70
192
0
VERTEX
8
I
10
26.436691
20
483.669159
30
-56.157005
70
192
0
VERTEX
8
I
10
28.485374
20
486.394714
30
-54.743401
70
192
0
VERTEX
8
I
10
30.534058
20
489.120270
30
-56.157005
70
192
0
VERTEX
8
I
10
31.383411
20
490.250244
30
-59.566643
70
192
0
VERTEX
8
I
10
30.534054
20
489.120270
30
-62.976280
70
192
0
VERTEX
8
I
10
6.700584
20
509.145538
30
-64.389885
70
192
0
VERTEX
8
I
10
3.881123
20
507.228149
30
-62.976280
70
192
0
VERTEX
8
I
10
2.712212
20
506.433228
30
-59.566643
70
192
0
VERTEX
8
I
10
3.881123
20
507.228149
30
-56.157005
70
192
0
VERTEX
8
I
10
6.700584
20
509.145538
30
-54.743401
70
192
0
VERTEX
8
I
10
9.520050
20
511.062927
30
-56.157005
70
192
0
VERTEX
8
I
10
10.688961
20
511.857849
30
-59.566643
70
192
0
VERTEX
8
I
10
9.520046
20
511.062927
30
-62.976280
70
192
0
VERTEX
8
I
10
-4.350998
20
533.197388
30
-64.389885
70
192
0
VERTEX
8
I
10
-7.731438
20
532.752014
30
-62.976284
70
192
0
VERTEX
8
I
10
-9.132927
20
532.567383
30
-59.566647
70
192
0
VERTEX
8
I
10
-7.731438
20
532.752014
30
-56.157009
70
192
0
VERTEX
8
I
10
-4.350998
20
533.197388
30
-54.743404
70
192
0
VERTEX
8
I
10
-0.970566
20
533.642761
30
-56.157009
70
192
0
VERTEX
8
I
10
0.430923
20
533.827393
30
-59.566647
70
192
0
VERTEX
8
I
10
-0.970566
20
533.642761
30
-62.976284
70
192
0
VERTEX
8
I
10
-1.105743
20
552.249146
30
-64.389893
70
192
0
VERTEX
8
I
10
-3.727180
20
554.429443
30
-62.976284
70
192
0
VERTEX
8
I
10
-4.814003
20
555.333374
30
-59.566647
70
192
0
VERTEX
8
I
10
-3.727180
20
554.429443
30
-56.157009
70
192
0
VERTEX
8
I
10
-1.105743
20
552.249146
30
-54.743404
70
192
0
VERTEX
8
I
10
1.515701
20
550.068848
30
-56.157009
70
192
0
VERTEX
8
I
10
2.602520
20
549.164917
30
-59.566647
70
192
0
VERTEX
8
I
10
1.515701
20
550.068848
30
-62.976284
70
192
0
VERTEX
8
I
10
20.000000
20
560.000000
30
-64.389893
70
192
0
VERTEX
8
I
10
19.317886
20
563.340698
30
-62.976284
70
192
0
VERTEX
8
I
10
19.035088
20
564.725769
30
-59.566647
70
192
0
VERTEX
8
I
10
19.317883
20
563.340698
30
-56.157009
70
192
0
VERTEX
8
I
10
20.000000
20
560.000000
30
-54.743404
70
192
0
VERTEX
8
I
10
20.682114
20
556.659302
30
-56.157009
70
192
0
VERTEX
8
I
10
20.964912
20
555.274231
30
-59.566647
70
192
0
VERTEX
8
I
10
20.682117
20
556.659302
30
-62.976284
70
192
0
VERTEX
8
I
10
49.090649
20
561.481506
30
-64.389893
70
192
0
VERTEX
8
I
10
48.749619
20
564.874084
30
-62.976284
70
192
0
VERTEX
8
I
10
48.608234
20
566.280579
30
-59.566647
70
192
0
VERTEX
8
I
10
48.749619
20
564.874084
30
-56.157009
70
192
0
VERTEX
8
I
10
49.090649
20
561.481506
30
-54.743404
70
192
0
VERTEX
8
I
10
49.431679
20
558.088928
30
-56.157009
70
192
0
VERTEX
8
I
10
49.573063
20
556.682434
30
-59.566647
70
192
0
VERTEX
8
I
10
49.431679
20
558.088928
30
-62.976284
70
192
0
VERTEX
8
I
10
73.680473
20
565.185181
30
-64.389893
70
192
0
VERTEX
8
I
10
73.021873
20
568.530640
30
-62.976284
70
192
0
VERTEX
8
I
10
72.748825
20
569.917603
30
-59.566650
70
192
0
VERTEX
8
I
10
73.021873
20
568.530640
30
-56.157009
70
192
0
VERTEX
8
I
10
73.680473
20
565.185181
30
-54.743404
70
192
0
VERTEX
8
I
10
74.339073
20
561.839722
30
-56.157009
70
192
0
VERTEX
8
I
10
74.612122
20
560.452759
30
-59.566647
70
192
0
VERTEX
8
I
10
74.339073
20
561.839722
30
-62.976284
70
192
0
VERTEX
8
I
10
93.417900
20
570.000000
30
-64.389893
70
192
0
VERTEX
8
I
10
92.476967
20
573.277222
30
-62.976288
70
192
0
VERTEX
8
I
10
92.086868
20
574.635925
30
-59.566650
70
192
0
VERTEX
8
I
10
92.476967
20
573.277222
30
-56.157013
70
192
0
VERTEX
8
I
10
93.417900
20
570.000000
30
-54.743408
70
192
0
VERTEX
8
I
10
94.358833
20
566.722778
30
-56.157009
70
192
0
VERTEX
8
I
10
94.748932
20
565.364075
30
-59.566647
70
192
0
VERTEX
8
I
10
94.358833
20
566.722778
30
-62.976284
70
192
0
VERTEX
8
I
10
107.951347
20
574.814819
30
-64.389893
70
192
0
VERTEX
8
I
10
106.764313
20
578.011169
30
-62.976288
70
192
0
VERTEX
8
I
10
106.272179
20
579.336365
30
-59.566650
70
192
0
VERTEX
8
I
10
106.764313
20
578.011169
30
-56.157013
70
192
0
VERTEX
8
I
10
107.951347
20
574.814819
30
-54.743408
70
192
0
VERTEX
8
I
10
109.138382
20
571.618469
30
-56.157013
70
192
0
VERTEX
8
I
10
109.630516
20
570.293274
30
-59.566650
70
192
0
VERTEX
8
I
10
109.138382
20
571.618469
30
-62.976288
70
192
0
VERTEX
8
I
10
116.929237
20
578.518494
30
-64.389893
70
192
0
VERTEX
8
I
10
115.537712
20
581.631287
30
-62.976288
70
192
0
VERTEX
8
I
10
114.960808
20
582.921814
30
-59.566650
70
192
0
VERTEX
8
I
10
115.537712
20
581.631287
30
-56.157013
70
192
0
VERTEX
8
I
10
116.929237
20
578.518494
30
-54.743408
70
192
0
VERTEX
8
I
10
118.320763
20
575.405701
30
-56.157013
70
192
0
VERTEX
8
I
10
118.897667
20
574.115173
30
-59.566650
70
192
0
VERTEX
8
I
10
118.320763
20
575.405701
30
-62.976288
70
192
0
VERTEX
8
I
10
120.000000
20
580.000000
30
-64.389893
70
192
0
VERTEX
8
I
10
118.518425
20
583.070923
30
-62.976288
70
192
0
VERTEX
8
I
10
117.904175
20
584.344116
30
-59.566650
70
192
0
VERTEX
8
I
10
118.518417
20
583.070923
30
-56.157013
70
192
0
VERTEX
8
I
10
120.000000
20
580.000000
30
-54.743408
70
192
0
VERTEX
8
I
10
121.481575
20
576.929077
30
-56.157013
70
192
0
VERTEX
8
I
10
122.095825
20
575.655884
30
-59.566650
70
192
0
VERTEX
8
I
10
121.481583
20
576.929077
30
-62.976288
70
192
0
VERTEX
8
I
10
112.727676
20
585.965088
30
-52.674412
70
192
0
VERTEX
8
I
10
125.052094
20
590.450806
30
-52.674412
70
192
0
VERTEX
8
I
10
127.312737
20
589.182068
30
-52.674412
70
192
0
VERTEX
8
I
10
131.912704
20
576.543762
30
-52.674412
70
192
0
VERTEX
8
I
10
130.986145
20
574.147156
30
-52.674412
70
192
0
VERTEX
8
I
10
118.553947
20
569.622192
30
-52.674408
70
192
0
VERTEX
8
I
10
116.295067
20
570.858643
30
-52.674412
70
192
0
VERTEX
8
I
10
111.776993
20
583.271912
30
-52.674412
70
192
0
VERTEX
8
I
10
111.033234
20
586.758362
30
-54.306816
70
192
0
VERTEX
8
I
10
125.863876
20
592.156311
30
-54.306816
70
192
0
VERTEX
8
I
10
128.550217
20
590.723022
30
-54.306816
70
192
0
VERTEX
8
I
10
133.852753
20
576.154419
30
-54.306824
70
192
0
VERTEX
8
I
10
132.704285
20
573.362427
30
-54.306824
70
192
0
VERTEX
8
I
10
117.743950
20
567.917358
30
-54.306824
70
192
0
VERTEX
8
I
10
115.059196
20
569.313171
30
-54.306820
70
192
0
VERTEX
8
I
10
109.851051
20
583.622437
30
-54.306824
70
192
0
VERTEX
8
I
10
111.033234
20
586.758362
30
-65.034119
70
192
0
VERTEX
8
I
10
125.863876
20
592.156311
30
-65.034119
70
192
0
VERTEX
8
I
10
128.550217
20
590.723022
30
-65.034119
70
192
0
VERTEX
8
I
10
133.852753
20
576.154419
30
-65.034119
70
192
0
VERTEX
8
I
10
132.704285
20
573.362427
30
-65.034119
70
192
0
VERTEX
8
I
10
117.743950
20
567.917358
30
-65.034119
70
192
0
VERTEX
8
I
10
115.059196
20
569.313171
30
-65.034119
70
192
0
VERTEX
8
I
10
109.851051
20
583.622437
30
-65.034119
70
192
0
VERTEX
8
I
10
112.727676
20
585.965088
30
-66.666534
70
192
0
VERTEX
8
I
10
125.052094
20
590.450806
30
-66.666534
70
192
0
VERTEX
8
I
10
127.312737
20
589.182068
30
-66.666534
70
192
0
VERTEX
8
I
10
131.912704
20
576.543762
30
-66.666534
70
192
0
VERTEX
8
I
10
130.986145
20
574.147156
30
-66.666534
70
192
0
VERTEX
8
I
10
118.553947
20
569.622192
30
-66.666534
70
192
0
VERTEX
8
I
10
116.295067
20
570.858643
30
-66.666534
70
192
0
VERTEX
8
I
10
111.776993
20
583.271912
30
-66.666534
70
192
0
VERTEX
8
I
10
0
20
0
30
0
70
128
71
6
72
5
73
-4
0
VERTEX
8
I
10
0
20
0
30
0
70
128
71
-6
72
4
73
-3
0
VERTEX
8
I
10
0
20
0
30
0
70
128
71
-6
72
3
73
-2
0
VERTEX
8
I
10
0
20
0
30
0
70
128
71
-6
72
2
73
-1
0
VERTEX
8
I
10
0
20
0
30
0
70
128
71
-6
72
1
73
-8
0
VERTEX
8
I
10
0
20
0
30
0
70
128
71
-6
72
8
73
7
0
VERTEX
8
I
10
0
20
0
30
0
70
128
71
1
72
2
73
-10
0
VERTEX
8
I
10
0
20
0
30
0
70
128
71
-1
72
10
73
9
0
VERTEX
8
I
10
0
20
0
30
0
70
128
71
2
72
3
73
-11
0
VERTEX
8
I
10
0
20
0
30
0
70
128
71
-2
72
11
73
10
0
VERTEX
8
I
10
0
20
0
30
0
70
128
71
3
72
4
73
-12
0
VERTEX
8
I
10
0
20
0
30
0
70
128
71
-3
72
12
73
11
0
VERTEX
8
I
10
0
20
0
30
0
70
128
71
4
72
5
73
-13
0
VERTEX
8
I
10
0
20
0
30
0
70
128
71
-4
72
13
73
12
0
VERTEX
8
I
10
0
20
0
30
0
70
128
71
5
72
6
73
-14
0
VERTEX
8
I
10
0
20
0
30
0
70
128
71
-5
72
14
73
13
0
VERTEX
8
I
10
0
20
0
30
0
70
128
71
6
72
7
73
-15
0
VERTEX
8
I
10
0
20
0
30
0
70
128
71
-6
72
15
73
14
0
VERTEX
8
I
10
0
20
0
30
0
70
128
71
7
72
8
73
-16
0
VERTEX
8
I
10
0
20
0
30
0
70
128
71
-7
72
16
73
15
0
VERTEX
8
I
10
0
20
0
30
0
70
128
71
8
72
1
73
-9
0
VERTEX
8
I
10
0
20
0
30
0
70
128
71
-8
72
9
73
16
0
VERTEX
8
I
10
0
20
0
30
0
70
128
71
9
72
10
73
-18
0
VERTEX
8
I
10
0
20
0
30
0
70
128
71
-9
72
18
73
17
0
VERTEX
8
I
10
0
20
0
30
0
70
128
71
10
72
11
73
-19
0
VERTEX
8
I
10
0
20
0
30
0
70
128
71
-10
72
19
73
18
0
VERTEX
8
I
10
0
20
0
30
0
70
128
71
11
72
12
73
-20
0
VERTEX
8
I
10
0
20
0
30
0
70
128
71
-11
72
20
73
19
0
VERTEX
8
I
10
0
20
0
30
0
70
128
71
12
72
13
73
-21
0
VERTEX
8
I
10
0
20
0
30
0
70
128
71
-12
72
21
73
20
0
VERTEX
8
I
10
0
20
0
30
0
70
128
71
13
72
14
73
-22
0
VERTEX
8
I
10
0
20
0
30
0
70
128
71
-13
72
22
73
21
0
VERTEX
8
I
10
0
20
0
30
0
70
128
71
14
72
15
73
-23
0
VERTEX
8
I
10
0
20
0
30
0
70
128
71
-14
72
23
73
22
0
VERTEX
8
I
10
0
20
0
30
0
70
128
71
15
72
16
73
-24
0
VERTEX
8
I
10
0
20
0
30
0
70
128
71
-15
72
24
73
23
0
VERTEX
8
I
10
0
20
0
30
0
70
128
71
16
72
9
73
-17
0
VERTEX
8
I
10
0
20
0
30
0
70
128
71
-16
72
17
73
24
0
VERTEX
8
I
10
0
20
0
30
0
70
128
71
17
72
18
73
-26
0
VERTEX
8
I
10
0
20
0
30
0
70
128
71
-17
72
26
73
25
0
VERTEX
8
I
10
0
20
0
30
0
70
128
71
18
72
19
73
-27
0
VERTEX
8
I
10
0
20
0
30
0
70
128
71
-18
72
27
73
26
0
VERTEX
8
I
10
0
20
0
30
0
70
128
71
19
72
20
73
-28
0
VERTEX
8
I
10
0
20
0
30
0
70
128
71
-19
72
28
73
27
0
VERTEX
8
I
10
0
20
0
30
0
70
128
71
20
72
21
73
-29
0
VERTEX
8
I
10
0
20
0
30
0
70
128
71
-20
72
29
73
28
0
VERTEX
8
I
10
0
20
0
30
0
70
128
71
21
72
22
73
-30
0
VERTEX
8
I
10
0
20
0
30
0
70
128
71
-21
72
30
73
29
0
VERTEX
8
I
10
0
20
0
30
0
70
128
71
22
72
23
73
-31
0
VERTEX
8
I
10
0
20
0
30
0
70
128
71
-22
72
31
73
30
0
VERTEX
8
I
10
0
20
0
30
0
70
128
71
23
72
24
73
-32
0
VERTEX
8
I
10
0
20
0
30
0
70
128
71
-23
72
32
73
31
0
VERTEX
8
I
10
0
20
0
30
0
70
128
71
24
72
17
73
-25
0
VERTEX
8
I
10
0
20
0
30
0
70
128
71
-24
72
25
73
32
0
VERTEX
8
I
10
0
20
0
30
0
70
128
71
25
72
26
73
-34
0
VERTEX
8
I
10
0
20
0
30
0
70
128
71
-25
72
34
73
33
0
VERTEX
8
I
10
0
20
0
30
0
70
128
71
26
72
27
73
-35
0
VERTEX
8
I
10
0
20
0
30
0
70
128
71
-26
72
35
73
34
0
VERTEX
8
I
10
0
20
0
30
0
70
128
71
27
72
28
73
-36
0
VERTEX
8
I
10
0
20
0
30
0
70
128
71
-27
72
36
73
35
0
VERTEX
8
I
10
0
20
0
30
0
70
128
71
28
72
29
73
-37
0
VERTEX
8
I
10
0
20
0
30
0
70
128
71
-28
72
37
73
36
0
VERTEX
8
I
10
0
20
0
30
0
70
128
71
29
72
30
73
-38
0
VERTEX
8
I
10
0
20
0
30
0
70
128
71
-29
72
38
73
37
0
VERTEX
8
I
10
0
20
0
30
0
70
128
71
30
72
31
73
-39
0
VERTEX
8
I
10
0
20
0
30
0
70
128
71
-30
72
39
73
38
0
VERTEX
8
I
10
0
20
0
30
0
70
128
71
31
72
32
73
-40
0
VERTEX
8
I
10
0
20
0
30
0
70
128
71
-31
72
40
73
39
0
VERTEX
8
I
10
0
20
0
30
0
70
128
71
32
72
25
73
-33
0
VERTEX
8
I
10
0
20
0
30
0
70
128
71
-32
72
33
73
40
0
VERTEX
8
I
10
0
20
0
30
0
70
128
71
33
72
34
73
-42
0
VERTEX
8
I
10
0
20
0
30
0
70
128
71
-33
72
42
73
41
0
VERTEX
8
I
10
0
20
0
30
0
70
128
71
34
72
35
73
-43
0
VERTEX
8
I
10
0
20
0
30
0
70
128
71
-34
72
43
73
42
0
VERTEX
8
I
10
0
20
0
30
0
70
128
71
35
72
36
73
-44
0
VERTEX
8
I
10
0
20
0
30
0
70
128
71
-35
72
44
73
43
0
VERTEX
8
I
10
0
20
0
30
0
70
128
71
36
72
37
73
-45
0
VERTEX
8
I
10
0
20
0
30
0
70
128
71
-36
72
45
73
44
0
VERTEX
8
I
10
0
20
0
30
0
70
128
71
37
72
38
73
-46
0
VERTEX
8
I
10
0
20
0
30
0
70
128
71
-37
72
46
73
45
0
VERTEX
8
I
10
0
20
0
30
0
70
128
71
38
72
39
73
-47
0
VERTEX
8
I
10
0
20
0
30
0
70
128
71
-38
72
47
73
46
0
VERTEX
8
I
10
0
20
0
30
0
70
128
71
39
72
40
73
-48
0
VERTEX
8
I
10
0
20
0
30
0
70
128
71
-39
72
48
73
47
0
VERTEX
8
I
10
0
20
0
30
0
70
128
71
40
72
33
73
-41
0
VERTEX
8
I
10
0
20
0
30
0
70
128
71
-40
72
41
73
48
0
VERTEX
8
I
10
0
20
0
30
0
70
128
71
41
72
42
73
-50
0
VERTEX
8
I
10
0
20
0
30
0
70
128
71
-41
72
50
73
49
0
VERTEX
8
I
10
0
20
0
30
0
70
128
71
42
72
43
73
-51
0
VERTEX
8
I
10
0
20
0
30
0
70
128
71
-42
72
51
73
50
0
VERTEX
8
I
10
0
20
0
30
0
70
128
71
43
72
44
73
-52
0
VERTEX
8
I
10
0
20
0
30
0
70
128
71
-43
72
52
73
51
0
VERTEX
8
I
10
0
20
0
30
0
70
128
71
44
72
45
73
-53
0
VERTEX
8
I
10
0
20
0
30
0
70
128
71
-44
72
53
73
52
0
VERTEX
8
I
10
0
20
0
30
0
70
128
71
45
72
46
73
-54
0
VERTEX
8
I
10
0
20
0
30
0
70
128
71
-45
72
54
73
53
0
VERTEX
8
I
10
0
20
0
30
0
70
128
71
46
72
47
73
-55
0
VERTEX
8
I
10
0
20
0
30
0
70
128
71
-46
72
55
73
54
0
VERTEX
8
I
10
0
20
0
30
0
70
128
71
47
72
48
73
-56
0
VERTEX
8
I
10
0
20
0
30
0
70
128
71
-47
72
56
73
55
0
VERTEX
8
I
10
0
20
0
30
0
70
128
71
48
72
41
73
-49
0
VERTEX
8
I
10
0
20
0
30
0
70
128
71
-48
72
49
73
56
0
VERTEX
8
I
10
0
20
0
30
0
70
128
71
49
72
50
73
-58
0
VERTEX
8
I
10
0
20
0
30
0
70
128
71
-49
72
58
73
57
0
VERTEX
8
I
10
0
20
0
30
0
70
128
71
50
72
51
73
-59
0
VERTEX
8
I
10
0
20
0
30
0
70
128
71
-50
72
59
73
58
0
VERTEX
8
I
10
0
20
0
30
0
70
128
71
51
72
52
73
-60
0
VERTEX
8
I
10
0
20
0
30
0
70
128
71
-51
72
60
73
59
0
VERTEX
8
I
10
0
20
0
30
0
70
128
71
52
72
53
73
-61
0
VERTEX
8
I
10
0
20
0
30
0
70
128
71
-52
72
61
73
60
0
VERTEX
8
I
10
0
20
0
30
0
70
128
71
53
72
54
73
-62
0
VERTEX
8
I
10
0
20
0
30
0
70
128
71
-53
72
62
73
61
0
VERTEX
8
I
10
0
20
0
30
0
70
128
71
54
72
55
73
-63
0
VERTEX
8
I
10
0
20
0
30
0
70
128
71
-54
72
63
73
62
0
VERTEX
8
I
10
0
20
0
30
0
70
128
71
55
72
56
73
-64
0
VERTEX
8
I
10
0
20
0
30
0
70
128
71
-55
72
64
73
63
0
VERTEX
8
I
10
0
20
0
30
0
70
128
71
56
72
49
73
-57
0
VERTEX
8
I
10
0
20
0
30
0
70
128
71
-56
72
57
73
64
0
VERTEX
8
I
10
0
20
0
30
0
70
128
71
57
72
58
73
-66
0
VERTEX
8
I
10
0
20
0
30
0
70
128
71
-57
72
66
73
65
0
VERTEX
8
I
10
0
20
0
30
0
70
128
71
58
72
59
73
-67
0
VERTEX
8
I
10
0
20
0
30
0
70
128
71
-58
72
67
73
66
0
VERTEX
8
I
10
0
20
0
30
0
70
128
71
59
72
60
73
-68
0
VERTEX
8
I
10
0
20
0
30
0
70
128
71
-59
72
68
73
67
0
VERTEX
8
I
10
0
20
0
30
0
70
128
71
60
72
61
73
-69
0
VERTEX
8
I
10
0
20
0
30
0
70
128
71
-60
72
69
73
68
0
VERTEX
8
I
10
0
20
0
30
0
70
128
71
61
72
62
73
-70
0
VERTEX
8
I
10
0
20
0
30
0
70
128
71
-61
72
70
73
69
0
VERTEX
8
I
10
0
20
0
30
0
70
128
71
62
72
63
73
-71
0
VERTEX
8
I
10
0
20
0
30
0
70
128
71
-62
72
71
73
70
0
VERTEX
8
I
10
0
20
0
30
0
70
128
71
63
72
64
73
-72
0
VERTEX
8
I
10
0
20
0
30
0
70
128
71
-63
72
72
73
71
0
VERTEX
8
I
10
0
20
0
30
0
70
128
71
64
72
57
73
-65
0
VERTEX
8
I
10
0
20
0
30
0
70
128
71
-64
72
65
73
72
0
VERTEX
8
I
10
0
20
0
30
0
70
128
71
65
72
66
73
-74
0
VERTEX
8
I
10
0
20
0
30
0
70
128
71
-65
72
74
73
73
0
VERTEX
8
I
10
0
20
0
30
0
70
128
71
66
72
67
73
-75
0
VERTEX
8
I
10
0
20
0
30
0
70
128
71
-66
72
75
73
74
0
VERTEX
8
I
10
0
20
0
30
0
70
128
71
67
72
68
73
-76
0
VERTEX
8
I
10
0
20
0
30
0
70
128
71
-67
72
76
73
75
0
VERTEX
8
I
10
0
20
0
30
0
70
128
71
68
72
69
73
-77
0
VERTEX
8
I
10
0
20
0
30
0
70
128
71
-68
72
77
73
76
0
VERTEX
8
I
10
0
20
0
30
0
70
128
71
69
72
70
73
-78
0
VERTEX
8
I
10
0
20
0
30
0
70
128
71
-69
72
78
73
77
0
VERTEX
8
I
10
0
20
0
30
0
70
128
71
70
72
71
73
-79
0
VERTEX
8
I
10
0
20
0
30
0
70
128
71
-70
72
79
73
78
0
VERTEX
8
I
10
0
20
0
30
0
70
128
71
71
72
72
73
-80
0
VERTEX
8
I
10
0
20
0
30
0
70
128
71
-71
72
80
73
79
0
VERTEX
8
I
10
0
20
0
30
0
70
128
71
72
72
65
73
-73
0
VERTEX
8
I
10
0
20
0
30
0
70
128
71
-72
72
73
73
80
0
VERTEX
8
I
10
0
20
0
30
0
70
128
71
73
72
74
73
-82
0
VERTEX
8
I
10
0
20
0
30
0
70
128
71
-73
72
82
73
81
0
VERTEX
8
I
10
0
20
0
30
0
70
128
71
74
72
75
73
-83
0
VERTEX
8
I
10
0
20
0
30
0
70
128
71
-74
72
83
73
82
0
VERTEX
8
I
10
0
20
0
30
0
70
128
71
75
72
76
73
-84
0
VERTEX
8
I
10
0
20
0
30
0
70
128
71
-75
72
84
73
83
0
VERTEX
8
I
10
0
20
0
30
0
70
128
71
76
72
77
73
-85
0
VERTEX
8
I
10
0
20
0
30
0
70
128
71
-76
72
85
73
84
0
VERTEX
8
I
10
0
20
0
30
0
70
128
71
77
72
78
73
-86
0
VERTEX
8
I
10
0
20
0
30
0
70
128
71
-77
72
86
73
85
0
VERTEX
8
I
10
0
20
0
30
0
70
128
71
78
72
79
73
-87
0
VERTEX
8
I
10
0
20
0
30
0
70
128
71
-78
72
87
73
86
0
VERTEX
8
I
10
0
20
0
30
0
70
128
71
79
72
80
73
-88
0
VERTEX
8
I
10
0
20
0
30
0
70
128
71
-79
72
88
73
87
0
VERTEX
8
I
10
0
20
0
30
0
70
128
71
80
72
73
73
-81
0
VERTEX
8
I
10
0
20
0
30
0
70
128
71
-80
72
81
73
88
0
VERTEX
8
I
10
0
20
0
30
0
70
128
71
81
72
82
73
-90
0
VERTEX
8
I
10
0
20
0
30
0
70
128
71
-81
72
90
73
89
0
VERTEX
8
I
10
0
20
0
30
0
70
128
71
82
72
83
73
-91
0
VERTEX
8
I
10
0
20
0
30
0
70
128
71
-82
72
91
73
90
0
VERTEX
8
I
10
0
20
0
30
0
70
128
71
83
72
84
73
-92
0
VERTEX
8
I
10
0
20
0
30
0
70
128
71
-83
72
92
73
91
0
VERTEX
8
I
10
0
20
0
30
0
70
128
71
84
72
85
73
-93
0
VERTEX
8
I
10
0
20
0
30
0
70
128
71
-84
72
93
73
92
0
VERTEX
8
I
10
0
20
0
30
0
70
128
71
85
72
86
73
-94
0
VERTEX
8
I
10
0
20
0
30
0
70
128
71
-85
72
94
73
93
0
VERTEX
8
I
10
0
20
0
30
0
70
128
71
86
72
87
73
-95
0
VERTEX
8
I
10
0
20
0
30
0
70
128
71
-86
72
95
73
94
0
VERTEX
8
I
10
0
20
0
30
0
70
128
71
87
72
88
73
-96
0
VERTEX
8
I
10
0
20
0
30
0
70
128
71
-87
72
96
73
95
0
VERTEX
8
I
10
0
20
0
30
0
70
128
71
88
72
81
73
-89
0
VERTEX
8
I
10
0
20
0
30
0
70
128
71
-88
72
89
73
96
0
VERTEX
8
I
10
0
20
0
30
0
70
128
71
89
72
90
73
-98
0
VERTEX
8
I
10
0
20
0
30
0
70
128
71
-89
72
98
73
97
0
VERTEX
8
I
10
0
20
0
30
0
70
128
71
90
72
91
73
-99
0
VERTEX
8
I
10
0
20
0
30
0
70
128
71
-90
72
99
73
98
0
VERTEX
8
I
10
0
20
0
30
0
70
128
71
91
72
92
73
-100
0
VERTEX
8
I
10
0
20
0
30
0
70
128
71
-91
72
100
73
99
0
VERTEX
8
I
10
0
20
0
30
0
70
128
71
92
72
93
73
-101
0
VERTEX
8
I
10
0
20
0
30
0
70
128
71
-92
72
101
73
100
0
VERTEX
8
I
10
0
20
0
30
0
70
128
71
93
72
94
73
-102
0
VERTEX
8
I
10
0
20
0
30
0
70
128
71
-93
72
102
73
101
0
VERTEX
8
I
10
0
20
0
30
0
70
128
71
94
72
95
73
-103
0
VERTEX
8
I
10
0
20
0
30
0
70
128
71
-94
72
103
73
102
0
VERTEX
8
I
10
0
20
0
30
0
70
128
71
95
72
96
73
-104
0
VERTEX
8
I
10
0
20
0
30
0
70
128
71
-95
72
104
73
103
0
VERTEX
8
I
10
0
20
0
30
0
70
128
71
96
72
89
73
-97
0
VERTEX
8
I
10
0
20
0
30
0
70
128
71
-96
72
97
73
104
0
VERTEX
8
I
10
0
20
0
30
0
70
128
71
97
72
98
73
-106
0
VERTEX
8
I
10
0
20
0
30
0
70
128
71
-97
72
106
73
105
0
VERTEX
8
I
10
0
20
0
30
0
70
128
71
98
72
99
73
-107
0
VERTEX
8
I
10
0
20
0
30
0
70
128
71
-98
72
107
73
106
0
VERTEX
8
I
10
0
20
0
30
0
70
128
71
99
72
100
73
-108
0
VERTEX
8
I
10
0
20
0
30
0
70
128
71
-99
72
108
73
107
0
VERTEX
8
I
10
0
20
0
30
0
70
128
71
100
72
101
73
-109
0
VERTEX
8
I
10
0
20
0
30
0
70
128
71
-100
72
109
73
108
0
VERTEX
8
I
10
0
20
0
30
0
70
128
71
101
72
102
73
-110
0
VERTEX
8
I
10
0
20
0
30
0
70
128
71
-101
72
110
73
109
0
VERTEX
8
I
10
0
20
0
30
0
70
128
71
102
72
103
73
-111
0
VERTEX
8
I
10
0
20
0
30
0
70
128
71
-102
72
111
73
110
0
VERTEX
8
I
10
0
20
0
30
0
70
128
71
103
72
104
73
-112
0
VERTEX
8
I
10
0
20
0
30
0
70
128
71
-103
72
112
73
111
0
VERTEX
8
I
10
0
20
0
30
0
70
128
71
104
72
97
73
-105
0
VERTEX
8
I
10
0
20
0
30
0
70
128
71
-104
72
105
73
112
0
VERTEX
8
I
10
0
20
0
30
0
70
128
71
105
72
106
73
-114
0
VERTEX
8
I
10
0
20
0
30
0
70
128
71
-105
72
114
73
113
0
VERTEX
8
I
10
0
20
0
30
0
70
128
71
106
72
107
73
-115
0
VERTEX
8
I
10
0
20
0
30
0
70
128
71
-106
72
115
73
114
0
VERTEX
8
I
10
0
20
0
30
0
70
128
71
107
72
108
73
-116
0
VERTEX
8
I
10
0
20
0
30
0
70
128
71
-107
72
116
73
115
0
VERTEX
8
I
10
0
20
0
30
0
70
128
71
108
72
109
73
-117
0
VERTEX
8
I
10
0
20
0
30
0
70
128
71
-108
72
117
73
116
0
VERTEX
8
I
10
0
20
0
30
0
70
128
71
109
72
110
73
-118
0
VERTEX
8
I
10
0
20
0
30
0
70
128
71
-109
72
118
73
117
0
VERTEX
8
I
10
0
20
0
30
0
70
128
71
110
72
111
73
-119
0
VERTEX
8
I
10
0
20
0
30
0
70
128
71
-110
72
119
73
118
0
VERTEX
8
I
10
0
20
0
30
0
70
128
71
111
72
112
73
-120
0
VERTEX
8
I
10
0
20
0
30
0
70
128
71
-111
72
120
73
119
0
VERTEX
8
I
10
0
20
0
30
0
70
128
71
112
72
105
73
-113
0
VERTEX
8
I
10
0
20
0
30
0
70
128
71
-112
72
113
73
120
0
VERTEX
8
I
10
0
20
0
30
0
70
128
71
113
72
114
73
-122
0
VERTEX
8
I
10
0
20
0
30
0
70
128
71
-113
72
122
73
121
0
VERTEX
8
I
10
0
20
0
30
0
70
128
71
114
72
115
73
-123
0
VERTEX
8
I
10
0
20
0
30
0
70
128
71
-114
72
123
73
122
0
VERTEX
8
I
10
0
20
0
30
0
70
128
71
115
72
116
73
-124
0
VERTEX
8
I
10
0
20
0
30
0
70
128
71
-115
72
124
73
123
0
VERTEX
8
I
10
0
20
0
30
0
70
128
71
116
72
117
73
-125
0
VERTEX
8
I
10
0
20
0
30
0
70
128
71
-116
72
125
73
124
0
VERTEX
8
I
10
0
20
0
30
0
70
128
71
117
72
118
73
-126
0
VERTEX
8
I
10
0
20
0
30
0
70
128
71
-117
72
126
73
125
0
VERTEX
8
I
10
0
20
0
30
0
70
128
71
118
72
119
73
-127
0
VERTEX
8
I
10
0
20
0
30
0
70
128
71
-118
72
127
73
126
0
VERTEX
8
I
10
0
20
0
30
0
70
128
71
119
72
120
73
-128
0
VERTEX
8
I
10
0
20
0
30
0
70
128
71
-119
72
128
73
127
0
VERTEX
8
I
10
0
20
0
30
0
70
128
71
120
72
113
73
-121
0
VERTEX
8
I
10
0
20
0
30
0
70
128
71
-120
72
121
73
128
0
VERTEX
8
I
10
0
20
0
30
0
70
128
71
121
72
122
73
-130
0
VERTEX
8
I
10
0
20
0
30
0
70
128
71
-121
72
130
73
129
0
VERTEX
8
I
10
0
20
0
30
0
70
128
71
122
72
123
73
-131
0
VERTEX
8
I
10
0
20
0
30
0
70
128
71
-122
72
131
73
130
0
VERTEX
8
I
10
0
20
0
30
0
70
128
71
123
72
124
73
-132
0
VERTEX
8
I
10
0
20
0
30
0
70
128
71
-123
72
132
73
131
0
VERTEX
8
I
10
0
20
0
30
0
70
128
71
124
72
125
73
-133
0
VERTEX
8
I
10
0
20
0
30
0
70
128
71
-124
72
133
73
132
0
VERTEX
8
I
10
0
20
0
30
0
70
128
71
125
72
126
73
-134
0
VERTEX
8
I
10
0
20
0
30
0
70
128
71
-125
72
134
73
133
0
VERTEX
8
I
10
0
20
0
30
0
70
128
71
126
72
127
73
-135
0
VERTEX
8
I
10
0
20
0
30
0
70
128
71
-126
72
135
73
134
0
VERTEX
8
I
10
0
20
0
30
0
70
128
71
127
72
128
73
-136
0
VERTEX
8
I
10
0
20
0
30
0
70
128
71
-127
72
136
73
135
0
VERTEX
8
I
10
0
20
0
30
0
70
128
71
128
72
121
73
-129
0
VERTEX
8
I
10
0
20
0
30
0
70
128
71
-128
72
129
73
136
0
VERTEX
8
I
10
0
20
0
30
0
70
128
71
129
72
130
73
-138
0
VERTEX
8
I
10
0
20
0
30
0
70
128
71
-129
72
138
73
137
0
VERTEX
8
I
10
0
20
0
30
0
70
128
71
130
72
131
73
-139
0
VERTEX
8
I
10
0
20
0
30
0
70
128
71
-130
72
139
73
138
0
VERTEX
8
I
10
0
20
0
30
0
70
128
71
131
72
132
73
-140
0
VERTEX
8
I
10
0
20
0
30
0
70
128
71
-131
72
140
73
139
0
VERTEX
8
I
10
0
20
0
30
0
70
128
71
132
72
133
73
-141
0
VERTEX
8
I
10
0
20
0
30
0
70
128
71
-132
72
141
73
140
0
VERTEX
8
I
10
0
20
0
30
0
70
128
71
133
72
134
73
-142
0
VERTEX
8
I
10
0
20
0
30
0
70
128
71
-133
72
142
73
141
0
VERTEX
8
I
10
0
20
0
30
0
70
128
71
134
72
135
73
-143
0
VERTEX
8
I
10
0
20
0
30
0
70
128
71
-134
72
143
73
142
0
VERTEX
8
I
10
0
20
0
30
0
70
128
71
135
72
136
73
-144
0
VERTEX
8
I
10
0
20
0
30
0
70
128
71
-135
72
144
73
143
0
VERTEX
8
I
10
0
20
0
30
0
70
128
71
136
72
129
73
-137
0
VERTEX
8
I
10
0
20
0
30
0
70
128
71
-136
72
137
73
144
0
VERTEX
8
I
10
0
20
0
30
0
70
128
71
137
72
138
73
-146
0
VERTEX
8
I
10
0
20
0
30
0
70
128
71
-137
72
146
73
145
0
VERTEX
8
I
10
0
20
0
30
0
70
128
71
138
72
139
73
-147
0
VERTEX
8
I
10
0
20
0
30
0
70
128
71
-138
72
147
73
146
0
VERTEX
8
I
10
0
20
0
30
0
70
128
71
139
72
140
73
-148
0
VERTEX
8
I
10
0
20
0
30
0
70
128
71
-139
72
148
73
147
0
VERTEX
8
I
10
0
20
0
30
0
70
128
71
140
72
141
73
-149
0
VERTEX
8
I
10
0
20
0
30
0
70
128
71
-140
72
149
73
148
0
VERTEX
8
I
10
0
20
0
30
0
70
128
71
141
72
142
73
-150
0
VERTEX
8
I
10
0
20
0
30
0
70
128
71
-141
72
150
73
149
0
VERTEX
8
I
10
0
20
0
30
0
70
128
71
142
72
143
73
-151
0
VERTEX
8
I
10
0
20
0
30
0
70
128
71
-142
72
151
73
150
0
VERTEX
8
I
10
0
20
0
30
0
70
128
71
143
72
144
73
-152
0
VERTEX
8
I
10
0
20
0
30
0
70
128
71
-143
72
152
73
151
0
VERTEX
8
I
10
0
20
0
30
0
70
128
71
144
72
137
73
-145
0
VERTEX
8
I
10
0
20
0
30
0
70
128
71
-144
72
145
73
152
0
VERTEX
8
I
10
0
20
0
30
0
70
128
71
145
72
146
73
-154
0
VERTEX
8
I
10
0
20
0
30
0
70
128
71
-145
72
154
73
153
0
VERTEX
8
I
10
0
20
0
30
0
70
128
71
146
72
147
73
-155
0
VERTEX
8
I
10
0
20
0
30
0
70
128
71
-146
72
155
73
154
0
VERTEX
8
I
10
0
20
0
30
0
70
128
71
147
72
148
73
-156
0
VERTEX
8
I
10
0
20
0
30
0
70
128
71
-147
72
156
73
155
0
VERTEX
8
I
10
0
20
0
30
0
70
128
71
148
72
149
73
-157
0
VERTEX
8
I
10
0
20
0
30
0
70
128
71
-148
72
157
73
156
0
VERTEX
8
I
10
0
20
0
30
0
70
128
71
149
72
150
73
-158
0
VERTEX
8
I
10
0
20
0
30
0
70
128
71
-149
72
158
73
157
0
VERTEX
8
I
10
0
20
0
30
0
70
128
71
150
72
151
73
-159
0
VERTEX
8
I
10
0
20
0
30
0
70
128
71
-150
72
159
73
158
0
VERTEX
8
I
10
0
20
0
30
0
70
128
71
151
72
152
73
-160
0
VERTEX
8
I
10
0
20
0
30
0
70
128
71
-151
72
160
73
159
0
VERTEX
8
I
10
0
20
0
30
0
70
128
71
152
72
145
73
-153
0
VERTEX
8
I
10
0
20
0
30
0
70
128
71
-152
72
153
73
160
0
VERTEX
8
I
10
0
20
0
30
0
70
128
71
153
72
154
73
-162
0
VERTEX
8
I
10
0
20
0
30
0
70
128
71
-153
72
162
73
161
0
VERTEX
8
I
10
0
20
0
30
0
70
128
71
154
72
155
73
-163
0
VERTEX
8
I
10
0
20
0
30
0
70
128
71
-154
72
163
73
162
0
VERTEX
8
I
10
0
20
0
30
0
70
128
71
155
72
156
73
-164
0
VERTEX
8
I
10
0
20
0
30
0
70
128
71
-155
72
164
73
163
0
VERTEX
8
I
10
0
20
0
30
0
70
128
71
156
72
157
73
-165
0
VERTEX
8
I
10
0
20
0
30
0
70
128
71
-156
72
165
73
164
0
VERTEX
8
I
10
0
20
0
30
0
70
128
71
157
72
158
73
-166
0
VERTEX
8
I
10
0
20
0
30
0
70
128
71
-157
72
166
73
165
0
VERTEX
8
I
10
0
20
0
30
0
70
128
71
158
72
159
73
-167
0
VERTEX
8
I
10
0
20
0
30
0
70
128
71
-158
72
167
73
166
0
VERTEX
8
I
10
0
20
0
30
0
70
128
71
159
72
160
73
-168
0
VERTEX
8
I
10
0
20
0
30
0
70
128
71
-159
72
168
73
167
0
VERTEX
8
I
10
0
20
0
30
0
70
128
71
160
72
153
73
-161
0
VERTEX
8
I
10
0
20
0
30
0
70
128
71
-160
72
161
73
168
0
VERTEX
8
I
10
0
20
0
30
0
70
128
71
161
72
162
73
-170
0
VERTEX
8
I
10
0
20
0
30
0
70
128
71
-161
72
170
73
169
0
VERTEX
8
I
10
0
20
0
30
0
70
128
71
162
72
163
73
-171
0
VERTEX
8
I
10
0
20
0
30
0
70
128
71
-162
72
171
73
170
0
VERTEX
8
I
10
0
20
0
30
0
70
128
71
163
72
164
73
-172
0
VERTEX
8
I
10
0
20
0
30
0
70
128
71
-163
72
172
73
171
0
VERTEX
8
I
10
0
20
0
30
0
70
128
71
164
72
165
73
-173
0
VERTEX
8
I
10
0
20
0
30
0
70
128
71
-164
72
173
73
172
0
VERTEX
8
I
10
0
20
0
30
0
70
128
71
165
72
166
73
-174
0
VERTEX
8
I
10
0
20
0
30
0
70
128
71
-165
72
174
73
173
0
VERTEX
8
I
10
0
20
0
30
0
70
128
71
166
72
167
73
-175
0
VERTEX
8
I
10
0
20
0
30
0
70
128
71
-166
72
175
73
174
0
VERTEX
8
I
10
0
20
0
30
0
70
128
71
167
72
168
73
-176
0
VERTEX
8
I
10
0
20
0
30
0
70
128
71
-167
72
176
73
175
0
VERTEX
8
I
10
0
20
0
30
0
70
128
71
168
72
161
73
-169
0
VERTEX
8
I
10
0
20
0
30
0
70
128
71
-168
72
169
73
176
0
VERTEX
8
I
10
0
20
0
30
0
70
128
71
169
72
170
73
-178
0
VERTEX
8
I
10
0
20
0
30
0
70
128
71
-169
72
178
73
177
0
VERTEX
8
I
10
0
20
0
30
0
70
128
71
170
72
171
73
-179
0
VERTEX
8
I
10
0
20
0
30
0
70
128
71
-170
72
179
73
178
0
VERTEX
8
I
10
0
20
0
30
0
70
128
71
171
72
172
73
-180
0
VERTEX
8
I
10
0
20
0
30
0
70
128
71
-171
72
180
73
179
0
VERTEX
8
I
10
0
20
0
30
0
70
128
71
172
72
173
73
-181
0
VERTEX
8
I
10
0
20
0
30
0
70
128
71
-172
72
181
73
180
0
VERTEX
8
I
10
0
20
0
30
0
70
128
71
173
72
174
73
-182
0
VERTEX
8
I
10
0
20
0
30
0
70
128
71
-173
72
182
73
181
0
VERTEX
8
I
10
0
20
0
30
0
70
128
71
174
72
175
73
-183
0
VERTEX
8
I
10
0
20
0
30
0
70
128
71
-174
72
183
73
182
0
VERTEX
8
I
10
0
20
0
30
0
70
128
71
175
72
176
73
-184
0
VERTEX
8
I
10
0
20
0
30
0
70
128
71
-175
72
184
73
183
0
VERTEX
8
I
10
0
20
0
30
0
70
128
71
176
72
169
73
-177
0
VERTEX
8
I
10
0
20
0
30
0
70
128
71
-176
72
177
73
184
0
VERTEX
8
I
10
0
20
0
30
0
70
128
71
177
72
178
73
-186
0
VERTEX
8
I
10
0
20
0
30
0
70
128
71
-177
72
186
73
185
0
VERTEX
8
I
10
0
20
0
30
0
70
128
71
178
72
179
73
-187
0
VERTEX
8
I
10
0
20
0
30
0
70
128
71
-178
72
187
73
186
0
VERTEX
8
I
10
0
20
0
30
0
70
128
71
179
72
180
73
-188
0
VERTEX
8
I
10
0
20
0
30
0
70
128
71
-179
72
188
73
187
0
VERTEX
8
I
10
0
20
0
30
0
70
128
71
180
72
181
73
-189
0
VERTEX
8
I
10
0
20
0
30
0
70
128
71
-180
72
189
73
188
0
VERTEX
8
I
10
0
20
0
30
0
70
128
71
181
72
182
73
-190
0
VERTEX
8
I
10
0
20
0
30
0
70
128
71
-181
72
190
73
189
0
VERTEX
8
I
10
0
20
0
30
0
70
128
71
182
72
183
73
-191
0
VERTEX
8
I
10
0
20
0
30
0
70
128
71
-182
72
191
73
190
0
VERTEX
8
I
10
0
20
0
30
0
70
128
71
183
72
184
73
-192
0
VERTEX
8
I
10
0
20
0
30
0
70
128
71
-183
72
192
73
191
0
VERTEX
8
I
10
0
20
0
30
0
70
128
71
184
72
177
73
-185
0
VERTEX
8
I
10
0
20
0
30
0
70
128
71
-184
72
185
73
192
0
VERTEX
8
I
10
0
20
0
30
0
70
128
71
185
72
186
73
-194
0
VERTEX
8
I
10
0
20
0
30
0
70
128
71
-185
72
194
73
193
0
VERTEX
8
I
10
0
20
0
30
0
70
128
71
186
72
187
73
-195
0
VERTEX
8
I
10
0
20
0
30
0
70
128
71
-186
72
195
73
194
0
VERTEX
8
I
10
0
20
0
30
0
70
128
71
187
72
188
73
-196
0
VERTEX
8
I
10
0
20
0
30
0
70
128
71
-187
72
196
73
195
0
VERTEX
8
I
10
0
20
0
30
0
70
128
71
188
72
189
73
-197
0
VERTEX
8
I
10
0
20
0
30
0
70
128
71
-188
72
197
73
196
0
VERTEX
8
I
10
0
20
0
30
0
70
128
71
189
72
190
73
-198
0
VERTEX
8
I
10
0
20
0
30
0
70
128
71
-189
72
198
73
197
0
VERTEX
8
I
10
0
20
0
30
0
70
128
71
190
72
191
73
-199
0
VERTEX
8
I
10
0
20
0
30
0
70
128
71
-190
72
199
73
198
0
VERTEX
8
I
10
0
20
0
30
0
70
128
71
191
72
192
73
-200
0
VERTEX
8
I
10
0
20
0
30
0
70
128
71
-191
72
200
73
199
0
VERTEX
8
I
10
0
20
0
30
0
70
128
71
192
72
185
73
-193
0
VERTEX
8
I
10
0
20
0
30
0
70
128
71
-192
72
193
73
200
0
VERTEX
8
I
10
0
20
0
30
0
70
128
71
196
72
197
73
-198
0
VERTEX
8
I
10
0
20
0
30
0
70
128
71
195
72
-196
73
-198
0
VERTEX
8
I
10
0
20
0
30
0
70
128
71
194
72
-195
73
-198
0
VERTEX
8
I
10
0
20
0
30
0
70
128
71
193
72
-194
73
-198
0
VERTEX
8
I
10
0
20
0
30
0
70
128
71
200
72
-193
73
-198
0
VERTEX
8
I
10
0
20
0
30
0
70
128
71
199
72
-200
73
198
0
VERTEX
8
I
10
0
20
0
30
0
70
128
71
202
72
201
73
-208
0
VERTEX
8
I
10
0
20
0
30
0
70
128
71
-202
72
208
73
-207
0
VERTEX
8
I
10
0
20
0
30
0
70
128
71
203
72
-202
73
-207
0
VERTEX
8
I
10
0
20
0
30
0
70
128
71
204
72
-203
73
-207
0
VERTEX
8
I
10
0
20
0
30
0
70
128
71
-204
72
207
73
-206
0
VERTEX
8
I
10
0
20
0
30
0
70
128
71
-204
72
206
73
205
0
VERTEX
8
I
10
0
20
0
30
0
70
128
71
201
72
202
73
-210
0
VERTEX
8
I
10
0
20
0
30
0
70
128
71
-201
72
210
73
209
0
VERTEX
8
I
10
0
20
0
30
0
70
128
71
202
72
203
73
-211
0
VERTEX
8
I
10
0
20
0
30
0
70
128
71
-202
72
211
73
210
0
VERTEX
8
I
10
0
20
0
30
0
70
128
71
203
72
204
73
-212
0
VERTEX
8
I
10
0
20
0
30
0
70
128
71
-203
72
212
73
211
0
VERTEX
8
I
10
0
20
0
30
0
70
128
71
204
72
205
73
-213
0
VERTEX
8
I
10
0
20
0
30
0
70
128
71
-204
72
213
73
212
0
VERTEX
8
I
10
0
20
0
30
0
70
128
71
205
72
206
73
-214
0
VERTEX
8
I
10
0
20
0
30
0
70
128
71
-205
72
214
73
213
0
VERTEX
8
I
10
0
20
0
30
0
70
128
71
206
72
207
73
-215
0
VERTEX
8
I
10
0
20
0
30
0
70
128
71
-206
72
215
73
214
0
VERTEX
8
I
10
0
20
0
30
0
70
128
71
207
72
208
73
-216
0
VERTEX
8
I
10
0
20
0
30
0
70
128
71
-207
72
216
73
215
0
VERTEX
8
I
10
0
20
0
30
0
70
128
71
208
72
201
73
-209
0
VERTEX
8
I
10
0
20
0
30
0
70
128
71
-208
72
209
73
216
0
VERTEX
8
I
10
0
20
0
30
0
70
128
71
209
72
210
73
-218
0
VERTEX
8
I
10
0
20
0
30
0
70
128
71
-209
72
218
73
217
0
VERTEX
8
I
10
0
20
0
30
0
70
128
71
210
72
211
73
-219
0
VERTEX
8
I
10
0
20
0
30
0
70
128
71
-210
72
219
73
218
0
VERTEX
8
I
10
0
20
0
30
0
70
128
71
211
72
212
73
-220
0
VERTEX
8
I
10
0
20
0
30
0
70
128
71
-211
72
220
73
219
0
VERTEX
8
I
10
0
20
0
30
0
70
128
71
212
72
213
73
-221
0
VERTEX
8
I
10
0
20
0
30
0
70
128
71
-212
72
221
73
220
0
VERTEX
8
I
10
0
20
0
30
0
70
128
71
213
72
214
73
-222
0
VERTEX
8
I
10
0
20
0
30
0
70
128
71
-213
72
222
73
221
0
VERTEX
8
I
10
0
20
0
30
0
70
128
71
214
72
215
73
-223
0
VERTEX
8
I
10
0
20
0
30
0
70
128
71
-214
72
223
73
222
0
VERTEX
8
I
10
0
20
0
30
0
70
128
71
215
72
216
73
-224
0
VERTEX
8
I
10
0
20
0
30
0
70
128
71
-215
72
224
73
223
0
VERTEX
8
I
10
0
20
0
30
0
70
128
71
216
72
209
73
-217
0
VERTEX
8
I
10
0
20
0
30
0
70
128
71
-216
72
217
73
224
0
VERTEX
8
I
10
0
20
0
30
0
70
128
71
217
72
218
73
-226
0
VERTEX
8
I
10
0
20
0
30
0
70
128
71
-217
72
226
73
225
0
VERTEX
8
I
10
0
20
0
30
0
70
128
71
218
72
219
73
-227
0
VERTEX
8
I
10
0
20
0
30
0
70
128
71
-218
72
227
73
226
0
VERTEX
8
I
10
0
20
0
30
0
70
128
71
219
72
220
73
-228
0
VERTEX
8
I
10
0
20
0
30
0
70
128
71
-219
72
228
73
227
0
VERTEX
8
I
10
0
20
0
30
0
70
128
71
220
72
221
73
-229
0
VERTEX
8
I
10
0
20
0
30
0
70
128
71
-220
72
229
73
228
0
VERTEX
8
I
10
0
20
0
30
0
70
128
71
221
72
222
73
-230
0
VERTEX
8
I
10
0
20
0
30
0
70
128
71
-221
72
230
73
229
0
VERTEX
8
I
10
0
20
0
30
0
70
128
71
222
72
223
73
-231
0
VERTEX
8
I
10
0
20
0
30
0
70
128
71
-222
72
231
73
230
0
VERTEX
8
I
10
0
20
0
30
0
70
128
71
223
72
224
73
-232
0
VERTEX
8
I
10
0
20
0
30
0
70
128
71
-223
72
232
73
231
0
VERTEX
8
I
10
0
20
0
30
0
70
128
71
224
72
217
73
-225
0
VERTEX
8
I
10
0
20
0
30
0
70
128
71
-224
72
225
73
232
0
VERTEX
8
I
10
0
20
0
30
0
70
128
71
232
72
225
73
-226
0
VERTEX
8
I
10
0
20
0
30
0
70
128
71
231
72
-232
73
-226
0
VERTEX
8
I
10
0
20
0
30
0
70
128
71
-231
72
226
73
-227
0
VERTEX
8
I
10
0
20
0
30
0
70
128
71
-231
72
227
73
-228
0
VERTEX
8
I
10
0
20
0
30
0
70
128
71
230
72
-231
73
-228
0
VERTEX
8
I
10
0
20
0
30
0
70
128
71
229
72
-230
73
228
0
SEQEND
8
I
0
ENDSEC
0
EOF
